<svg width="355" height="376" viewBox="0 0 355 376" fill="none" xmlns="http://www.w3.org/2000/svg">
<rect width="355" height="376" fill="white"/>
<path d="M93.36 274V260H99.18C100.66 260 101.82 260.307 102.66 260.92C103.513 261.52 103.94 262.407 103.94 263.58C103.94 264.74 103.533 265.62 102.72 266.22C101.907 266.807 100.84 267.1 99.52 267.1L99.86 266.6C101.42 266.6 102.607 266.907 103.42 267.52C104.233 268.133 104.64 269.033 104.64 270.22C104.64 271.42 104.213 272.353 103.36 273.02C102.52 273.673 101.253 274 99.56 274H93.36ZM94.82 272.82H99.56C100.747 272.82 101.647 272.6 102.26 272.16C102.873 271.72 103.18 271.04 103.18 270.12C103.18 269.213 102.873 268.547 102.26 268.12C101.647 267.693 100.747 267.48 99.56 267.48H94.82V272.82ZM94.82 266.34H99.1C100.18 266.34 101.007 266.127 101.58 265.7C102.167 265.26 102.46 264.613 102.46 263.76C102.46 262.907 102.167 262.267 101.58 261.84C101.007 261.4 100.18 261.18 99.1 261.18H94.82V266.34ZM118.24 274V263.5H119.66V274H118.24ZM112.42 267.2C113.74 267.213 114.747 267.507 115.44 268.08C116.134 268.653 116.48 269.48 116.48 270.56C116.48 271.68 116.107 272.54 115.36 273.14C114.614 273.74 113.547 274.033 112.16 274.02L108 274V263.5H109.42V267.16L112.42 267.2ZM112.06 272.94C113.047 272.953 113.787 272.76 114.28 272.36C114.787 271.947 115.04 271.347 115.04 270.56C115.04 269.773 114.794 269.2 114.3 268.84C113.807 268.467 113.06 268.273 112.06 268.26L109.42 268.22V272.9L112.06 272.94ZM128.424 274.12C127.57 274.12 126.81 273.98 126.144 273.7C125.49 273.42 124.93 272.993 124.464 272.42C123.997 271.847 123.644 271.14 123.404 270.3C123.164 269.447 123.044 268.46 123.044 267.34C123.044 266.34 123.137 265.467 123.324 264.72C123.51 263.96 123.77 263.307 124.104 262.76C124.437 262.213 124.824 261.753 125.264 261.38C125.717 260.993 126.204 260.687 126.724 260.46C127.257 260.22 127.804 260.04 128.364 259.92L133.084 258.82L133.324 260.14L128.884 261.14C128.604 261.207 128.264 261.3 127.864 261.42C127.477 261.54 127.077 261.72 126.664 261.96C126.264 262.2 125.89 262.533 125.544 262.96C125.197 263.387 124.917 263.94 124.704 264.62C124.504 265.287 124.404 266.12 124.404 267.12C124.404 267.333 124.41 267.507 124.424 267.64C124.437 267.76 124.45 267.893 124.464 268.04C124.49 268.173 124.51 268.373 124.524 268.64L123.904 268.12C124.05 267.307 124.35 266.6 124.804 266C125.257 265.387 125.824 264.913 126.504 264.58C127.197 264.233 127.964 264.06 128.804 264.06C129.777 264.06 130.644 264.273 131.404 264.7C132.164 265.113 132.757 265.693 133.184 266.44C133.624 267.187 133.844 268.053 133.844 269.04C133.844 270.013 133.617 270.887 133.164 271.66C132.724 272.433 132.097 273.04 131.284 273.48C130.47 273.907 129.517 274.12 128.424 274.12ZM128.584 272.94C129.33 272.94 129.99 272.773 130.564 272.44C131.137 272.093 131.584 271.627 131.904 271.04C132.237 270.453 132.404 269.793 132.404 269.06C132.404 268.34 132.237 267.7 131.904 267.14C131.584 266.58 131.137 266.14 130.564 265.82C129.99 265.487 129.324 265.32 128.564 265.32C127.817 265.32 127.157 265.48 126.584 265.8C126.01 266.107 125.557 266.54 125.224 267.1C124.904 267.66 124.744 268.307 124.744 269.04C124.744 269.773 124.904 270.433 125.224 271.02C125.557 271.607 126.01 272.073 126.584 272.42C127.17 272.767 127.837 272.94 128.584 272.94ZM136.887 274V263.5H138.307V271.84L145.327 263.5H146.587V274H145.167V265.64L138.167 274H136.887ZM156.077 274.1C155.17 274.1 154.35 273.893 153.617 273.48C152.883 273.053 152.297 272.447 151.857 271.66C151.43 270.86 151.217 269.887 151.217 268.74C151.217 267.593 151.43 266.627 151.857 265.84C152.283 265.04 152.863 264.433 153.597 264.02C154.33 263.607 155.157 263.4 156.077 263.4C157.077 263.4 157.97 263.627 158.757 264.08C159.557 264.52 160.183 265.147 160.637 265.96C161.09 266.76 161.317 267.687 161.317 268.74C161.317 269.807 161.09 270.74 160.637 271.54C160.183 272.34 159.557 272.967 158.757 273.42C157.97 273.873 157.077 274.1 156.077 274.1ZM150.657 277.88V263.5H152.017V266.66L151.877 268.76L152.077 270.88V277.88H150.657ZM155.977 272.84C156.723 272.84 157.39 272.673 157.977 272.34C158.563 271.993 159.03 271.513 159.377 270.9C159.723 270.273 159.897 269.553 159.897 268.74C159.897 267.927 159.723 267.213 159.377 266.6C159.03 265.987 158.563 265.507 157.977 265.16C157.39 264.813 156.723 264.64 155.977 264.64C155.23 264.64 154.557 264.813 153.957 265.16C153.37 265.507 152.903 265.987 152.557 266.6C152.223 267.213 152.057 267.927 152.057 268.74C152.057 269.553 152.223 270.273 152.557 270.9C152.903 271.513 153.37 271.993 153.957 272.34C154.557 272.673 155.23 272.84 155.977 272.84ZM170.829 274V271.68L170.769 271.3V267.42C170.769 266.527 170.516 265.84 170.009 265.36C169.516 264.88 168.776 264.64 167.789 264.64C167.109 264.64 166.462 264.753 165.849 264.98C165.236 265.207 164.716 265.507 164.289 265.88L163.649 264.82C164.182 264.367 164.822 264.02 165.569 263.78C166.316 263.527 167.102 263.4 167.929 263.4C169.289 263.4 170.336 263.74 171.069 264.42C171.816 265.087 172.189 266.107 172.189 267.48V274H170.829ZM167.209 274.1C166.422 274.1 165.736 273.973 165.149 273.72C164.576 273.453 164.136 273.093 163.829 272.64C163.522 272.173 163.369 271.64 163.369 271.04C163.369 270.493 163.496 270 163.749 269.56C164.016 269.107 164.442 268.747 165.029 268.48C165.629 268.2 166.429 268.06 167.429 268.06H171.049V269.12H167.469C166.456 269.12 165.749 269.3 165.349 269.66C164.962 270.02 164.769 270.467 164.769 271C164.769 271.6 165.002 272.08 165.469 272.44C165.936 272.8 166.589 272.98 167.429 272.98C168.229 272.98 168.916 272.8 169.489 272.44C170.076 272.067 170.502 271.533 170.769 270.84L171.089 271.82C170.822 272.513 170.356 273.067 169.689 273.48C169.036 273.893 168.209 274.1 167.209 274.1ZM180.469 274.1C179.376 274.1 178.416 273.873 177.589 273.42C176.763 272.953 176.116 272.32 175.649 271.52C175.183 270.707 174.949 269.78 174.949 268.74C174.949 267.7 175.169 266.78 175.609 265.98C176.063 265.18 176.676 264.553 177.449 264.1C178.236 263.633 179.116 263.4 180.089 263.4C181.076 263.4 181.949 263.627 182.709 264.08C183.483 264.52 184.089 265.147 184.529 265.96C184.969 266.76 185.189 267.687 185.189 268.74C185.189 268.807 185.183 268.88 185.169 268.96C185.169 269.027 185.169 269.1 185.169 269.18H176.029V268.12H184.409L183.849 268.54C183.849 267.78 183.683 267.107 183.349 266.52C183.029 265.92 182.589 265.453 182.029 265.12C181.469 264.787 180.823 264.62 180.089 264.62C179.369 264.62 178.723 264.787 178.149 265.12C177.576 265.453 177.129 265.92 176.809 266.52C176.489 267.12 176.329 267.807 176.329 268.58V268.8C176.329 269.6 176.503 270.307 176.849 270.92C177.209 271.52 177.703 271.993 178.329 272.34C178.969 272.673 179.696 272.84 180.509 272.84C181.149 272.84 181.743 272.727 182.289 272.5C182.849 272.273 183.329 271.927 183.729 271.46L184.529 272.38C184.063 272.94 183.476 273.367 182.769 273.66C182.076 273.953 181.309 274.1 180.469 274.1ZM189.864 274V264.36L190.224 264.74H185.884V263.5H195.264V264.74H190.924L191.284 264.36V274H189.864ZM201.329 274.1C200.235 274.1 199.275 273.873 198.449 273.42C197.622 272.953 196.975 272.32 196.509 271.52C196.042 270.707 195.809 269.78 195.809 268.74C195.809 267.7 196.029 266.78 196.469 265.98C196.922 265.18 197.535 264.553 198.309 264.1C199.095 263.633 199.975 263.4 200.949 263.4C201.935 263.4 202.809 263.627 203.569 264.08C204.342 264.52 204.949 265.147 205.389 265.96C205.829 266.76 206.049 267.687 206.049 268.74C206.049 268.807 206.042 268.88 206.029 268.96C206.029 269.027 206.029 269.1 206.029 269.18H196.889V268.12H205.269L204.709 268.54C204.709 267.78 204.542 267.107 204.209 266.52C203.889 265.92 203.449 265.453 202.889 265.12C202.329 264.787 201.682 264.62 200.949 264.62C200.229 264.62 199.582 264.787 199.009 265.12C198.435 265.453 197.989 265.92 197.669 266.52C197.349 267.12 197.189 267.807 197.189 268.58V268.8C197.189 269.6 197.362 270.307 197.709 270.92C198.069 271.52 198.562 271.993 199.189 272.34C199.829 272.673 200.555 272.84 201.369 272.84C202.009 272.84 202.602 272.727 203.149 272.5C203.709 272.273 204.189 271.927 204.589 271.46L205.389 272.38C204.922 272.94 204.335 273.367 203.629 273.66C202.935 273.953 202.169 274.1 201.329 274.1ZM222.126 274L217.806 268.8L218.986 268.1L223.806 274H222.126ZM214.426 274V263.5H215.846V274H214.426ZM215.406 269.32V268.1H218.786V269.32H215.406ZM219.106 268.9L217.786 268.7L221.966 263.5H223.506L219.106 268.9ZM226.047 274V263.5H227.467V268.14H234.087V263.5H235.507V274H234.087V269.36H227.467V274H226.047ZM239.543 274V263.5H240.963V271.84L247.983 263.5H249.243V274H247.823V265.64L240.823 274H239.543ZM253.313 274V263.5H260.753V264.74H254.373L254.733 264.38V274H253.313ZM262.985 277.98C262.492 277.98 262.018 277.9 261.565 277.74C261.125 277.58 260.745 277.34 260.425 277.02L261.085 275.96C261.352 276.213 261.638 276.407 261.945 276.54C262.265 276.687 262.618 276.76 263.005 276.76C263.472 276.76 263.872 276.627 264.205 276.36C264.552 276.107 264.878 275.653 265.185 275L265.865 273.46L266.025 273.24L270.345 263.5H271.745L266.485 275.26C266.192 275.94 265.865 276.48 265.505 276.88C265.158 277.28 264.778 277.56 264.365 277.72C263.952 277.893 263.492 277.98 262.985 277.98ZM265.785 274.3L260.945 263.5H262.425L266.705 273.14L265.785 274.3ZM93.02 298V287.5H94.44V292.14H101.06V287.5H102.48V298H101.06V293.36H94.44V298H93.02ZM113.036 298V295.68L112.976 295.3V291.42C112.976 290.527 112.723 289.84 112.216 289.36C111.723 288.88 110.983 288.64 109.996 288.64C109.316 288.64 108.669 288.753 108.056 288.98C107.443 289.207 106.923 289.507 106.496 289.88L105.856 288.82C106.389 288.367 107.029 288.02 107.776 287.78C108.523 287.527 109.309 287.4 110.136 287.4C111.496 287.4 112.543 287.74 113.276 288.42C114.023 289.087 114.396 290.107 114.396 291.48V298H113.036ZM109.416 298.1C108.629 298.1 107.943 297.973 107.356 297.72C106.783 297.453 106.343 297.093 106.036 296.64C105.729 296.173 105.576 295.64 105.576 295.04C105.576 294.493 105.703 294 105.956 293.56C106.223 293.107 106.649 292.747 107.236 292.48C107.836 292.2 108.636 292.06 109.636 292.06H113.256V293.12H109.676C108.663 293.12 107.956 293.3 107.556 293.66C107.169 294.02 106.976 294.467 106.976 295C106.976 295.6 107.209 296.08 107.676 296.44C108.143 296.8 108.796 296.98 109.636 296.98C110.436 296.98 111.123 296.8 111.696 296.44C112.283 296.067 112.709 295.533 112.976 294.84L113.296 295.82C113.029 296.513 112.563 297.067 111.896 297.48C111.243 297.893 110.416 298.1 109.416 298.1ZM123.671 298V284H125.151V296.72H132.991V298H123.671ZM139.272 298.1C138.258 298.1 137.345 297.873 136.532 297.42C135.732 296.953 135.098 296.32 134.632 295.52C134.165 294.707 133.932 293.78 133.932 292.74C133.932 291.687 134.165 290.76 134.632 289.96C135.098 289.16 135.732 288.533 136.532 288.08C137.332 287.627 138.245 287.4 139.272 287.4C140.312 287.4 141.232 287.627 142.032 288.08C142.845 288.533 143.478 289.16 143.932 289.96C144.398 290.76 144.632 291.687 144.632 292.74C144.632 293.78 144.398 294.707 143.932 295.52C143.478 296.32 142.845 296.953 142.032 297.42C141.218 297.873 140.298 298.1 139.272 298.1ZM139.272 296.84C140.032 296.84 140.705 296.673 141.292 296.34C141.878 295.993 142.338 295.513 142.672 294.9C143.018 294.273 143.192 293.553 143.192 292.74C143.192 291.913 143.018 291.193 142.672 290.58C142.338 289.967 141.878 289.493 141.292 289.16C140.705 288.813 140.038 288.64 139.292 288.64C138.545 288.64 137.878 288.813 137.292 289.16C136.705 289.493 136.238 289.967 135.892 290.58C135.545 291.193 135.372 291.913 135.372 292.74C135.372 293.553 135.545 294.273 135.892 294.9C136.238 295.513 136.705 295.993 137.292 296.34C137.878 296.673 138.538 296.84 139.272 296.84ZM151.811 298.1C150.797 298.1 149.884 297.873 149.071 297.42C148.271 296.953 147.637 296.32 147.171 295.52C146.704 294.707 146.471 293.78 146.471 292.74C146.471 291.687 146.704 290.76 147.171 289.96C147.637 289.16 148.271 288.533 149.071 288.08C149.871 287.627 150.784 287.4 151.811 287.4C152.851 287.4 153.771 287.627 154.571 288.08C155.384 288.533 156.017 289.16 156.471 289.96C156.937 290.76 157.171 291.687 157.171 292.74C157.171 293.78 156.937 294.707 156.471 295.52C156.017 296.32 155.384 296.953 154.571 297.42C153.757 297.873 152.837 298.1 151.811 298.1ZM151.811 296.84C152.571 296.84 153.244 296.673 153.831 296.34C154.417 295.993 154.877 295.513 155.211 294.9C155.557 294.273 155.731 293.553 155.731 292.74C155.731 291.913 155.557 291.193 155.211 290.58C154.877 289.967 154.417 289.493 153.831 289.16C153.244 288.813 152.577 288.64 151.831 288.64C151.084 288.64 150.417 288.813 149.831 289.16C149.244 289.493 148.777 289.967 148.431 290.58C148.084 291.193 147.911 291.913 147.911 292.74C147.911 293.553 148.084 294.273 148.431 294.9C148.777 295.513 149.244 295.993 149.831 296.34C150.417 296.673 151.077 296.84 151.811 296.84ZM163.39 298.1C162.403 298.1 161.643 297.833 161.11 297.3C160.577 296.767 160.31 296.013 160.31 295.04V285.18H161.73V294.96C161.73 295.573 161.883 296.047 162.19 296.38C162.51 296.713 162.963 296.88 163.55 296.88C164.177 296.88 164.697 296.7 165.11 296.34L165.61 297.36C165.33 297.613 164.99 297.8 164.59 297.92C164.203 298.04 163.803 298.1 163.39 298.1ZM158.43 288.68V287.5H164.93V288.68H158.43ZM173.615 298.1C172.695 298.1 171.868 297.893 171.135 297.48C170.402 297.053 169.822 296.44 169.395 295.64C168.968 294.84 168.755 293.873 168.755 292.74C168.755 291.593 168.968 290.627 169.395 289.84C169.835 289.04 170.422 288.433 171.155 288.02C171.888 287.607 172.708 287.4 173.615 287.4C174.615 287.4 175.508 287.627 176.295 288.08C177.095 288.52 177.722 289.14 178.175 289.94C178.628 290.74 178.855 291.673 178.855 292.74C178.855 293.793 178.628 294.727 178.175 295.54C177.722 296.34 177.095 296.967 176.295 297.42C175.508 297.873 174.615 298.1 173.615 298.1ZM168.195 298V283.16H169.615V290.6L169.415 292.72L169.555 294.84V298H168.195ZM173.515 296.84C174.262 296.84 174.928 296.673 175.515 296.34C176.102 295.993 176.568 295.513 176.915 294.9C177.262 294.273 177.435 293.553 177.435 292.74C177.435 291.913 177.262 291.193 176.915 290.58C176.568 289.967 176.102 289.493 175.515 289.16C174.928 288.813 174.262 288.64 173.515 288.64C172.768 288.64 172.095 288.813 171.495 289.16C170.908 289.493 170.442 289.967 170.095 290.58C169.762 291.193 169.595 291.913 169.595 292.74C169.595 293.553 169.762 294.273 170.095 294.9C170.442 295.513 170.908 295.993 171.495 296.34C172.095 296.673 172.768 296.84 173.515 296.84ZM186.03 298.1C185.016 298.1 184.103 297.873 183.29 297.42C182.49 296.953 181.856 296.32 181.39 295.52C180.923 294.707 180.69 293.78 180.69 292.74C180.69 291.687 180.923 290.76 181.39 289.96C181.856 289.16 182.49 288.533 183.29 288.08C184.09 287.627 185.003 287.4 186.03 287.4C187.07 287.4 187.99 287.627 188.79 288.08C189.603 288.533 190.236 289.16 190.69 289.96C191.156 290.76 191.39 291.687 191.39 292.74C191.39 293.78 191.156 294.707 190.69 295.52C190.236 296.32 189.603 296.953 188.79 297.42C187.976 297.873 187.056 298.1 186.03 298.1ZM186.03 296.84C186.79 296.84 187.463 296.673 188.05 296.34C188.636 295.993 189.096 295.513 189.43 294.9C189.776 294.273 189.95 293.553 189.95 292.74C189.95 291.913 189.776 291.193 189.43 290.58C189.096 289.967 188.636 289.493 188.05 289.16C187.463 288.813 186.796 288.64 186.05 288.64C185.303 288.64 184.636 288.813 184.05 289.16C183.463 289.493 182.996 289.967 182.65 290.58C182.303 291.193 182.13 291.913 182.13 292.74C182.13 293.553 182.303 294.273 182.65 294.9C182.996 295.513 183.463 295.993 184.05 296.34C184.636 296.673 185.296 296.84 186.03 296.84ZM198.569 298.1C197.555 298.1 196.642 297.873 195.829 297.42C195.029 296.953 194.395 296.32 193.929 295.52C193.462 294.707 193.229 293.78 193.229 292.74C193.229 291.687 193.462 290.76 193.929 289.96C194.395 289.16 195.029 288.533 195.829 288.08C196.629 287.627 197.542 287.4 198.569 287.4C199.609 287.4 200.529 287.627 201.329 288.08C202.142 288.533 202.775 289.16 203.229 289.96C203.695 290.76 203.929 291.687 203.929 292.74C203.929 293.78 203.695 294.707 203.229 295.52C202.775 296.32 202.142 296.953 201.329 297.42C200.515 297.873 199.595 298.1 198.569 298.1ZM198.569 296.84C199.329 296.84 200.002 296.673 200.589 296.34C201.175 295.993 201.635 295.513 201.969 294.9C202.315 294.273 202.489 293.553 202.489 292.74C202.489 291.913 202.315 291.193 201.969 290.58C201.635 289.967 201.175 289.493 200.589 289.16C200.002 288.813 199.335 288.64 198.589 288.64C197.842 288.64 197.175 288.813 196.589 289.16C196.002 289.493 195.535 289.967 195.189 290.58C194.842 291.193 194.669 291.913 194.669 292.74C194.669 293.553 194.842 294.273 195.189 294.9C195.535 295.513 196.002 295.993 196.589 296.34C197.175 296.673 197.835 296.84 198.569 296.84ZM207.948 295.28L207.988 293.46L214.528 287.5H216.268L211.648 291.92L210.848 292.6L207.948 295.28ZM206.828 298V283.16H208.248V298H206.828ZM214.968 298L210.588 292.54L211.508 291.44L216.708 298H214.968ZM221.347 298.1C220.48 298.1 219.66 297.98 218.887 297.74C218.114 297.487 217.507 297.173 217.067 296.8L217.707 295.68C218.134 296 218.68 296.28 219.347 296.52C220.014 296.747 220.714 296.86 221.447 296.86C222.447 296.86 223.167 296.707 223.607 296.4C224.047 296.08 224.267 295.66 224.267 295.14C224.267 294.753 224.14 294.453 223.887 294.24C223.647 294.013 223.327 293.847 222.927 293.74C222.527 293.62 222.08 293.52 221.587 293.44C221.094 293.36 220.6 293.267 220.107 293.16C219.627 293.053 219.187 292.9 218.787 292.7C218.387 292.487 218.06 292.2 217.807 291.84C217.567 291.48 217.447 291 217.447 290.4C217.447 289.827 217.607 289.313 217.927 288.86C218.247 288.407 218.714 288.053 219.327 287.8C219.954 287.533 220.714 287.4 221.607 287.4C222.287 287.4 222.967 287.493 223.647 287.68C224.327 287.853 224.887 288.087 225.327 288.38L224.707 289.52C224.24 289.2 223.74 288.973 223.207 288.84C222.674 288.693 222.14 288.62 221.607 288.62C220.66 288.62 219.96 288.787 219.507 289.12C219.067 289.44 218.847 289.853 218.847 290.36C218.847 290.76 218.967 291.073 219.207 291.3C219.46 291.527 219.787 291.707 220.187 291.84C220.6 291.96 221.047 292.06 221.527 292.14C222.02 292.22 222.507 292.32 222.987 292.44C223.48 292.547 223.927 292.7 224.327 292.9C224.74 293.087 225.067 293.36 225.307 293.72C225.56 294.067 225.687 294.527 225.687 295.1C225.687 295.713 225.514 296.247 225.167 296.7C224.834 297.14 224.34 297.487 223.687 297.74C223.047 297.98 222.267 298.1 221.347 298.1ZM228.433 298.1C228.139 298.1 227.886 297.993 227.673 297.78C227.473 297.567 227.373 297.307 227.373 297C227.373 296.68 227.473 296.42 227.673 296.22C227.886 296.02 228.139 295.92 228.433 295.92C228.726 295.92 228.973 296.02 229.173 296.22C229.386 296.42 229.493 296.68 229.493 297C229.493 297.307 229.386 297.567 229.173 297.78C228.973 297.993 228.726 298.1 228.433 298.1ZM232.531 298V287.5H233.891V290.36L233.751 289.86C234.044 289.06 234.537 288.453 235.231 288.04C235.924 287.613 236.784 287.4 237.811 287.4V288.78C237.757 288.78 237.704 288.78 237.651 288.78C237.597 288.767 237.544 288.76 237.491 288.76C236.384 288.76 235.517 289.1 234.891 289.78C234.264 290.447 233.951 291.4 233.951 292.64V298H232.531ZM244.898 298.1C244.005 298.1 243.225 297.933 242.558 297.6C241.891 297.267 241.371 296.767 240.998 296.1C240.638 295.433 240.458 294.6 240.458 293.6V287.5H241.878V293.44C241.878 294.56 242.151 295.407 242.698 295.98C243.258 296.54 244.038 296.82 245.038 296.82C245.771 296.82 246.405 296.673 246.938 296.38C247.485 296.073 247.898 295.633 248.178 295.06C248.471 294.487 248.618 293.8 248.618 293V287.5H250.038V298H248.678V295.12L248.898 295.64C248.565 296.413 248.045 297.02 247.338 297.46C246.645 297.887 245.831 298.1 244.898 298.1Z" fill="black"/>
<g clip-path="url(#clip0_2003_7)">
<path d="M200.287 192.564H162.479V209.009H200.287V192.564Z" fill="#BF8C23"/>
<path d="M142.979 137.942C139.452 141.504 136.374 147.325 134.222 151.848C133.766 152.816 133.338 153.812 133.205 154.871C132.889 157.381 134.327 161.589 138.485 162.325V177.809C132.714 175.958 127.469 173.02 122.954 168.987C118.431 164.955 115.262 159.029 115.773 152.991C116.068 149.506 117.533 146.238 119.076 143.103C121.965 137.255 125.26 131.532 129.678 126.728L137.882 133.699L142.979 137.935V137.942Z" fill="#F7C5B4"/>
<path d="M221.975 144.008H141.268C139.731 144.008 138.485 145.254 138.485 146.792V197.908C138.485 199.445 139.731 200.692 141.268 200.692H221.975C223.512 200.692 224.758 199.445 224.758 197.908V146.792C224.758 145.254 223.512 144.008 221.975 144.008Z" fill="#EFE2BA"/>
<path d="M159.983 226.8C173.81 213.287 196.466 197.929 212.635 187.333C217.627 184.065 222.655 180.776 228.166 178.497C233.208 176.414 238.039 173.209 243.466 173.777C250.281 174.492 254.748 182.199 253.893 188.995C253.037 195.79 248.227 201.477 242.793 205.65C235.963 210.903 227.97 214.395 219.906 217.424C204.691 223.147 180.065 230.117 164.036 232.824L159.976 226.793L159.983 226.8Z" fill="#E9B13D"/>
<path d="M163.84 232.53C156.435 235.559 146.541 236.394 138.667 234.984C137.132 234.711 135.561 234.325 134.334 233.364C133.107 232.404 132.335 230.707 132.861 229.248C133.52 227.425 135.736 226.772 137.664 226.541C145.181 225.622 153.069 225.945 160.474 227.53L163.84 232.53Z" fill="#D6535D"/>
<path d="M203.618 224.851C189.58 211.548 166.7 196.547 150.363 186.204C145.321 183.013 140.245 179.801 134.698 177.606C129.622 175.6 124.742 172.473 119.328 173.125C112.527 173.945 108.18 181.715 109.14 188.504C110.101 195.285 114.995 200.895 120.492 204.991C127.399 210.131 135.449 213.504 143.554 216.415C158.854 221.899 183.585 228.498 199.656 230.952L203.625 224.858L203.618 224.851Z" fill="#E9B13D"/>
<path d="M199.845 230.644C207.299 233.561 217.2 234.234 225.053 232.712C226.581 232.418 228.152 232.011 229.358 231.022C230.564 230.04 231.321 228.336 230.761 226.878C230.073 225.068 227.844 224.451 225.915 224.248C218.385 223.448 210.503 223.89 203.12 225.587L199.831 230.637L199.845 230.644Z" fill="#D6535D"/>
<path d="M213.603 144.008L216.393 136.63C217.2 137.255 218.833 138.257 219.443 139.078C224.66 133.79 232.002 128.643 237.211 123.355C208.512 82.4007 160.761 94.4837 149.206 101.805C140.154 107.541 132.076 114.947 126.004 123.355C131.221 128.643 138.562 133.79 143.772 139.078C144.382 138.264 146.016 137.255 146.822 136.63L149.613 144.008" fill="#D6535D"/>
<path d="M189.531 79.3221C189.91 82.3446 190.288 85.3741 190.667 88.3966C190.807 89.5046 190.968 91.3981 191.487 92.3869C192.322 93.9717 199.831 96.2298 201.192 96.9872C201.192 96.9872 195.175 102.036 181.208 102.59C167.24 103.144 162.479 96.6436 162.479 96.6436C163.833 95.8862 170.83 93.4247 171.665 91.8399C172.184 90.8511 172.345 88.9576 172.485 87.8496C172.864 84.8271 173.242 81.7976 173.621 78.7751" fill="#F7C5B4"/>
<path d="M197.202 48.3608C198.387 54.7634 196.704 67.6459 195.33 72.7371C194.769 74.8059 194.173 76.9448 192.841 78.6278C186.256 86.9239 177.485 84.3012 174.596 82.4007C172.331 80.914 170.529 78.8663 169.484 76.3697C166.82 69.9881 165.726 62.9613 166.329 56.0748C166.329 56.0748 165.565 38.1011 183.943 38.1011C183.943 38.1011 195.225 37.6663 197.202 48.3608Z" fill="#F7C5B4"/>
<path d="M167.198 67.1504C166.729 67.95 165.63 67.9302 164.984 67.3182C164.33 66.7063 164.045 65.7192 163.886 64.7519C163.727 63.8142 163.668 62.8568 163.701 61.8993C163.727 61.2183 163.819 60.4878 164.196 59.9647C164.574 59.4416 165.219 59.2244 165.773 59.4218C166.326 59.6192 166.762 60.2312 166.829 60.9123L167.198 67.1406V67.1504Z" fill="#F7C5B4"/>
<path d="M196.529 59.6399C196.742 58.9342 197.11 58.2498 197.75 58.0253C198.389 57.8114 199.135 58.0466 199.572 58.6134C200.008 59.1801 200.114 59.9607 200.143 60.7092C200.182 61.7464 200.114 62.7837 199.93 63.7995C199.746 64.8367 199.407 65.9167 198.661 66.5797C197.905 67.2427 196.645 67.264 196.102 66.3979C196.102 66.3979 195.55 62.9441 196.529 59.6506V59.6399Z" fill="#F7C5B4"/>
<path d="M171.721 45.3242C172.443 47.7156 172.303 50.3243 171.539 52.7017C170.774 55.079 169.414 57.2389 167.759 59.1113C167.303 59.6303 166.595 60.1703 165.992 59.8336C165.691 59.6653 165.536 59.3287 165.41 59.0132C163.896 55.1632 164.351 50.5908 166.602 47.1195C166.574 44.2162 167.402 41.0605 169.379 38.9426C171.363 36.8248 174.175 35.5064 177.071 35.3451C178.151 35.282 179.245 35.3731 180.289 35.1207C181.383 34.8542 182.344 34.2371 183.339 33.7111C184.903 32.8836 186.6 32.2665 188.367 32.0701C190.947 31.7826 193.626 32.4278 195.764 33.8934C197.903 35.3661 199.474 37.6523 200.028 40.1839C200.343 41.6215 200.343 43.1082 200.189 44.5739C200.035 46.0886 199.698 47.6104 198.913 48.9148C197.938 50.5277 196.297 51.6918 194.495 52.2248C192.434 52.8419 190.141 52.6526 188.206 51.7129C186.845 51.0537 185.632 50.0298 184.153 49.7072C183.311 49.5249 182.435 49.581 181.573 49.574C178.747 49.5389 175.935 48.7395 173.516 47.2808C172.759 46.825 171.98 46.2219 171.777 45.3593" fill="#3C3C3B"/>
<g style="mix-blend-mode:multiply">
<path d="M189.79 81.6293C189.79 81.6293 187.364 83.9646 182.225 84.3783C177.092 84.7921 173.789 81.8537 173.264 81.3558C173.264 81.3558 174.322 87.0151 181.727 87.0712C188.872 87.1203 189.79 81.6293 189.79 81.6293Z" fill="#F7C5B4"/>
</g>
<path d="M169.905 60.2894C169.905 60.2894 170.389 60.1141 171.174 59.9458C171.945 59.7775 173.004 59.6723 174.063 59.7004C175.122 59.7425 176.166 59.9248 176.931 60.1492C177.695 60.3666 178.172 60.584 178.172 60.584C178.263 60.6261 178.305 60.7313 178.263 60.8224C178.228 60.9066 178.137 60.9486 178.053 60.9276C178.053 60.9276 177.926 60.8925 177.709 60.8364C177.492 60.7733 177.183 60.7032 176.812 60.6261C176.061 60.4648 175.059 60.3175 174.042 60.2824C173.025 60.2333 172.008 60.3105 171.251 60.4087C170.873 60.4578 170.564 60.5068 170.34 60.5489C170.115 60.591 169.989 60.612 169.989 60.612C169.898 60.6261 169.814 60.57 169.793 60.4788C169.779 60.3946 169.828 60.3175 169.898 60.2894H169.905Z" fill="#3C3C3B"/>
<path d="M175.479 61.5658C175.479 62.3723 174.827 63.0315 174.014 63.0315C173.2 63.0315 172.548 62.3793 172.548 61.5658C172.548 60.7523 173.2 60.1002 174.014 60.1002C174.827 60.1002 175.479 60.7523 175.479 61.5658Z" fill="#3C3C3B"/>
<path d="M193.247 60.4438C193.247 60.4438 193.121 60.4227 192.897 60.3947C192.672 60.3596 192.364 60.3245 191.978 60.2895C191.214 60.2123 190.197 60.1773 189.187 60.2614C188.171 60.3316 187.175 60.5209 186.432 60.7032C186.06 60.7944 185.752 60.8785 185.541 60.9487C185.324 61.0118 185.205 61.0469 185.205 61.0469C185.106 61.0749 185.008 61.0188 184.98 60.9206C184.952 60.8365 184.994 60.7453 185.078 60.7032C185.078 60.7032 185.548 60.4718 186.305 60.2264C187.056 59.9739 188.1 59.7565 189.152 59.6794C190.211 59.6092 191.27 59.6794 192.048 59.8196C192.833 59.9529 193.324 60.1142 193.324 60.1142H193.331C193.415 60.1422 193.465 60.2404 193.436 60.3245C193.408 60.4017 193.331 60.4508 193.254 60.4367L193.247 60.4438Z" fill="#3C3C3B"/>
<path d="M184.927 62.7844C184.927 62.7844 185.053 62.8052 185.277 62.8327C185.502 62.8672 185.81 62.9016 186.196 62.9358C186.961 63.0111 187.977 63.0438 188.987 62.9573C190.003 62.8848 190.999 62.6932 191.741 62.5091C192.113 62.4171 192.421 62.3322 192.631 62.2616C192.849 62.198 192.968 62.1626 192.968 62.1626C193.066 62.1343 193.164 62.1902 193.192 62.2883C193.221 62.3724 193.179 62.4637 193.095 62.5059C193.095 62.5059 192.625 62.7385 191.869 62.9857C191.119 63.2399 190.075 63.4597 189.023 63.5393C187.965 63.6119 186.906 63.5442 186.127 63.4058C185.341 63.2744 184.85 63.1142 184.85 63.1142L184.843 63.1142C184.759 63.0864 184.71 62.9883 184.738 62.9041C184.765 62.8269 184.842 62.7776 184.92 62.7915L184.927 62.7844Z" fill="#3C3C3B"/>
<path d="M169.6 62.0558C169.6 62.0558 169.722 62.0928 169.941 62.1498C170.159 62.2135 170.46 62.2886 170.837 62.3742C171.584 62.5511 172.587 62.7227 173.598 62.7811C174.615 62.8536 175.625 62.8108 176.385 62.7403C176.765 62.705 177.082 62.6677 177.299 62.6303C177.523 62.6004 177.646 62.5836 177.646 62.5836C177.746 62.5706 177.836 62.6368 177.852 62.7332C177.868 62.8164 177.815 62.8966 177.726 62.9247C177.726 62.9247 177.231 63.0788 176.449 63.207C175.673 63.3427 174.609 63.4052 173.557 63.3345C172.499 63.2563 171.46 63.0458 170.707 62.8075C169.946 62.5749 169.481 62.3559 169.481 62.3559L169.474 62.355C169.394 62.3171 169.358 62.2178 169.397 62.1423C169.435 62.0734 169.517 62.0377 169.592 62.0614L169.6 62.0558Z" fill="#3C3C3B"/>
<path d="M187.75 61.5377C187.75 62.3442 188.402 63.0034 189.215 63.0034C190.029 63.0034 190.681 62.3512 190.681 61.5377C190.681 60.7243 190.029 60.0721 189.215 60.0721C188.402 60.0721 187.75 60.7243 187.75 61.5377Z" fill="#3C3C3B"/>
<path d="M179.111 58.5854C179.378 57.6667 179.28 56.6428 178.796 55.8153C178.649 56.1099 178.221 56.215 177.954 56.0257C177.842 55.9486 177.758 55.8223 177.625 55.7803C177.52 55.7452 177.408 55.7662 177.295 55.7803C176.812 55.8293 176.335 55.654 175.858 55.5348C173.782 55.0159 171.454 55.6821 169.975 57.2319C170.487 57.6246 171.209 57.4563 171.847 57.4002C174.343 57.1758 176.314 58.8799 178.817 58.7256C178.817 58.7256 179.069 58.7116 179.104 58.5854H179.111Z" fill="#3C3C3B"/>
<path d="M184.679 58.4732C184.433 57.5475 184.56 56.5237 185.064 55.7102C185.205 56.0047 185.625 56.1239 185.899 55.9416C186.011 55.8645 186.102 55.7452 186.228 55.7032C186.334 55.6681 186.446 55.7032 186.558 55.7102C187.042 55.7733 187.526 55.605 188.002 55.4998C190.092 55.0299 192.399 55.7522 193.843 57.3301C193.324 57.7088 192.609 57.5265 191.964 57.4563C189.475 57.1758 187.462 58.8238 184.959 58.6205C184.959 58.6205 184.707 58.5994 184.672 58.4732H184.679Z" fill="#3C3C3B"/>
<path d="M185.74 70.9636C185.74 70.9636 185.709 71.0467 185.646 71.2031C185.579 71.3649 185.477 71.5802 185.313 71.8172C184.996 72.3001 184.418 72.8607 183.694 73.1776C183.341 73.3349 182.948 73.4319 182.594 73.4798C182.23 73.5287 181.889 73.5054 181.601 73.4714C181.313 73.4374 181.08 73.3576 180.925 73.3044C180.764 73.2468 180.675 73.2114 180.675 73.2114C180.597 73.1749 180.562 73.0839 180.594 73.0106C180.626 72.9374 180.703 72.9092 180.775 72.9314C180.775 72.9314 181.116 73.0445 181.643 73.0729C181.905 73.0948 182.211 73.0719 182.536 73.0272C182.864 72.9771 183.189 72.8875 183.512 72.7431C184.152 72.4752 184.684 71.9943 185.02 71.5893C185.182 71.3874 185.307 71.1995 185.387 71.0662C185.468 70.9329 185.509 70.8488 185.509 70.8488C185.542 70.7854 185.623 70.7518 185.686 70.7849C185.75 70.818 185.777 70.8849 185.759 70.9516L185.755 70.9571L185.74 70.9636Z" fill="#DA806C"/>
<path d="M195.645 50.2472C195.239 53.0733 195.765 56.0257 197.111 58.5433C197.265 58.8378 197.482 59.1604 197.812 59.2095C198.092 59.2516 198.373 59.0622 198.52 58.8238C198.674 58.5854 198.724 58.2908 198.773 58.0103C199.291 55.1211 199.789 52.0214 198.611 49.3285C198.527 49.1322 198.422 48.9288 198.261 48.7885C198.071 48.6272 197.812 48.5711 197.56 48.5641C196.529 48.5431 195.582 49.5038 195.617 50.5347" fill="#3C3C3B"/>
<path d="M180.857 61.6079C180.857 61.6079 180.78 62.1549 180.668 62.9684C180.57 63.7819 180.451 64.8758 180.423 65.9698C180.402 66.5168 180.388 67.0638 180.395 67.5758C180.395 67.8422 180.395 68.0316 180.472 68.1789C180.521 68.2981 180.654 68.4313 180.794 68.5085C181.075 68.6698 181.404 68.7048 181.629 68.7188C181.867 68.7329 182 68.7399 182 68.7399C182.126 68.7399 182.218 68.8521 182.211 68.9713C182.211 69.0765 182.126 69.1677 182.021 69.1817C182.021 69.1817 181.888 69.2027 181.629 69.2238C181.383 69.2238 180.977 69.2729 180.514 69.0484C180.289 68.9362 180.051 68.7679 179.883 68.4594C179.728 68.1789 179.721 67.8493 179.714 67.5968C179.693 67.0708 179.686 66.5028 179.714 65.9418C179.771 64.8127 179.925 63.6977 180.107 62.8772C180.282 62.0497 180.465 61.5237 180.465 61.5237C180.5 61.4115 180.619 61.3554 180.724 61.3905C180.822 61.4256 180.871 61.5167 180.864 61.6149L180.857 61.6079Z" fill="#DA806C"/>
<path d="M221.968 136.665C225.495 140.221 228.292 145.754 230.438 150.284C230.894 151.252 231.321 152.248 231.455 153.307C231.77 155.817 229.281 159.127 224.751 161.168V178.356C230.522 176.505 237.19 171.456 241.706 167.423C246.229 163.391 249.398 157.465 248.886 151.427C248.592 147.942 247.126 144.674 245.584 141.539C242.695 135.691 239.729 129.996 235.311 125.193L226.778 132.135L221.968 136.665Z" fill="#F7C5B4"/>
</g>
<path d="M70.381 274V259.28L71.991 260.89H67.161V257.9H74.107V274H70.381ZM79.0198 274.184C78.4065 274.184 77.8775 273.977 77.4328 273.563C77.0035 273.134 76.7888 272.589 76.7888 271.93C76.7888 271.271 77.0035 270.742 77.4328 270.343C77.8775 269.929 78.4065 269.722 79.0198 269.722C79.6485 269.722 80.1775 269.929 80.6068 270.343C81.0362 270.742 81.2508 271.271 81.2508 271.93C81.2508 272.589 81.0362 273.134 80.6068 273.563C80.1775 273.977 79.6485 274.184 79.0198 274.184Z" fill="black"/>
<defs>
<clipPath id="clip0_2003_7">
<rect width="144.998" height="203.651" fill="white" transform="translate(109 32)"/>
</clipPath>
</defs>
</svg>
