<svg width="355" height="376" viewBox="0 0 355 376" fill="none" xmlns="http://www.w3.org/2000/svg">
<g clip-path="url(#clip0_2003_52)">
<rect width="355" height="376" fill="white"/>
<path d="M74.36 256V242H80.18C81.66 242 82.82 242.307 83.66 242.92C84.5133 243.52 84.94 244.407 84.94 245.58C84.94 246.74 84.5333 247.62 83.72 248.22C82.9067 248.807 81.84 249.1 80.52 249.1L80.86 248.6C82.42 248.6 83.6067 248.907 84.42 249.52C85.2333 250.133 85.64 251.033 85.64 252.22C85.64 253.42 85.2133 254.353 84.36 255.02C83.52 255.673 82.2533 256 80.56 256H74.36ZM75.82 254.82H80.56C81.7467 254.82 82.6467 254.6 83.26 254.16C83.8733 253.72 84.18 253.04 84.18 252.12C84.18 251.213 83.8733 250.547 83.26 250.12C82.6467 249.693 81.7467 249.48 80.56 249.48H75.82V254.82ZM75.82 248.34H80.1C81.18 248.34 82.0067 248.127 82.58 247.7C83.1667 247.26 83.46 246.613 83.46 245.76C83.46 244.907 83.1667 244.267 82.58 243.84C82.0067 243.4 81.18 243.18 80.1 243.18H75.82V248.34ZM93.4005 256.1C92.3605 256.1 91.4271 255.873 90.6005 255.42C89.7871 254.953 89.1471 254.32 88.6805 253.52C88.2138 252.707 87.9805 251.78 87.9805 250.74C87.9805 249.687 88.2138 248.76 88.6805 247.96C89.1471 247.16 89.7871 246.533 90.6005 246.08C91.4271 245.627 92.3605 245.4 93.4005 245.4C94.2938 245.4 95.1005 245.573 95.8205 245.92C96.5405 246.267 97.1071 246.787 97.5205 247.48L96.4605 248.2C96.1005 247.667 95.6538 247.273 95.1205 247.02C94.5871 246.767 94.0071 246.64 93.3805 246.64C92.6338 246.64 91.9605 246.813 91.3605 247.16C90.7605 247.493 90.2871 247.967 89.9405 248.58C89.5938 249.193 89.4205 249.913 89.4205 250.74C89.4205 251.567 89.5938 252.287 89.9405 252.9C90.2871 253.513 90.7605 253.993 91.3605 254.34C91.9605 254.673 92.6338 254.84 93.3805 254.84C94.0071 254.84 94.5871 254.713 95.1205 254.46C95.6538 254.207 96.1005 253.82 96.4605 253.3L97.5205 254.02C97.1071 254.7 96.5405 255.22 95.8205 255.58C95.1005 255.927 94.2938 256.1 93.4005 256.1ZM104.594 256.1C103.501 256.1 102.541 255.873 101.714 255.42C100.888 254.953 100.241 254.32 99.7742 253.52C99.3076 252.707 99.0742 251.78 99.0742 250.74C99.0742 249.7 99.2942 248.78 99.7342 247.98C100.188 247.18 100.801 246.553 101.574 246.1C102.361 245.633 103.241 245.4 104.214 245.4C105.201 245.4 106.074 245.627 106.834 246.08C107.608 246.52 108.214 247.147 108.654 247.96C109.094 248.76 109.314 249.687 109.314 250.74C109.314 250.807 109.308 250.88 109.294 250.96C109.294 251.027 109.294 251.1 109.294 251.18H100.154V250.12H108.534L107.974 250.54C107.974 249.78 107.808 249.107 107.474 248.52C107.154 247.92 106.714 247.453 106.154 247.12C105.594 246.787 104.948 246.62 104.214 246.62C103.494 246.62 102.848 246.787 102.274 247.12C101.701 247.453 101.254 247.92 100.934 248.52C100.614 249.12 100.454 249.807 100.454 250.58V250.8C100.454 251.6 100.628 252.307 100.974 252.92C101.334 253.52 101.828 253.993 102.454 254.34C103.094 254.673 103.821 254.84 104.634 254.84C105.274 254.84 105.868 254.727 106.414 254.5C106.974 254.273 107.454 253.927 107.854 253.46L108.654 254.38C108.188 254.94 107.601 255.367 106.894 255.66C106.201 255.953 105.434 256.1 104.594 256.1ZM124.892 255.32V246.74H119.832L119.712 249.08C119.685 249.787 119.639 250.48 119.572 251.16C119.519 251.84 119.419 252.467 119.272 253.04C119.139 253.6 118.945 254.06 118.692 254.42C118.439 254.767 118.112 254.967 117.712 255.02L116.292 254.76C116.705 254.773 117.045 254.627 117.312 254.32C117.579 254 117.785 253.567 117.932 253.02C118.079 252.473 118.185 251.853 118.252 251.16C118.319 250.453 118.372 249.733 118.412 249L118.552 245.5H126.312V255.32H124.892ZM115.852 258.54V254.76H127.952V258.54H126.612V256H117.192V258.54H115.852ZM135.219 256.1C134.126 256.1 133.166 255.873 132.339 255.42C131.513 254.953 130.866 254.32 130.399 253.52C129.933 252.707 129.699 251.78 129.699 250.74C129.699 249.7 129.919 248.78 130.359 247.98C130.813 247.18 131.426 246.553 132.199 246.1C132.986 245.633 133.866 245.4 134.839 245.4C135.826 245.4 136.699 245.627 137.459 246.08C138.233 246.52 138.839 247.147 139.279 247.96C139.719 248.76 139.939 249.687 139.939 250.74C139.939 250.807 139.933 250.88 139.919 250.96C139.919 251.027 139.919 251.1 139.919 251.18H130.779V250.12H139.159L138.599 250.54C138.599 249.78 138.433 249.107 138.099 248.52C137.779 247.92 137.339 247.453 136.779 247.12C136.219 246.787 135.573 246.62 134.839 246.62C134.119 246.62 133.473 246.787 132.899 247.12C132.326 247.453 131.879 247.92 131.559 248.52C131.239 249.12 131.079 249.807 131.079 250.58V250.8C131.079 251.6 131.253 252.307 131.599 252.92C131.959 253.52 132.453 253.993 133.079 254.34C133.719 254.673 134.446 254.84 135.259 254.84C135.899 254.84 136.493 254.727 137.039 254.5C137.599 254.273 138.079 253.927 138.479 253.46L139.279 254.38C138.813 254.94 138.226 255.367 137.519 255.66C136.826 255.953 136.059 256.1 135.219 256.1ZM143.083 256V245.5H144.503V250.14H151.123V245.5H152.543V256H151.123V251.36H144.503V256H143.083ZM161.099 249.2C162.419 249.213 163.419 249.507 164.099 250.08C164.792 250.653 165.139 251.48 165.139 252.56C165.139 253.68 164.765 254.54 164.019 255.14C163.285 255.74 162.219 256.033 160.819 256.02L156.579 256V245.5H157.999V249.16L161.099 249.2ZM160.739 254.94C161.712 254.953 162.445 254.76 162.939 254.36C163.445 253.947 163.699 253.347 163.699 252.56C163.699 251.773 163.452 251.2 162.959 250.84C162.465 250.467 161.725 250.273 160.739 250.26L157.999 250.22V254.9L160.739 254.94ZM167.848 256V245.5H175.288V246.74H168.908L169.268 246.38V256H167.848ZM177.34 256V245.5H178.76V253.84L185.78 245.5H187.04V256H185.62V247.64L178.62 256H177.34ZM196.344 256V245.5H197.764V253.84L204.784 245.5H206.044V256H204.624V247.64L197.624 256H196.344ZM212.719 256.12C211.959 256.12 211.206 256.013 210.459 255.8C209.712 255.587 209.052 255.26 208.479 254.82L208.939 253.76C209.446 254.133 210.032 254.42 210.699 254.62C211.366 254.807 212.026 254.9 212.679 254.9C213.332 254.887 213.899 254.793 214.379 254.62C214.859 254.447 215.232 254.207 215.499 253.9C215.766 253.593 215.899 253.247 215.899 252.86C215.899 252.3 215.646 251.867 215.139 251.56C214.632 251.24 213.939 251.08 213.059 251.08H211.259V250.04H212.959C213.479 250.04 213.939 249.973 214.339 249.84C214.739 249.707 215.046 249.513 215.259 249.26C215.486 249.007 215.599 248.707 215.599 248.36C215.599 247.987 215.466 247.667 215.199 247.4C214.946 247.133 214.592 246.933 214.139 246.8C213.686 246.667 213.172 246.6 212.599 246.6C212.079 246.613 211.539 246.693 210.979 246.84C210.419 246.973 209.866 247.18 209.319 247.46L208.919 246.36C209.532 246.04 210.139 245.8 210.739 245.64C211.352 245.467 211.966 245.38 212.579 245.38C213.419 245.353 214.172 245.453 214.839 245.68C215.519 245.907 216.059 246.233 216.459 246.66C216.859 247.073 217.059 247.573 217.059 248.16C217.059 248.68 216.899 249.133 216.579 249.52C216.259 249.907 215.832 250.207 215.299 250.42C214.766 250.633 214.159 250.74 213.479 250.74L213.539 250.36C214.739 250.36 215.672 250.593 216.339 251.06C217.019 251.527 217.359 252.16 217.359 252.96C217.359 253.587 217.152 254.14 216.739 254.62C216.326 255.087 215.766 255.453 215.059 255.72C214.366 255.987 213.586 256.12 212.719 256.12ZM231.717 256.12C231.717 256.12 231.69 256.12 231.637 256.12C231.584 256.12 231.53 256.12 231.477 256.12C231.437 256.12 231.404 256.12 231.377 256.12C229.297 256.107 227.677 255.633 226.517 254.7C225.357 253.767 224.777 252.44 224.777 250.72C224.777 249.027 225.357 247.72 226.517 246.8C227.69 245.867 229.337 245.393 231.457 245.38C231.47 245.38 231.497 245.38 231.537 245.38C231.59 245.38 231.637 245.38 231.677 245.38C231.717 245.38 231.744 245.38 231.757 245.38C233.89 245.393 235.55 245.867 236.737 246.8C237.924 247.72 238.517 249.027 238.517 250.72C238.517 252.453 237.917 253.787 236.717 254.72C235.53 255.653 233.864 256.12 231.717 256.12ZM231.697 254.88C232.884 254.88 233.877 254.72 234.677 254.4C235.477 254.067 236.084 253.593 236.497 252.98C236.91 252.367 237.117 251.613 237.117 250.72C237.117 249.853 236.91 249.12 236.497 248.52C236.084 247.907 235.477 247.44 234.677 247.12C233.877 246.8 232.884 246.64 231.697 246.64C231.684 246.64 231.644 246.64 231.577 246.64C231.524 246.64 231.49 246.64 231.477 246.64C230.317 246.64 229.344 246.807 228.557 247.14C227.77 247.46 227.177 247.92 226.777 248.52C226.377 249.12 226.177 249.853 226.177 250.72C226.177 251.6 226.377 252.347 226.777 252.96C227.19 253.573 227.79 254.047 228.577 254.38C229.364 254.7 230.33 254.867 231.477 254.88C231.504 254.88 231.544 254.88 231.597 254.88C231.65 254.88 231.684 254.88 231.697 254.88ZM230.937 259.88V241.16H232.317V259.88H230.937ZM245.84 256.1C244.827 256.1 243.913 255.873 243.1 255.42C242.3 254.953 241.667 254.32 241.2 253.52C240.733 252.707 240.5 251.78 240.5 250.74C240.5 249.687 240.733 248.76 241.2 247.96C241.667 247.16 242.3 246.533 243.1 246.08C243.9 245.627 244.813 245.4 245.84 245.4C246.88 245.4 247.8 245.627 248.6 246.08C249.413 246.533 250.047 247.16 250.5 247.96C250.967 248.76 251.2 249.687 251.2 250.74C251.2 251.78 250.967 252.707 250.5 253.52C250.047 254.32 249.413 254.953 248.6 255.42C247.787 255.873 246.867 256.1 245.84 256.1ZM245.84 254.84C246.6 254.84 247.273 254.673 247.86 254.34C248.447 253.993 248.907 253.513 249.24 252.9C249.587 252.273 249.76 251.553 249.76 250.74C249.76 249.913 249.587 249.193 249.24 248.58C248.907 247.967 248.447 247.493 247.86 247.16C247.273 246.813 246.607 246.64 245.86 246.64C245.113 246.64 244.447 246.813 243.86 247.16C243.273 247.493 242.807 247.967 242.46 248.58C242.113 249.193 241.94 249.913 241.94 250.74C241.94 251.553 242.113 252.273 242.46 252.9C242.807 253.513 243.273 253.993 243.86 254.34C244.447 254.673 245.107 254.84 245.84 254.84ZM254.235 256V245.5H255.655V250.14H262.275V245.5H263.695V256H262.275V251.36H255.655V256H254.235ZM274.931 255.32V246.74H269.871L269.751 249.08C269.724 249.787 269.678 250.48 269.611 251.16C269.558 251.84 269.458 252.467 269.311 253.04C269.178 253.6 268.984 254.06 268.731 254.42C268.478 254.767 268.151 254.967 267.751 255.02L266.331 254.76C266.744 254.773 267.084 254.627 267.351 254.32C267.618 254 267.824 253.567 267.971 253.02C268.118 252.473 268.224 251.853 268.291 251.16C268.358 250.453 268.411 249.733 268.451 249L268.591 245.5H276.351V255.32H274.931ZM265.891 258.54V254.76H277.991V258.54H276.651V256H267.231V258.54H265.891ZM287.278 256V253.68L287.218 253.3V249.42C287.218 248.527 286.965 247.84 286.458 247.36C285.965 246.88 285.225 246.64 284.238 246.64C283.558 246.64 282.912 246.753 282.298 246.98C281.685 247.207 281.165 247.507 280.738 247.88L280.098 246.82C280.632 246.367 281.272 246.02 282.018 245.78C282.765 245.527 283.552 245.4 284.378 245.4C285.738 245.4 286.785 245.74 287.518 246.42C288.265 247.087 288.638 248.107 288.638 249.48V256H287.278ZM283.658 256.1C282.872 256.1 282.185 255.973 281.598 255.72C281.025 255.453 280.585 255.093 280.278 254.64C279.972 254.173 279.818 253.64 279.818 253.04C279.818 252.493 279.945 252 280.198 251.56C280.465 251.107 280.892 250.747 281.478 250.48C282.078 250.2 282.878 250.06 283.878 250.06H287.498V251.12H283.918C282.905 251.12 282.198 251.3 281.798 251.66C281.412 252.02 281.218 252.467 281.218 253C281.218 253.6 281.452 254.08 281.918 254.44C282.385 254.8 283.038 254.98 283.878 254.98C284.678 254.98 285.365 254.8 285.938 254.44C286.525 254.067 286.952 253.533 287.218 252.84L287.538 253.82C287.272 254.513 286.805 255.067 286.138 255.48C285.485 255.893 284.658 256.1 283.658 256.1ZM74.02 280V269.5H78.66C79.8467 269.5 80.78 269.727 81.46 270.18C82.1533 270.633 82.5 271.3 82.5 272.18C82.5 273.033 82.1733 273.693 81.52 274.16C80.8667 274.613 80.0067 274.84 78.94 274.84L79.22 274.42C80.4733 274.42 81.3933 274.653 81.98 275.12C82.5667 275.587 82.86 276.26 82.86 277.14C82.86 278.047 82.5267 278.753 81.86 279.26C81.2067 279.753 80.1867 280 78.8 280H74.02ZM75.4 278.88H78.74C79.6333 278.88 80.3067 278.74 80.76 278.46C81.2267 278.167 81.46 277.7 81.46 277.06C81.46 276.42 81.2533 275.953 80.84 275.66C80.4267 275.367 79.7733 275.22 78.88 275.22H75.4V278.88ZM75.4 274.16H78.56C79.3733 274.16 79.9933 274.007 80.42 273.7C80.86 273.393 81.08 272.947 81.08 272.36C81.08 271.773 80.86 271.333 80.42 271.04C79.9933 270.747 79.3733 270.6 78.56 270.6H75.4V274.16ZM96.428 280V269.5H97.848V280H96.428ZM90.608 273.2C91.928 273.213 92.9346 273.507 93.628 274.08C94.3213 274.653 94.668 275.48 94.668 276.56C94.668 277.68 94.2946 278.54 93.548 279.14C92.8013 279.74 91.7346 280.033 90.348 280.02L86.188 280V269.5H87.608V273.16L90.608 273.2ZM90.248 278.94C91.2346 278.953 91.9746 278.76 92.468 278.36C92.9746 277.947 93.228 277.347 93.228 276.56C93.228 275.773 92.9813 275.2 92.488 274.84C91.9946 274.467 91.248 274.273 90.248 274.26L87.608 274.22V278.9L90.248 278.94ZM101.891 280V269.5H111.331V280H109.911V270.36L110.271 270.74H102.951L103.311 270.36V280H101.891ZM113.448 279.98L113.548 278.76C113.641 278.773 113.728 278.793 113.808 278.82C113.901 278.833 113.981 278.84 114.048 278.84C114.474 278.84 114.814 278.68 115.068 278.36C115.334 278.04 115.534 277.613 115.668 277.08C115.801 276.547 115.894 275.947 115.948 275.28C116.001 274.6 116.048 273.92 116.088 273.24L116.268 269.5H123.968V280H122.548V270.32L122.908 270.74H117.188L117.528 270.3L117.368 273.34C117.328 274.247 117.254 275.113 117.148 275.94C117.054 276.767 116.901 277.493 116.688 278.12C116.488 278.747 116.208 279.24 115.848 279.6C115.488 279.947 115.028 280.12 114.468 280.12C114.308 280.12 114.141 280.107 113.968 280.08C113.808 280.053 113.634 280.02 113.448 279.98ZM134.524 280V277.68L134.464 277.3V273.42C134.464 272.527 134.211 271.84 133.704 271.36C133.211 270.88 132.471 270.64 131.484 270.64C130.804 270.64 130.158 270.753 129.544 270.98C128.931 271.207 128.411 271.507 127.984 271.88L127.344 270.82C127.878 270.367 128.518 270.02 129.264 269.78C130.011 269.527 130.798 269.4 131.624 269.4C132.984 269.4 134.031 269.74 134.764 270.42C135.511 271.087 135.884 272.107 135.884 273.48V280H134.524ZM130.904 280.1C130.118 280.1 129.431 279.973 128.844 279.72C128.271 279.453 127.831 279.093 127.524 278.64C127.218 278.173 127.064 277.64 127.064 277.04C127.064 276.493 127.191 276 127.444 275.56C127.711 275.107 128.138 274.747 128.724 274.48C129.324 274.2 130.124 274.06 131.124 274.06H134.744V275.12H131.164C130.151 275.12 129.444 275.3 129.044 275.66C128.658 276.02 128.464 276.467 128.464 277C128.464 277.6 128.698 278.08 129.164 278.44C129.631 278.8 130.284 278.98 131.124 278.98C131.924 278.98 132.611 278.8 133.184 278.44C133.771 278.067 134.198 277.533 134.464 276.84L134.784 277.82C134.518 278.513 134.051 279.067 133.384 279.48C132.731 279.893 131.904 280.1 130.904 280.1ZM146.305 275.56C145.691 275.827 145.071 276.04 144.445 276.2C143.831 276.347 143.218 276.42 142.605 276.42C141.365 276.42 140.385 276.14 139.665 275.58C138.945 275.007 138.585 274.127 138.585 272.94V269.5H139.985V272.86C139.985 273.66 140.245 274.26 140.765 274.66C141.285 275.06 141.985 275.26 142.865 275.26C143.398 275.26 143.958 275.193 144.545 275.06C145.131 274.913 145.725 274.707 146.325 274.44L146.305 275.56ZM146.185 280V269.5H147.605V280H146.185ZM151.637 280V269.5H153.057V277.84L160.077 269.5H161.337V280H159.917V271.64L152.917 280H151.637ZM165.407 280V269.5H170.047C171.233 269.5 172.167 269.727 172.847 270.18C173.54 270.633 173.887 271.3 173.887 272.18C173.887 273.033 173.56 273.693 172.907 274.16C172.253 274.613 171.393 274.84 170.327 274.84L170.607 274.42C171.86 274.42 172.78 274.653 173.367 275.12C173.953 275.587 174.247 276.26 174.247 277.14C174.247 278.047 173.913 278.753 173.247 279.26C172.593 279.753 171.573 280 170.187 280H165.407ZM166.787 278.88H170.127C171.02 278.88 171.693 278.74 172.147 278.46C172.613 278.167 172.847 277.7 172.847 277.06C172.847 276.42 172.64 275.953 172.227 275.66C171.813 275.367 171.16 275.22 170.267 275.22H166.787V278.88ZM166.787 274.16H169.947C170.76 274.16 171.38 274.007 171.807 273.7C172.247 273.393 172.467 272.947 172.467 272.36C172.467 271.773 172.247 271.333 171.807 271.04C171.38 270.747 170.76 270.6 169.947 270.6H166.787V274.16ZM184.095 280V277.68L184.035 277.3V273.42C184.035 272.527 183.781 271.84 183.275 271.36C182.781 270.88 182.041 270.64 181.055 270.64C180.375 270.64 179.728 270.753 179.115 270.98C178.501 271.207 177.981 271.507 177.555 271.88L176.915 270.82C177.448 270.367 178.088 270.02 178.835 269.78C179.581 269.527 180.368 269.4 181.195 269.4C182.555 269.4 183.601 269.74 184.335 270.42C185.081 271.087 185.455 272.107 185.455 273.48V280H184.095ZM180.475 280.1C179.688 280.1 179.001 279.973 178.415 279.72C177.841 279.453 177.401 279.093 177.095 278.64C176.788 278.173 176.635 277.64 176.635 277.04C176.635 276.493 176.761 276 177.015 275.56C177.281 275.107 177.708 274.747 178.295 274.48C178.895 274.2 179.695 274.06 180.695 274.06H184.315V275.12H180.735C179.721 275.12 179.015 275.3 178.615 275.66C178.228 276.02 178.035 276.467 178.035 277C178.035 277.6 178.268 278.08 178.735 278.44C179.201 278.8 179.855 278.98 180.695 278.98C181.495 278.98 182.181 278.8 182.755 278.44C183.341 278.067 183.768 277.533 184.035 276.84L184.355 277.82C184.088 278.513 183.621 279.067 182.955 279.48C182.301 279.893 181.475 280.1 180.475 280.1ZM193.735 280.1C192.642 280.1 191.682 279.873 190.855 279.42C190.028 278.953 189.382 278.32 188.915 277.52C188.448 276.707 188.215 275.78 188.215 274.74C188.215 273.7 188.435 272.78 188.875 271.98C189.328 271.18 189.942 270.553 190.715 270.1C191.502 269.633 192.382 269.4 193.355 269.4C194.342 269.4 195.215 269.627 195.975 270.08C196.748 270.52 197.355 271.147 197.795 271.96C198.235 272.76 198.455 273.687 198.455 274.74C198.455 274.807 198.448 274.88 198.435 274.96C198.435 275.027 198.435 275.1 198.435 275.18H189.295V274.12H197.675L197.115 274.54C197.115 273.78 196.948 273.107 196.615 272.52C196.295 271.92 195.855 271.453 195.295 271.12C194.735 270.787 194.088 270.62 193.355 270.62C192.635 270.62 191.988 270.787 191.415 271.12C190.842 271.453 190.395 271.92 190.075 272.52C189.755 273.12 189.595 273.807 189.595 274.58V274.8C189.595 275.6 189.768 276.307 190.115 276.92C190.475 277.52 190.968 277.993 191.595 278.34C192.235 278.673 192.962 278.84 193.775 278.84C194.415 278.84 195.008 278.727 195.555 278.5C196.115 278.273 196.595 277.927 196.995 277.46L197.795 278.38C197.328 278.94 196.742 279.367 196.035 279.66C195.342 279.953 194.575 280.1 193.735 280.1ZM201.598 280V269.5H203.038L207.798 277.56H207.198L212.038 269.5H213.358V280H212.058V271.12L212.318 271.24L207.798 278.72H207.158L202.598 271.16L202.898 271.1V280H201.598ZM74.02 304V293.5H75.44V298.14H82.06V293.5H83.48V304H82.06V299.36H75.44V304H74.02ZM92.0161 304.1C90.9228 304.1 89.9628 303.873 89.1361 303.42C88.3094 302.953 87.6628 302.32 87.1961 301.52C86.7294 300.707 86.4961 299.78 86.4961 298.74C86.4961 297.7 86.7161 296.78 87.1561 295.98C87.6094 295.18 88.2228 294.553 88.9961 294.1C89.7828 293.633 90.6628 293.4 91.6361 293.4C92.6228 293.4 93.4961 293.627 94.2561 294.08C95.0294 294.52 95.6361 295.147 96.0761 295.96C96.5161 296.76 96.7361 297.687 96.7361 298.74C96.7361 298.807 96.7294 298.88 96.7161 298.96C96.7161 299.027 96.7161 299.1 96.7161 299.18H87.5761V298.12H95.9561L95.3961 298.54C95.3961 297.78 95.2294 297.107 94.8961 296.52C94.5761 295.92 94.1361 295.453 93.5761 295.12C93.0161 294.787 92.3694 294.62 91.6361 294.62C90.9161 294.62 90.2694 294.787 89.6961 295.12C89.1228 295.453 88.6761 295.92 88.3561 296.52C88.0361 297.12 87.8761 297.807 87.8761 298.58V298.8C87.8761 299.6 88.0494 300.307 88.3961 300.92C88.7561 301.52 89.2494 301.993 89.8761 302.34C90.5161 302.673 91.2428 302.84 92.0561 302.84C92.6961 302.84 93.2894 302.727 93.8361 302.5C94.3961 302.273 94.8761 301.927 95.2761 301.46L96.0761 302.38C95.6094 302.94 95.0228 303.367 94.3161 303.66C93.6228 303.953 92.8561 304.1 92.0161 304.1ZM102.406 304.12C101.646 304.12 100.893 304.013 100.146 303.8C99.3997 303.587 98.7397 303.26 98.1664 302.82L98.6264 301.76C99.1331 302.133 99.7197 302.42 100.386 302.62C101.053 302.807 101.713 302.9 102.366 302.9C103.02 302.887 103.586 302.793 104.066 302.62C104.546 302.447 104.92 302.207 105.186 301.9C105.453 301.593 105.586 301.247 105.586 300.86C105.586 300.3 105.333 299.867 104.826 299.56C104.32 299.24 103.626 299.08 102.746 299.08H100.946V298.04H102.646C103.166 298.04 103.626 297.973 104.026 297.84C104.426 297.707 104.733 297.513 104.946 297.26C105.173 297.007 105.286 296.707 105.286 296.36C105.286 295.987 105.153 295.667 104.886 295.4C104.633 295.133 104.28 294.933 103.826 294.8C103.373 294.667 102.86 294.6 102.286 294.6C101.766 294.613 101.226 294.693 100.666 294.84C100.106 294.973 99.5531 295.18 99.0064 295.46L98.6064 294.36C99.2197 294.04 99.8264 293.8 100.426 293.64C101.04 293.467 101.653 293.38 102.266 293.38C103.106 293.353 103.86 293.453 104.526 293.68C105.206 293.907 105.746 294.233 106.146 294.66C106.546 295.073 106.746 295.573 106.746 296.16C106.746 296.68 106.586 297.133 106.266 297.52C105.946 297.907 105.52 298.207 104.986 298.42C104.453 298.633 103.846 298.74 103.166 298.74L103.226 298.36C104.426 298.36 105.36 298.593 106.026 299.06C106.706 299.527 107.046 300.16 107.046 300.96C107.046 301.587 106.84 302.14 106.426 302.62C106.013 303.087 105.453 303.453 104.746 303.72C104.053 303.987 103.273 304.12 102.406 304.12ZM116.79 304V301.68L116.73 301.3V297.42C116.73 296.527 116.477 295.84 115.97 295.36C115.477 294.88 114.737 294.64 113.75 294.64C113.07 294.64 112.423 294.753 111.81 294.98C111.197 295.207 110.677 295.507 110.25 295.88L109.61 294.82C110.143 294.367 110.783 294.02 111.53 293.78C112.277 293.527 113.063 293.4 113.89 293.4C115.25 293.4 116.297 293.74 117.03 294.42C117.777 295.087 118.15 296.107 118.15 297.48V304H116.79ZM113.17 304.1C112.383 304.1 111.697 303.973 111.11 303.72C110.537 303.453 110.097 303.093 109.79 302.64C109.483 302.173 109.33 301.64 109.33 301.04C109.33 300.493 109.457 300 109.71 299.56C109.977 299.107 110.403 298.747 110.99 298.48C111.59 298.2 112.39 298.06 113.39 298.06H117.01V299.12H113.43C112.417 299.12 111.71 299.3 111.31 299.66C110.923 300.02 110.73 300.467 110.73 301C110.73 301.6 110.963 302.08 111.43 302.44C111.897 302.8 112.55 302.98 113.39 302.98C114.19 302.98 114.877 302.8 115.45 302.44C116.037 302.067 116.463 301.533 116.73 300.84L117.05 301.82C116.783 302.513 116.317 303.067 115.65 303.48C114.997 303.893 114.17 304.1 113.17 304.1ZM121.93 304V293.5H126.57C127.757 293.5 128.69 293.727 129.37 294.18C130.063 294.633 130.41 295.3 130.41 296.18C130.41 297.033 130.083 297.693 129.43 298.16C128.777 298.613 127.917 298.84 126.85 298.84L127.13 298.42C128.383 298.42 129.303 298.653 129.89 299.12C130.477 299.587 130.77 300.26 130.77 301.14C130.77 302.047 130.437 302.753 129.77 303.26C129.117 303.753 128.097 304 126.71 304H121.93ZM123.31 302.88H126.65C127.543 302.88 128.217 302.74 128.67 302.46C129.137 302.167 129.37 301.7 129.37 301.06C129.37 300.42 129.163 299.953 128.75 299.66C128.337 299.367 127.683 299.22 126.79 299.22H123.31V302.88ZM123.31 298.16H126.47C127.283 298.16 127.903 298.007 128.33 297.7C128.77 297.393 128.99 296.947 128.99 296.36C128.99 295.773 128.77 295.333 128.33 295.04C127.903 294.747 127.283 294.6 126.47 294.6H123.31V298.16ZM134.098 304V293.5H135.518V301.84L142.538 293.5H143.798V304H142.378V295.64L135.378 304H134.098ZM152.268 304.1C151.228 304.1 150.294 303.873 149.468 303.42C148.654 302.953 148.014 302.32 147.548 301.52C147.081 300.707 146.848 299.78 146.848 298.74C146.848 297.687 147.081 296.76 147.548 295.96C148.014 295.16 148.654 294.533 149.468 294.08C150.294 293.627 151.228 293.4 152.268 293.4C153.161 293.4 153.968 293.573 154.688 293.92C155.408 294.267 155.974 294.787 156.388 295.48L155.328 296.2C154.968 295.667 154.521 295.273 153.988 295.02C153.454 294.767 152.874 294.64 152.248 294.64C151.501 294.64 150.828 294.813 150.228 295.16C149.628 295.493 149.154 295.967 148.808 296.58C148.461 297.193 148.288 297.913 148.288 298.74C148.288 299.567 148.461 300.287 148.808 300.9C149.154 301.513 149.628 301.993 150.228 302.34C150.828 302.673 151.501 302.84 152.248 302.84C152.874 302.84 153.454 302.713 153.988 302.46C154.521 302.207 154.968 301.82 155.328 301.3L156.388 302.02C155.974 302.7 155.408 303.22 154.688 303.58C153.968 303.927 153.161 304.1 152.268 304.1ZM159.137 304V293.5H160.557V301.84L167.577 293.5H168.837V304H167.417V295.64L160.417 304H159.137ZM172.907 304V293.5H174.347L179.107 301.56H178.507L183.347 293.5H184.667V304H183.367V295.12L183.627 295.24L179.107 302.72H178.467L173.907 295.16L174.207 295.1V304H172.907ZM198.948 304V293.5H200.368V304H198.948ZM193.128 297.2C194.448 297.213 195.454 297.507 196.148 298.08C196.841 298.653 197.188 299.48 197.188 300.56C197.188 301.68 196.814 302.54 196.068 303.14C195.321 303.74 194.254 304.033 192.868 304.02L188.708 304V293.5H190.128V297.16L193.128 297.2ZM192.768 302.94C193.754 302.953 194.494 302.76 194.988 302.36C195.494 301.947 195.748 301.347 195.748 300.56C195.748 299.773 195.501 299.2 195.008 298.84C194.514 298.467 193.768 298.273 192.768 298.26L190.128 298.22V302.9L192.768 302.94ZM204.411 304V293.5H205.851L210.611 301.56H210.011L214.851 293.5H216.171V304H214.871V295.12L215.131 295.24L210.611 302.72H209.971L205.411 295.16L205.711 295.1V304H204.411ZM233.146 304L228.826 298.8L230.006 298.1L234.826 304H233.146ZM225.446 304V293.5H226.866V304H225.446ZM226.426 299.32V298.1H229.806V299.32H226.426ZM230.126 298.9L228.806 298.7L232.986 293.5H234.526L230.126 298.9ZM237.067 304V293.5H238.487V298.14H245.107V293.5H246.527V304H245.107V299.36H238.487V304H237.067ZM250.563 304V293.5H251.983V301.84L259.003 293.5H260.263V304H258.843V295.64L251.843 304H250.563ZM276.793 304L273.193 298.8L274.373 298.1L278.493 304H276.793ZM270.833 299.32V298.1H274.153V299.32H270.833ZM274.513 298.9L273.153 298.7L276.653 293.5H278.193L274.513 298.9ZM264.353 304H262.653L266.773 298.1L267.933 298.8L264.353 304ZM271.273 304H269.853V293.5H271.273V304ZM270.293 299.32H266.993V298.1H270.293V299.32ZM266.653 298.9L262.953 293.5H264.493L267.973 298.7L266.653 298.9ZM280.856 304V293.5H282.276V298.14H288.896V293.5H290.316V304H288.896V299.36H282.276V304H280.856ZM304.592 304V293.5H306.012V304H304.592ZM298.772 297.2C300.092 297.213 301.099 297.507 301.792 298.08C302.485 298.653 302.832 299.48 302.832 300.56C302.832 301.68 302.459 302.54 301.712 303.14C300.965 303.74 299.899 304.033 298.512 304.02L294.352 304V293.5H295.772V297.16L298.772 297.2ZM298.412 302.94C299.399 302.953 300.139 302.76 300.632 302.36C301.139 301.947 301.392 301.347 301.392 300.56C301.392 299.773 301.145 299.2 300.652 298.84C300.159 298.467 299.412 298.273 298.412 298.26L295.772 298.22V302.9L298.412 302.94ZM310.055 304V293.5H311.495L316.255 301.56H315.655L320.495 293.5H321.815V304H320.515V295.12L320.775 295.24L316.255 302.72H315.615L311.055 295.16L311.355 295.1V304H310.055ZM74.02 328V317.5H75.46L80.22 325.56H79.62L84.46 317.5H85.78V328H84.48V319.12L84.74 319.24L80.22 326.72H79.58L75.02 319.16L75.32 319.1V328H74.02ZM96.3408 328V325.68L96.2808 325.3V321.42C96.2808 320.527 96.0274 319.84 95.5208 319.36C95.0274 318.88 94.2874 318.64 93.3008 318.64C92.6208 318.64 91.9741 318.753 91.3608 318.98C90.7474 319.207 90.2274 319.507 89.8008 319.88L89.1608 318.82C89.6941 318.367 90.3341 318.02 91.0808 317.78C91.8274 317.527 92.6141 317.4 93.4408 317.4C94.8008 317.4 95.8474 317.74 96.5808 318.42C97.3274 319.087 97.7008 320.107 97.7008 321.48V328H96.3408ZM92.7208 328.1C91.9341 328.1 91.2474 327.973 90.6608 327.72C90.0874 327.453 89.6474 327.093 89.3408 326.64C89.0341 326.173 88.8808 325.64 88.8808 325.04C88.8808 324.493 89.0074 324 89.2608 323.56C89.5274 323.107 89.9541 322.747 90.5408 322.48C91.1408 322.2 91.9408 322.06 92.9408 322.06H96.5608V323.12H92.9808C91.9674 323.12 91.2608 323.3 90.8608 323.66C90.4741 324.02 90.2808 324.467 90.2808 325C90.2808 325.6 90.5141 326.08 90.9808 326.44C91.4474 326.8 92.1008 326.98 92.9408 326.98C93.7408 326.98 94.4274 326.8 95.0008 326.44C95.5874 326.067 96.0141 325.533 96.2808 324.84L96.6008 325.82C96.3341 326.513 95.8674 327.067 95.2008 327.48C94.5474 327.893 93.7208 328.1 92.7208 328.1ZM101.481 328V317.5H108.921V318.74H102.541L102.901 318.38V328H101.481ZM117.493 328V325.68L117.433 325.3V321.42C117.433 320.527 117.18 319.84 116.673 319.36C116.18 318.88 115.44 318.64 114.453 318.64C113.773 318.64 113.126 318.753 112.513 318.98C111.9 319.207 111.38 319.507 110.953 319.88L110.313 318.82C110.846 318.367 111.486 318.02 112.233 317.78C112.98 317.527 113.766 317.4 114.593 317.4C115.953 317.4 117 317.74 117.733 318.42C118.48 319.087 118.853 320.107 118.853 321.48V328H117.493ZM113.873 328.1C113.086 328.1 112.4 327.973 111.813 327.72C111.24 327.453 110.8 327.093 110.493 326.64C110.186 326.173 110.033 325.64 110.033 325.04C110.033 324.493 110.16 324 110.413 323.56C110.68 323.107 111.106 322.747 111.693 322.48C112.293 322.2 113.093 322.06 114.093 322.06H117.713V323.12H114.133C113.12 323.12 112.413 323.3 112.013 323.66C111.626 324.02 111.433 324.467 111.433 325C111.433 325.6 111.666 326.08 112.133 326.44C112.6 326.8 113.253 326.98 114.093 326.98C114.893 326.98 115.58 326.8 116.153 326.44C116.74 326.067 117.166 325.533 117.433 324.84L117.753 325.82C117.486 326.513 117.02 327.067 116.353 327.48C115.7 327.893 114.873 328.1 113.873 328.1ZM125.238 328.12C124.478 328.12 123.725 328.013 122.978 327.8C122.232 327.587 121.572 327.26 120.998 326.82L121.458 325.76C121.965 326.133 122.552 326.42 123.218 326.62C123.885 326.807 124.545 326.9 125.198 326.9C125.852 326.887 126.418 326.793 126.898 326.62C127.378 326.447 127.752 326.207 128.018 325.9C128.285 325.593 128.418 325.247 128.418 324.86C128.418 324.3 128.165 323.867 127.658 323.56C127.152 323.24 126.458 323.08 125.578 323.08H123.778V322.04H125.478C125.998 322.04 126.458 321.973 126.858 321.84C127.258 321.707 127.565 321.513 127.778 321.26C128.005 321.007 128.118 320.707 128.118 320.36C128.118 319.987 127.985 319.667 127.718 319.4C127.465 319.133 127.112 318.933 126.658 318.8C126.205 318.667 125.692 318.6 125.118 318.6C124.598 318.613 124.058 318.693 123.498 318.84C122.938 318.973 122.385 319.18 121.838 319.46L121.438 318.36C122.052 318.04 122.658 317.8 123.258 317.64C123.872 317.467 124.485 317.38 125.098 317.38C125.938 317.353 126.692 317.453 127.358 317.68C128.038 317.907 128.578 318.233 128.978 318.66C129.378 319.073 129.578 319.573 129.578 320.16C129.578 320.68 129.418 321.133 129.098 321.52C128.778 321.907 128.352 322.207 127.818 322.42C127.285 322.633 126.678 322.74 125.998 322.74L126.058 322.36C127.258 322.36 128.192 322.593 128.858 323.06C129.538 323.527 129.878 324.16 129.878 324.96C129.878 325.587 129.672 326.14 129.258 326.62C128.845 327.087 128.285 327.453 127.578 327.72C126.885 327.987 126.105 328.12 125.238 328.12ZM133.102 328V317.5H134.522V325.84L141.542 317.5H142.802V328H141.382V319.64L134.382 328H133.102ZM146.872 328V317.5H148.292V322.14H154.912V317.5H156.332V328H154.912V323.36H148.292V328H146.872ZM166.888 328V325.68L166.828 325.3V321.42C166.828 320.527 166.574 319.84 166.068 319.36C165.574 318.88 164.834 318.64 163.848 318.64C163.168 318.64 162.521 318.753 161.908 318.98C161.294 319.207 160.774 319.507 160.348 319.88L159.708 318.82C160.241 318.367 160.881 318.02 161.628 317.78C162.374 317.527 163.161 317.4 163.988 317.4C165.348 317.4 166.394 317.74 167.128 318.42C167.874 319.087 168.248 320.107 168.248 321.48V328H166.888ZM163.268 328.1C162.481 328.1 161.794 327.973 161.208 327.72C160.634 327.453 160.194 327.093 159.888 326.64C159.581 326.173 159.428 325.64 159.428 325.04C159.428 324.493 159.554 324 159.808 323.56C160.074 323.107 160.501 322.747 161.088 322.48C161.688 322.2 162.488 322.06 163.488 322.06H167.108V323.12H163.528C162.514 323.12 161.808 323.3 161.408 323.66C161.021 324.02 160.828 324.467 160.828 325C160.828 325.6 161.061 326.08 161.528 326.44C161.994 326.8 162.648 326.98 163.488 326.98C164.288 326.98 164.974 326.8 165.548 326.44C166.134 326.067 166.561 325.533 166.828 324.84L167.148 325.82C166.881 326.513 166.414 327.067 165.748 327.48C165.094 327.893 164.268 328.1 163.268 328.1ZM172.028 328V317.5H173.468L178.228 325.56H177.628L182.468 317.5H183.788V328H182.488V319.12L182.748 319.24L178.228 326.72H177.588L173.028 319.16L173.328 319.1V328H172.028ZM193.063 328V317.5H202.503V328H201.083V318.36L201.443 318.74H194.123L194.483 318.36V328H193.063ZM210.86 328.1C209.846 328.1 208.933 327.873 208.12 327.42C207.32 326.953 206.686 326.32 206.22 325.52C205.753 324.707 205.52 323.78 205.52 322.74C205.52 321.687 205.753 320.76 206.22 319.96C206.686 319.16 207.32 318.533 208.12 318.08C208.92 317.627 209.833 317.4 210.86 317.4C211.9 317.4 212.82 317.627 213.62 318.08C214.433 318.533 215.066 319.16 215.52 319.96C215.986 320.76 216.22 321.687 216.22 322.74C216.22 323.78 215.986 324.707 215.52 325.52C215.066 326.32 214.433 326.953 213.62 327.42C212.806 327.873 211.886 328.1 210.86 328.1ZM210.86 326.84C211.62 326.84 212.293 326.673 212.88 326.34C213.466 325.993 213.926 325.513 214.26 324.9C214.606 324.273 214.78 323.553 214.78 322.74C214.78 321.913 214.606 321.193 214.26 320.58C213.926 319.967 213.466 319.493 212.88 319.16C212.293 318.813 211.626 318.64 210.88 318.64C210.133 318.64 209.466 318.813 208.88 319.16C208.293 319.493 207.826 319.967 207.48 320.58C207.133 321.193 206.96 321.913 206.96 322.74C206.96 323.553 207.133 324.273 207.48 324.9C207.826 325.513 208.293 325.993 208.88 326.34C209.466 326.673 210.126 326.84 210.86 326.84ZM224.674 328.1C223.768 328.1 222.948 327.893 222.214 327.48C221.481 327.053 220.894 326.447 220.454 325.66C220.028 324.86 219.814 323.887 219.814 322.74C219.814 321.593 220.028 320.627 220.454 319.84C220.881 319.04 221.461 318.433 222.194 318.02C222.928 317.607 223.754 317.4 224.674 317.4C225.674 317.4 226.568 317.627 227.354 318.08C228.154 318.52 228.781 319.147 229.234 319.96C229.688 320.76 229.914 321.687 229.914 322.74C229.914 323.807 229.688 324.74 229.234 325.54C228.781 326.34 228.154 326.967 227.354 327.42C226.568 327.873 225.674 328.1 224.674 328.1ZM219.254 331.88V317.5H220.614V320.66L220.474 322.76L220.674 324.88V331.88H219.254ZM224.574 326.84C225.321 326.84 225.988 326.673 226.574 326.34C227.161 325.993 227.628 325.513 227.974 324.9C228.321 324.273 228.494 323.553 228.494 322.74C228.494 321.927 228.321 321.213 227.974 320.6C227.628 319.987 227.161 319.507 226.574 319.16C225.988 318.813 225.321 318.64 224.574 318.64C223.828 318.64 223.154 318.813 222.554 319.16C221.968 319.507 221.501 319.987 221.154 320.6C220.821 321.213 220.654 321.927 220.654 322.74C220.654 323.553 220.821 324.273 221.154 324.9C221.501 325.513 221.968 325.993 222.554 326.34C223.154 326.673 223.828 326.84 224.574 326.84ZM237.285 328.1C236.272 328.1 235.359 327.873 234.545 327.42C233.745 326.953 233.112 326.32 232.645 325.52C232.179 324.707 231.945 323.78 231.945 322.74C231.945 321.687 232.179 320.76 232.645 319.96C233.112 319.16 233.745 318.533 234.545 318.08C235.345 317.627 236.259 317.4 237.285 317.4C238.325 317.4 239.245 317.627 240.045 318.08C240.859 318.533 241.492 319.16 241.945 319.96C242.412 320.76 242.645 321.687 242.645 322.74C242.645 323.78 242.412 324.707 241.945 325.52C241.492 326.32 240.859 326.953 240.045 327.42C239.232 327.873 238.312 328.1 237.285 328.1ZM237.285 326.84C238.045 326.84 238.719 326.673 239.305 326.34C239.892 325.993 240.352 325.513 240.685 324.9C241.032 324.273 241.205 323.553 241.205 322.74C241.205 321.913 241.032 321.193 240.685 320.58C240.352 319.967 239.892 319.493 239.305 319.16C238.719 318.813 238.052 318.64 237.305 318.64C236.559 318.64 235.892 318.813 235.305 319.16C234.719 319.493 234.252 319.967 233.905 320.58C233.559 321.193 233.385 321.913 233.385 322.74C233.385 323.553 233.559 324.273 233.905 324.9C234.252 325.513 234.719 325.993 235.305 326.34C235.892 326.673 236.552 326.84 237.285 326.84ZM245.68 328V317.5H250.32C251.507 317.5 252.44 317.727 253.12 318.18C253.813 318.633 254.16 319.3 254.16 320.18C254.16 321.033 253.833 321.693 253.18 322.16C252.527 322.613 251.667 322.84 250.6 322.84L250.88 322.42C252.133 322.42 253.053 322.653 253.64 323.12C254.227 323.587 254.52 324.26 254.52 325.14C254.52 326.047 254.187 326.753 253.52 327.26C252.867 327.753 251.847 328 250.46 328H245.68ZM247.06 326.88H250.4C251.293 326.88 251.967 326.74 252.42 326.46C252.887 326.167 253.12 325.7 253.12 325.06C253.12 324.42 252.913 323.953 252.5 323.66C252.087 323.367 251.433 323.22 250.54 323.22H247.06V326.88ZM247.06 322.16H250.22C251.033 322.16 251.653 322.007 252.08 321.7C252.52 321.393 252.74 320.947 252.74 320.36C252.74 319.773 252.52 319.333 252.08 319.04C251.653 318.747 251.033 318.6 250.22 318.6H247.06V322.16ZM257.848 328V317.5H259.268V322.14H265.888V317.5H267.308V328H265.888V323.36H259.268V328H257.848ZM271.524 331.98C271.031 331.98 270.558 331.9 270.104 331.74C269.664 331.58 269.284 331.34 268.964 331.02L269.624 329.96C269.891 330.213 270.178 330.407 270.484 330.54C270.804 330.687 271.158 330.76 271.544 330.76C272.011 330.76 272.411 330.627 272.744 330.36C273.091 330.107 273.418 329.653 273.724 329L274.404 327.46L274.564 327.24L278.884 317.5H280.284L275.024 329.26C274.731 329.94 274.404 330.48 274.044 330.88C273.698 331.28 273.318 331.56 272.904 331.72C272.491 331.893 272.031 331.98 271.524 331.98ZM274.324 328.3L269.484 317.5H270.964L275.244 327.14L274.324 328.3ZM281.913 328.1C281.62 328.1 281.366 327.993 281.153 327.78C280.953 327.567 280.853 327.307 280.853 327C280.853 326.68 280.953 326.42 281.153 326.22C281.366 326.02 281.62 325.92 281.913 325.92C282.206 325.92 282.453 326.02 282.653 326.22C282.866 326.42 282.973 326.68 282.973 327C282.973 327.307 282.866 327.567 282.653 327.78C282.453 327.993 282.206 328.1 281.913 328.1Z" fill="black"/>
<path d="M248.962 125.659H106.622V213.318H248.962V125.659Z" fill="#ECE9E0"/>
<path d="M118.446 126.428L125.638 82.8117H144.416L141.961 126.428C141.961 126.428 141.258 138.176 130.202 138.176C119.147 138.176 118.446 126.428 118.446 126.428Z" fill="#ECE9E1"/>
<path d="M165.364 126.382V82.8141H188.987V126.431C188.987 126.431 188.581 138.157 177.174 138.157C165.767 138.157 165.364 126.385 165.364 126.385V126.382Z" fill="#ECE9E1"/>
<path d="M212.507 126.428L211.803 82.8117H231.282L236.022 126.428C236.022 126.428 235.494 136.424 225.667 138.003C215.84 139.582 212.746 130.655 212.507 126.428Z" fill="#ECE9E1"/>
<path d="M259.535 126.428L250.408 82.8117H231.279L236.019 126.428C236.019 126.428 236.019 138.176 247.776 138.176C259.532 138.176 259.535 126.428 259.535 126.428Z" fill="#D6535D"/>
<path d="M239.116 143.335H211.031V213.374H239.116V143.335Z" fill="#353131"/>
<path d="M239.116 211.666H210.983C211.569 212.154 212.253 212.749 212.741 213.332V143.257C212.253 143.843 211.566 144.311 210.983 145.044H239.179C238.593 144.311 237.895 143.843 237.406 143.257V213.374C237.406 215.57 240.825 215.57 240.825 213.374V143.257C240.825 142.31 240.129 141.383 239.179 141.383H210.983C210.035 141.383 209.322 142.308 209.322 143.257V213.332C209.322 214.279 210.03 215.082 210.983 215.082H239.116C241.558 215.082 241.558 211.666 239.116 211.666Z" fill="#3C3C3B"/>
<path d="M144.416 82.8141H165.366V126.382C165.366 126.382 164.194 137.957 153.664 138.13C143.133 138.306 141.934 126.428 141.934 126.428L144.416 82.8117V82.8141Z" fill="#D6535D"/>
<path d="M188.989 82.8141V126.431C188.989 126.431 189.519 138.33 200.748 138.157C211.977 137.981 212.504 126.443 212.504 126.443L211.801 82.8141H188.987H188.989Z" fill="#D6535D"/>
<path d="M125.684 82.7409C124.642 89.0029 123.601 95.2624 122.559 101.524C121.24 109.456 119.86 117.38 118.597 125.32C118.114 128.368 117.535 131.141 115.608 133.696C113.457 136.551 110.184 138.018 106.641 138.125C95.7588 138.457 95.749 126.006 95.749 126.006L107.432 82.7116L125.682 82.7409H125.684Z" fill="#D6535D"/>
<path d="M199.554 146.02H113.591V187.262H199.554V146.02Z" fill="#A0D4F5"/>
<path d="M199.536 187.994H113.711C113.274 187.994 112.858 187.728 112.858 187.291V146.022C112.858 145.585 113.274 145.285 113.711 145.285H199.536C199.974 145.285 200.286 145.585 200.286 146.022V187.291C200.286 187.728 199.974 187.994 199.536 187.994ZM114.568 186.53H198.821V146.752H114.568V186.53Z" fill="#3C3C3B"/>
<path d="M235.697 149.339H214.939V166.764H235.697V149.339Z" fill="#9ED1E3"/>
<path d="M237.348 181.161H231.36C231.057 181.161 230.812 181.406 230.812 181.708V182.323C230.812 182.625 231.057 182.869 231.36 182.869H237.348C237.65 182.869 237.895 182.625 237.895 182.323V181.708C237.895 181.406 237.65 181.161 237.348 181.161Z" fill="#F0F1F1"/>
<path d="M256.943 75.6754H98.2058V82.9965H256.943V75.6754Z" fill="#EFB11D"/>
<path d="M252.507 46.4218H102.819V75.2181H252.507V46.4218Z" fill="#ECE9E0"/>
<path d="M256.943 39.8636H98.2058V46.9407H256.943V39.8636Z" fill="#EFB11D"/>
<g opacity="0.18">
<path d="M106.27 138.12C112.763 138.12 118.026 132.866 118.026 126.377C118.026 132.866 123.291 138.13 129.782 138.13C136.273 138.13 141.539 132.871 141.539 126.382C141.539 132.871 146.804 138.132 153.297 138.132C159.791 138.132 165.054 132.873 165.054 126.384C165.054 132.873 170.319 138.135 176.81 138.135C183.301 138.135 188.567 132.876 188.567 126.387C188.567 132.876 193.832 138.135 200.325 138.135C206.819 138.135 212.082 132.873 212.082 126.387C212.082 132.876 217.347 138.135 223.838 138.135C230.329 138.135 235.594 132.873 235.594 126.387C235.594 132.876 240.86 138.135 247.351 138.135C253.842 138.135 259.109 132.864 259.109 126.375L258.931 126.014H95.3583C95.3583 126.014 94.6037 138.125 106.272 138.125L106.27 138.12Z" fill="#353131"/>
</g>
<path d="M259.874 213.374H95.7637V222.891H259.874V213.374Z" fill="#EFB11D"/>
<path d="M199.065 180.673H114.568V186.286H199.065V180.673Z" fill="#F0F1F1"/>
<path d="M199.553 180.185H114.568V181.893H199.553V180.185Z" fill="#3C3C3B"/>
<path d="M199.553 161.882H114.568V163.346H199.553V161.882Z" fill="#3C3C3B"/>
<g opacity="0.79">
<path d="M120.185 165.543H116.522V179.453H120.185V165.543Z" fill="#D6535D"/>
<path d="M123.604 165.543H120.185V179.453H123.604V165.543Z" fill="#D6535D"/>
<path d="M127.267 165.543H123.604V179.453H127.267V165.543Z" fill="#D6535D"/>
<path d="M130.686 165.543H127.267V179.453H130.686V165.543Z" fill="#D6535D"/>
<path d="M134.349 165.543H130.686V179.453H134.349V165.543Z" fill="#D6535D"/>
<path d="M138.483 165.438L135.052 166.388L138.762 179.765L142.193 178.814L138.483 165.438Z" fill="#D6535D"/>
<path d="M142.958 178.601L139.248 165.225C139.131 164.803 138.696 164.559 138.274 164.674L135.094 165.526C135.04 165.14 134.723 164.811 134.325 164.811H116.527C116.089 164.811 115.792 165.223 115.792 165.66V179.541C115.792 179.977 116.089 180.429 116.527 180.429H134.325C134.762 180.429 135.084 179.977 135.084 179.541V169.562L137.988 179.973C138.086 180.324 138.41 180.553 138.757 180.553C138.828 180.553 138.901 180.544 138.972 180.524L142.403 179.575C142.606 179.519 142.777 179.384 142.882 179.201C142.984 179.018 143.014 178.804 142.958 178.601ZM117.254 166.519H119.208V178.721H117.254V166.519ZM120.918 166.519H122.871V178.721H120.918V166.519ZM124.336 166.519H126.29V178.721H124.336V166.519ZM128 166.519H129.953V178.721H128V166.519ZM133.617 178.721H131.663V166.519H133.617V178.721ZM139.314 178.789L136.027 166.936L137.932 166.409L141.219 178.262L139.314 178.789Z" fill="#3C3C3B"/>
</g>
<g opacity="0.79">
<path d="M120.918 149.68H117.743V161.638H120.918V149.68Z" fill="#D6535D"/>
<path d="M124.092 149.68H120.917V161.638H124.092V149.68Z" fill="#D6535D"/>
<path d="M127.267 149.68H124.092V161.638H127.267V149.68Z" fill="#D6535D"/>
<path d="M130.198 149.68H127.267V161.638H130.198V149.68Z" fill="#D6535D"/>
<path d="M133.372 149.68H130.198V161.638H133.372V149.68Z" fill="#D6535D"/>
<path d="M137.015 149.389L134.017 150.219L137.259 161.907L140.257 161.077L137.015 149.389Z" fill="#D6535D"/>
<path d="M140.923 160.891L137.683 149.204C137.58 148.836 137.199 148.621 136.833 148.724L134.054 149.522C134.007 149.185 133.731 148.951 133.382 148.951H117.831C117.45 148.951 117.257 149.204 117.257 149.585V161.714C117.257 162.094 117.447 162.373 117.831 162.373H133.382C133.763 162.373 134.11 162.094 134.11 161.714V152.997L136.615 162.092C136.701 162.397 136.97 162.6 137.272 162.6C137.333 162.6 137.392 162.592 137.453 162.575L140.447 161.745C140.623 161.697 140.772 161.579 140.862 161.418C140.953 161.26 140.975 161.069 140.926 160.894L140.923 160.891ZM118.475 150.168H120.185V160.906H118.475V150.168ZM121.65 150.168H123.36V160.906H121.65V150.168ZM124.825 150.168H126.534V160.906H124.825V150.168ZM127.755 150.168H129.465V160.906H127.755V150.168ZM132.64 160.906H130.93V150.168H132.64V160.906ZM137.741 161.055L134.869 150.698L136.535 150.237L139.407 160.594L137.741 161.055Z" fill="#3C3C3B"/>
</g>
<g opacity="0.79">
<path d="M144.85 149.68H141.676V161.638H144.85V149.68Z" fill="#D6535D"/>
<path d="M147.781 149.68H144.85V161.638H147.781V149.68Z" fill="#D6535D"/>
<path d="M150.956 149.68H147.781V161.638H150.956V149.68Z" fill="#D6535D"/>
<path d="M154.13 149.68H150.956V161.638H154.13V149.68Z" fill="#D6535D"/>
<path d="M152.865 148.948H141.639C141.258 148.948 140.943 149.202 140.943 149.583V161.711C140.943 162.092 141.255 162.37 141.639 162.37H152.865C153.82 162.37 154.621 161.628 154.621 160.674V150.62C154.621 149.666 153.82 148.948 152.865 148.948ZM144.118 160.906H142.408V150.168H144.118V160.906ZM147.048 160.906H145.339V150.168H147.048V160.906ZM150.223 160.906H148.513V150.168H150.223V160.906ZM153.398 160.906H151.688V150.168H153.398V160.906Z" fill="#3C3C3B"/>
</g>
<g opacity="0.79">
<path d="M194.67 179.453H180.088C179.128 179.453 178.41 178.704 178.41 177.744C178.41 176.785 179.128 176.036 180.088 176.036H194.67V175.06H180.088C178.693 175.06 177.56 176.229 177.56 177.622C177.56 179.016 178.696 180.185 180.088 180.185H194.67V179.453Z" fill="#3C3C3B"/>
<path d="M180.925 177.012H194.916V176.036H180.1C179.025 176.036 178.361 176.785 178.361 177.745C178.361 178.704 179.042 179.453 180.1 179.453H194.916V178.477H180.925C180.547 178.477 180.242 178.123 180.242 177.745C180.242 177.366 180.547 177.012 180.925 177.012Z" fill="#618247"/>
<path d="M180.915 177.012C180.537 177.012 180.232 177.366 180.232 177.744C180.232 178.123 180.537 178.477 180.915 178.477H194.916V177.012H180.915Z" fill="#F0F1F1"/>
<path d="M194.777 176.036H193.939V175.06H194.777C194.994 175.06 195.172 175.331 195.172 175.548C195.172 175.765 194.997 176.036 194.777 176.036Z" fill="#3C3C3B"/>
<path d="M194.777 180.185H193.939V179.453H194.777C194.994 179.453 195.172 179.602 195.172 179.819C195.172 180.036 194.997 180.185 194.777 180.185Z" fill="#3C3C3B"/>
</g>
<g opacity="0.79">
<path d="M194.67 174.328H180.088C179.128 174.328 178.41 173.579 178.41 172.62C178.41 171.661 179.128 170.912 180.088 170.912H194.67V170.179H180.088C178.693 170.179 177.56 171.226 177.56 172.62C177.56 174.013 178.696 175.06 180.088 175.06H194.67V174.328Z" fill="#3C3C3B"/>
<path d="M180.925 171.888H194.916V170.911H180.1C179.025 170.911 178.361 171.661 178.361 172.62C178.361 173.579 179.042 174.328 180.1 174.328H194.916V173.352H180.925C180.547 173.352 180.242 172.998 180.242 172.62C180.242 172.242 180.547 171.888 180.925 171.888Z" fill="#618247"/>
<path d="M180.915 171.888C180.537 171.888 180.232 172.242 180.232 172.62C180.232 172.998 180.537 173.352 180.915 173.352H194.916V171.888H180.915Z" fill="#F0F1F1"/>
<path d="M194.777 170.912H193.939V170.179H194.777C194.994 170.179 195.172 170.328 195.172 170.545C195.172 170.763 194.997 170.912 194.777 170.912Z" fill="#3C3C3B"/>
<path d="M194.777 175.06H193.939V174.328H194.777C194.994 174.328 195.172 174.477 195.172 174.694C195.172 174.911 194.997 175.06 194.777 175.06Z" fill="#3C3C3B"/>
</g>
<path d="M124.41 169.879C131.226 164.979 138.042 160.079 144.858 155.178C145.766 154.524 144.892 153.004 143.971 153.665C137.155 158.566 130.339 163.466 123.523 168.366C122.615 169.02 123.489 170.541 124.41 169.879Z" fill="#F0F1F1"/>
<path d="M170.805 172.437C177.621 167.536 184.437 162.636 191.253 157.736C192.161 157.082 191.287 155.562 190.366 156.223C183.55 161.123 176.735 166.023 169.919 170.924C169.01 171.578 169.884 173.098 170.805 172.437Z" fill="#F0F1F1"/>
<path d="M178.83 176.305C183.423 173 188.019 169.699 192.613 166.394C193.521 165.74 192.647 164.22 191.727 164.881C187.133 168.186 182.537 171.487 177.943 174.792C177.035 175.446 177.909 176.966 178.83 176.305Z" fill="#F0F1F1"/>
<g opacity="0.79">
<path d="M147.315 165.811H157.77V179.185H147.315V165.811Z" fill="#E9B13D" stroke="#ECE9E1" stroke-width="2"/>
</g>
<path d="M119.386 66H117.342C116.866 66 116.525 65.9067 116.32 65.72C116.115 65.5333 116.012 65.2067 116.012 64.74V62.22H114.57V66H111.21V63.942H111.882V58.132H111.21V56.116H114.57V60.414L116.53 56.116H119.092V58.132H118.21L116.964 60.4H117.37C117.874 60.4 118.224 60.54 118.42 60.82C118.579 61.0533 118.658 61.436 118.658 61.968V63.942H119.386V66ZM127.723 66H124.405V62.01H123.005V66H119.687V63.942H120.331V58.174H119.687V56.116H123.005V59.952H124.405V56.116H127.723V58.174H127.079V63.942H127.723V66ZM136.424 66H133.106V61.506L131.454 66H128.136V63.942H128.78V58.174H128.136V56.116H131.454V60.456L133.106 56.116H136.424V58.174H135.78V63.942H136.424V66ZM148.745 66H146.785C146.262 66 145.917 65.916 145.749 65.748C145.581 65.5707 145.497 65.2207 145.497 64.698V62.22H144.055V66H141.409V62.22H139.967V64.698C139.967 65.2113 139.883 65.5567 139.715 65.734C139.556 65.9113 139.22 66 138.707 66H136.719V63.942H137.447V61.996C137.447 61.4547 137.521 61.0673 137.671 60.834C137.857 60.5447 138.207 60.4 138.721 60.4H139.141L137.895 58.132H137.013V56.116H139.449L141.409 60.414V56.116H144.055V60.414L146.015 56.116H148.451V58.132H147.569L146.323 60.4H146.757C147.27 60.4 147.62 60.5447 147.807 60.834C147.947 61.058 148.017 61.4453 148.017 61.996V63.942H148.745V66ZM157.076 66H153.758V62.01H152.358V66H149.04V63.942H149.684V58.174H149.04V56.116H152.358V59.952H153.758V56.116H157.076V58.174H156.432V63.942H157.076V66ZM169.151 66H165.175V63.942H165.819V58.174H165.063V56.116H169.151V58.174H168.479V63.942H169.151V66ZM164.811 63.942C164.811 64.6887 164.606 65.23 164.195 65.566C163.822 65.8553 163.248 66 162.473 66H157.489V63.942H158.161V58.174H157.489V56.116H161.577V58.174H160.821V60.064H162.473C164.032 60.064 164.811 60.638 164.811 61.786V63.942ZM162.207 63.942V61.786H160.821V63.942H162.207ZM175.735 53.582C175.735 54.3007 175.577 54.7953 175.259 55.066C174.97 55.2993 174.457 55.416 173.719 55.416C172.973 55.416 172.459 55.2993 172.179 55.066C171.862 54.8047 171.703 54.31 171.703 53.582H172.963C172.963 53.8527 173.019 54.0393 173.131 54.142C173.243 54.2353 173.439 54.282 173.719 54.282C173.999 54.282 174.195 54.2353 174.307 54.142C174.419 54.0393 174.475 53.8527 174.475 53.582H175.735ZM177.863 66H174.545V61.506L172.893 66H169.575V63.942H170.219V58.174H169.575V56.116H172.893V60.456L174.545 56.116H177.863V58.174H177.219V63.942H177.863V66ZM194.824 66H191.632V60.722L189.35 64.894L186.998 60.68V66H183.848V63.942H184.506V58.174H183.848V56.116H186.998L189.392 60.484L191.73 56.116H194.824V58.174H194.18V63.942H194.824V66ZM203.497 66H200.459L200.109 63.592H198.443L198.107 66H195.055V63.942H195.783L197.141 56.116H201.439L202.825 63.942H203.497V66ZM199.899 61.884L199.283 57.74L198.653 61.884H199.899ZM210.882 59.7H208.628V58.174H207.004V63.942H207.802V66H203.686V63.942H204.33V58.174H203.686V56.116H210.882V59.7ZM219.534 66H216.496L216.146 63.592H214.48L214.144 66H211.092V63.942H211.82L213.178 56.116H217.476L218.862 63.942H219.534V66ZM215.936 61.884L215.32 57.74L214.69 61.884H215.936ZM226.709 63.942C226.709 65.314 226.032 66 224.679 66H219.793V62.808H222.453V63.942H224.021V61.856H221.529V60.036H224.021V58.174H222.453V59.182H219.793V56.116H224.567C225.295 56.116 225.832 56.2747 226.177 56.592C226.532 56.9 226.709 57.4133 226.709 58.132V59C226.709 60.0267 226.294 60.6473 225.463 60.862V60.904C225.948 61.0533 226.284 61.282 226.471 61.59C226.63 61.8607 226.709 62.2667 226.709 62.808V63.942ZM235.709 66H232.391V61.506L230.739 66H227.421V63.942H228.065V58.174H227.421V56.116H230.739V60.456L232.391 56.116H235.709V58.174H235.065V63.942H235.709V66ZM244.166 66H240.848V62.01H239.448V66H236.13V63.942H236.774V58.174H236.13V56.116H239.448V59.952H240.848V56.116H244.166V58.174H243.522V63.942H244.166V66Z" fill="black"/>
<path d="M42.713 253.619V251.112L50.303 240.9H54.213L46.784 251.112L44.967 250.583H57.64V253.619H42.713ZM51.384 257V253.619L51.499 250.583V247.57H55.018V257H51.384ZM61.3196 257.184C60.7063 257.184 60.1773 256.977 59.7326 256.563C59.3033 256.134 59.0886 255.589 59.0886 254.93C59.0886 254.271 59.3033 253.742 59.7326 253.343C60.1773 252.929 60.7063 252.722 61.3196 252.722C61.9483 252.722 62.4773 252.929 62.9066 253.343C63.336 253.742 63.5506 254.271 63.5506 254.93C63.5506 255.589 63.336 256.134 62.9066 256.563C62.4773 256.977 61.9483 257.184 61.3196 257.184Z" fill="black"/>
</g>
<defs>
<clipPath id="clip0_2003_52">
<rect width="355" height="376" fill="white"/>
</clipPath>
</defs>
</svg>
