<svg width="355" height="376" viewBox="0 0 355 376" fill="none" xmlns="http://www.w3.org/2000/svg">
<g clip-path="url(#clip0_2003_46)">
<rect width="355" height="376" fill="white"/>
<path d="M62.36 244V230H63.58L69.98 240.92H69.34L75.68 230H76.9V244H75.48V232.22H75.82L69.98 242.22H69.28L63.4 232.22H63.78V244H62.36ZM91.5178 244V233.5H92.9378V244H91.5178ZM85.6978 237.2C87.0178 237.213 88.0245 237.507 88.7178 238.08C89.4111 238.653 89.7578 239.48 89.7578 240.56C89.7578 241.68 89.3845 242.54 88.6378 243.14C87.8911 243.74 86.8245 244.033 85.4378 244.02L81.2778 244V233.5H82.6978V237.16L85.6978 237.2ZM85.3378 242.94C86.3245 242.953 87.0645 242.76 87.5578 242.36C88.0645 241.947 88.3178 241.347 88.3178 240.56C88.3178 239.773 88.0711 239.2 87.5778 238.84C87.0845 238.467 86.3378 238.273 85.3378 238.26L82.6978 238.22V242.9L85.3378 242.94ZM102.215 244V233.5H111.655V244H110.235V234.36L110.595 234.74H103.275L103.635 234.36V244H102.215ZM120.012 244.1C118.999 244.1 118.085 243.873 117.272 243.42C116.472 242.953 115.839 242.32 115.372 241.52C114.905 240.707 114.672 239.78 114.672 238.74C114.672 237.687 114.905 236.76 115.372 235.96C115.839 235.16 116.472 234.533 117.272 234.08C118.072 233.627 118.985 233.4 120.012 233.4C121.052 233.4 121.972 233.627 122.772 234.08C123.585 234.533 124.219 235.16 124.672 235.96C125.139 236.76 125.372 237.687 125.372 238.74C125.372 239.78 125.139 240.707 124.672 241.52C124.219 242.32 123.585 242.953 122.772 243.42C121.959 243.873 121.039 244.1 120.012 244.1ZM120.012 242.84C120.772 242.84 121.445 242.673 122.032 242.34C122.619 241.993 123.079 241.513 123.412 240.9C123.759 240.273 123.932 239.553 123.932 238.74C123.932 237.913 123.759 237.193 123.412 236.58C123.079 235.967 122.619 235.493 122.032 235.16C121.445 234.813 120.779 234.64 120.032 234.64C119.285 234.64 118.619 234.813 118.032 235.16C117.445 235.493 116.979 235.967 116.632 236.58C116.285 237.193 116.112 237.913 116.112 238.74C116.112 239.553 116.285 240.273 116.632 240.9C116.979 241.513 117.445 241.993 118.032 242.34C118.619 242.673 119.279 242.84 120.012 242.84ZM126.428 243.98L126.528 242.76C126.621 242.773 126.708 242.793 126.788 242.82C126.881 242.833 126.961 242.84 127.028 242.84C127.455 242.84 127.795 242.68 128.048 242.36C128.315 242.04 128.515 241.613 128.648 241.08C128.781 240.547 128.875 239.947 128.928 239.28C128.981 238.6 129.028 237.92 129.068 237.24L129.248 233.5H136.948V244H135.528V234.32L135.888 234.74H130.168L130.508 234.3L130.348 237.34C130.308 238.247 130.235 239.113 130.128 239.94C130.035 240.767 129.881 241.493 129.668 242.12C129.468 242.747 129.188 243.24 128.828 243.6C128.468 243.947 128.008 244.12 127.448 244.12C127.288 244.12 127.121 244.107 126.948 244.08C126.788 244.053 126.615 244.02 126.428 243.98ZM141.165 247.98C140.672 247.98 140.198 247.9 139.745 247.74C139.305 247.58 138.925 247.34 138.605 247.02L139.265 245.96C139.532 246.213 139.818 246.407 140.125 246.54C140.445 246.687 140.798 246.76 141.185 246.76C141.652 246.76 142.052 246.627 142.385 246.36C142.732 246.107 143.058 245.653 143.365 245L144.045 243.46L144.205 243.24L148.525 233.5H149.925L144.665 245.26C144.372 245.94 144.045 246.48 143.685 246.88C143.338 247.28 142.958 247.56 142.545 247.72C142.132 247.893 141.672 247.98 141.165 247.98ZM143.965 244.3L139.125 233.5H140.605L144.885 243.14L143.965 244.3ZM158.777 239.56C158.164 239.827 157.544 240.04 156.917 240.2C156.304 240.347 155.691 240.42 155.077 240.42C153.837 240.42 152.857 240.14 152.137 239.58C151.417 239.007 151.057 238.127 151.057 236.94V233.5H152.457V236.86C152.457 237.66 152.717 238.26 153.237 238.66C153.757 239.06 154.457 239.26 155.337 239.26C155.871 239.26 156.431 239.193 157.017 239.06C157.604 238.913 158.197 238.707 158.797 238.44L158.777 239.56ZM158.657 244V233.5H160.077V244H158.657ZM170.63 244V241.68L170.57 241.3V237.42C170.57 236.527 170.317 235.84 169.81 235.36C169.317 234.88 168.577 234.64 167.59 234.64C166.91 234.64 166.263 234.753 165.65 234.98C165.037 235.207 164.517 235.507 164.09 235.88L163.45 234.82C163.983 234.367 164.623 234.02 165.37 233.78C166.117 233.527 166.903 233.4 167.73 233.4C169.09 233.4 170.137 233.74 170.87 234.42C171.617 235.087 171.99 236.107 171.99 237.48V244H170.63ZM167.01 244.1C166.223 244.1 165.537 243.973 164.95 243.72C164.377 243.453 163.937 243.093 163.63 242.64C163.323 242.173 163.17 241.64 163.17 241.04C163.17 240.493 163.297 240 163.55 239.56C163.817 239.107 164.243 238.747 164.83 238.48C165.43 238.2 166.23 238.06 167.23 238.06H170.85V239.12H167.27C166.257 239.12 165.55 239.3 165.15 239.66C164.763 240.02 164.57 240.467 164.57 241C164.57 241.6 164.803 242.08 165.27 242.44C165.737 242.8 166.39 242.98 167.23 242.98C168.03 242.98 168.717 242.8 169.29 242.44C169.877 242.067 170.303 241.533 170.57 240.84L170.89 241.82C170.623 242.513 170.157 243.067 169.49 243.48C168.837 243.893 168.01 244.1 167.01 244.1ZM180.27 244.1C179.177 244.1 178.217 243.873 177.39 243.42C176.563 242.953 175.917 242.32 175.45 241.52C174.983 240.707 174.75 239.78 174.75 238.74C174.75 237.7 174.97 236.78 175.41 235.98C175.863 235.18 176.477 234.553 177.25 234.1C178.037 233.633 178.917 233.4 179.89 233.4C180.877 233.4 181.75 233.627 182.51 234.08C183.283 234.52 183.89 235.147 184.33 235.96C184.77 236.76 184.99 237.687 184.99 238.74C184.99 238.807 184.983 238.88 184.97 238.96C184.97 239.027 184.97 239.1 184.97 239.18H175.83V238.12H184.21L183.65 238.54C183.65 237.78 183.483 237.107 183.15 236.52C182.83 235.92 182.39 235.453 181.83 235.12C181.27 234.787 180.623 234.62 179.89 234.62C179.17 234.62 178.523 234.787 177.95 235.12C177.377 235.453 176.93 235.92 176.61 236.52C176.29 237.12 176.13 237.807 176.13 238.58V238.8C176.13 239.6 176.303 240.307 176.65 240.92C177.01 241.52 177.503 241.993 178.13 242.34C178.77 242.673 179.497 242.84 180.31 242.84C180.95 242.84 181.543 242.727 182.09 242.5C182.65 242.273 183.13 241.927 183.53 241.46L184.33 242.38C183.863 242.94 183.277 243.367 182.57 243.66C181.877 243.953 181.11 244.1 180.27 244.1ZM188.133 244V233.5H189.573L194.333 241.56H193.733L198.573 233.5H199.893V244H198.593V235.12L198.853 235.24L194.333 242.72H193.693L189.133 235.16L189.433 235.1V244H188.133ZM210.628 244V230.6L211.268 231.28H207.328V230H212.068V244H210.628ZM220.995 244.12C219.915 244.12 218.955 243.84 218.115 243.28C217.275 242.707 216.615 241.893 216.135 240.84C215.655 239.773 215.415 238.493 215.415 237C215.415 235.507 215.655 234.233 216.135 233.18C216.615 232.113 217.275 231.3 218.115 230.74C218.955 230.167 219.915 229.88 220.995 229.88C222.075 229.88 223.035 230.167 223.875 230.74C224.715 231.3 225.375 232.113 225.855 233.18C226.348 234.233 226.595 235.507 226.595 237C226.595 238.493 226.348 239.773 225.855 240.84C225.375 241.893 224.715 242.707 223.875 243.28C223.035 243.84 222.075 244.12 220.995 244.12ZM220.995 242.8C221.822 242.8 222.542 242.58 223.155 242.14C223.768 241.687 224.248 241.033 224.595 240.18C224.942 239.313 225.115 238.253 225.115 237C225.115 235.747 224.942 234.693 224.595 233.84C224.248 232.973 223.768 232.32 223.155 231.88C222.542 231.427 221.822 231.2 220.995 231.2C220.195 231.2 219.482 231.427 218.855 231.88C218.228 232.32 217.742 232.973 217.395 233.84C217.048 234.693 216.875 235.747 216.875 237C216.875 238.253 217.048 239.313 217.395 240.18C217.742 241.033 218.228 241.687 218.855 242.14C219.482 242.58 220.195 242.8 220.995 242.8ZM230.537 244L240.097 230H241.277L231.717 244H230.537ZM231.617 237.5C230.991 237.5 230.437 237.347 229.957 237.04C229.477 236.72 229.104 236.273 228.837 235.7C228.584 235.127 228.457 234.46 228.457 233.7C228.457 232.94 228.584 232.273 228.837 231.7C229.104 231.127 229.477 230.687 229.957 230.38C230.437 230.06 230.991 229.9 231.617 229.9C232.244 229.9 232.791 230.06 233.257 230.38C233.737 230.687 234.111 231.127 234.377 231.7C234.644 232.273 234.777 232.94 234.777 233.7C234.777 234.46 234.644 235.127 234.377 235.7C234.111 236.273 233.737 236.72 233.257 237.04C232.791 237.347 232.244 237.5 231.617 237.5ZM231.617 236.6C232.271 236.6 232.791 236.347 233.177 235.84C233.577 235.32 233.777 234.607 233.777 233.7C233.777 232.793 233.577 232.087 233.177 231.58C232.791 231.06 232.271 230.8 231.617 230.8C230.951 230.8 230.424 231.06 230.037 231.58C229.651 232.087 229.457 232.793 229.457 233.7C229.457 234.607 229.651 235.32 230.037 235.84C230.424 236.347 230.951 236.6 231.617 236.6ZM240.197 244.1C239.584 244.1 239.037 243.947 238.557 243.64C238.077 243.32 237.704 242.873 237.437 242.3C237.171 241.727 237.037 241.06 237.037 240.3C237.037 239.54 237.171 238.873 237.437 238.3C237.704 237.727 238.077 237.287 238.557 236.98C239.037 236.66 239.584 236.5 240.197 236.5C240.837 236.5 241.391 236.66 241.857 236.98C242.337 237.287 242.704 237.727 242.957 238.3C243.224 238.873 243.357 239.54 243.357 240.3C243.357 241.06 243.224 241.727 242.957 242.3C242.704 242.873 242.337 243.32 241.857 243.64C241.391 243.947 240.837 244.1 240.197 244.1ZM240.197 243.2C240.851 243.2 241.371 242.947 241.757 242.44C242.157 241.92 242.357 241.207 242.357 240.3C242.357 239.393 242.157 238.687 241.757 238.18C241.371 237.66 240.851 237.4 240.197 237.4C239.544 237.4 239.017 237.66 238.617 238.18C238.231 238.687 238.037 239.393 238.037 240.3C238.037 241.207 238.231 241.92 238.617 242.44C239.017 242.947 239.544 243.2 240.197 243.2ZM255.854 244.1C254.814 244.1 253.88 243.873 253.054 243.42C252.24 242.953 251.6 242.32 251.134 241.52C250.667 240.707 250.434 239.78 250.434 238.74C250.434 237.687 250.667 236.76 251.134 235.96C251.6 235.16 252.24 234.533 253.054 234.08C253.88 233.627 254.814 233.4 255.854 233.4C256.747 233.4 257.554 233.573 258.274 233.92C258.994 234.267 259.56 234.787 259.974 235.48L258.914 236.2C258.554 235.667 258.107 235.273 257.574 235.02C257.04 234.767 256.46 234.64 255.834 234.64C255.087 234.64 254.414 234.813 253.814 235.16C253.214 235.493 252.74 235.967 252.394 236.58C252.047 237.193 251.874 237.913 251.874 238.74C251.874 239.567 252.047 240.287 252.394 240.9C252.74 241.513 253.214 241.993 253.814 242.34C254.414 242.673 255.087 242.84 255.834 242.84C256.46 242.84 257.04 242.713 257.574 242.46C258.107 242.207 258.554 241.82 258.914 241.3L259.974 242.02C259.56 242.7 258.994 243.22 258.274 243.58C257.554 243.927 256.747 244.1 255.854 244.1ZM69.72 268L65.4 262.8L66.58 262.1L71.4 268H69.72ZM62.02 268V257.5H63.44V268H62.02ZM63 263.32V262.1H66.38V263.32H63ZM66.7 262.9L65.38 262.7L69.56 257.5H71.1L66.7 262.9ZM79.9658 268V265.68L79.9058 265.3V261.42C79.9058 260.527 79.6524 259.84 79.1458 259.36C78.6524 258.88 77.9124 258.64 76.9258 258.64C76.2458 258.64 75.5991 258.753 74.9858 258.98C74.3724 259.207 73.8524 259.507 73.4258 259.88L72.7858 258.82C73.3191 258.367 73.9591 258.02 74.7058 257.78C75.4524 257.527 76.2391 257.4 77.0658 257.4C78.4258 257.4 79.4724 257.74 80.2058 258.42C80.9524 259.087 81.3258 260.107 81.3258 261.48V268H79.9658ZM76.3458 268.1C75.5591 268.1 74.8724 267.973 74.2858 267.72C73.7124 267.453 73.2724 267.093 72.9658 266.64C72.6591 266.173 72.5058 265.64 72.5058 265.04C72.5058 264.493 72.6324 264 72.8858 263.56C73.1524 263.107 73.5791 262.747 74.1658 262.48C74.7658 262.2 75.5658 262.06 76.5658 262.06H80.1858V263.12H76.6058C75.5924 263.12 74.8858 263.3 74.4858 263.66C74.0991 264.02 73.9058 264.467 73.9058 265C73.9058 265.6 74.1391 266.08 74.6058 266.44C75.0724 266.8 75.7258 266.98 76.5658 266.98C77.3658 266.98 78.0524 266.8 78.6258 266.44C79.2124 266.067 79.6391 265.533 79.9058 264.84L80.2258 265.82C79.9591 266.513 79.4924 267.067 78.8258 267.48C78.1724 267.893 77.3458 268.1 76.3458 268.1ZM97.5659 268L93.9659 262.8L95.1459 262.1L99.2659 268H97.5659ZM91.6059 263.32V262.1H94.9259V263.32H91.6059ZM95.2859 262.9L93.9259 262.7L97.4259 257.5H98.9659L95.2859 262.9ZM85.1259 268H83.4259L87.5459 262.1L88.7059 262.8L85.1259 268ZM92.0459 268H90.6259V257.5H92.0459V268ZM91.0659 263.32H87.7659V262.1H91.0659V263.32ZM87.4259 262.9L83.7259 257.5H85.2659L88.7459 262.7L87.4259 262.9ZM108.829 267.32V258.74H103.769L103.649 261.08C103.623 261.787 103.576 262.48 103.509 263.16C103.456 263.84 103.356 264.467 103.209 265.04C103.076 265.6 102.883 266.06 102.629 266.42C102.376 266.767 102.049 266.967 101.649 267.02L100.229 266.76C100.643 266.773 100.983 266.627 101.249 266.32C101.516 266 101.723 265.567 101.869 265.02C102.016 264.473 102.123 263.853 102.189 263.16C102.256 262.453 102.309 261.733 102.349 261L102.489 257.5H110.249V267.32H108.829ZM99.7894 270.54V266.76H111.889V270.54H110.549V268H101.129V270.54H99.7894ZM118.977 268.1C117.963 268.1 117.05 267.873 116.237 267.42C115.437 266.953 114.803 266.32 114.337 265.52C113.87 264.707 113.637 263.78 113.637 262.74C113.637 261.687 113.87 260.76 114.337 259.96C114.803 259.16 115.437 258.533 116.237 258.08C117.037 257.627 117.95 257.4 118.977 257.4C120.017 257.4 120.937 257.627 121.737 258.08C122.55 258.533 123.183 259.16 123.637 259.96C124.103 260.76 124.337 261.687 124.337 262.74C124.337 263.78 124.103 264.707 123.637 265.52C123.183 266.32 122.55 266.953 121.737 267.42C120.923 267.873 120.003 268.1 118.977 268.1ZM118.977 266.84C119.737 266.84 120.41 266.673 120.997 266.34C121.583 265.993 122.043 265.513 122.377 264.9C122.723 264.273 122.897 263.553 122.897 262.74C122.897 261.913 122.723 261.193 122.377 260.58C122.043 259.967 121.583 259.493 120.997 259.16C120.41 258.813 119.743 258.64 118.997 258.64C118.25 258.64 117.583 258.813 116.997 259.16C116.41 259.493 115.943 259.967 115.597 260.58C115.25 261.193 115.077 261.913 115.077 262.74C115.077 263.553 115.25 264.273 115.597 264.9C115.943 265.513 116.41 265.993 116.997 266.34C117.583 266.673 118.243 266.84 118.977 266.84ZM127.372 268V257.5H128.792V265.84L135.812 257.5H137.072V268H135.652V259.64L128.652 268H127.372ZM132.132 255.98C131.252 255.98 130.538 255.76 129.992 255.32C129.458 254.867 129.178 254.22 129.152 253.38H130.172C130.185 253.913 130.372 254.333 130.732 254.64C131.092 254.947 131.558 255.1 132.132 255.1C132.705 255.1 133.172 254.947 133.532 254.64C133.905 254.333 134.098 253.913 134.112 253.38H135.132C135.118 254.22 134.838 254.867 134.292 255.32C133.745 255.76 133.025 255.98 132.132 255.98ZM146.375 268V257.5H155.815V268H154.395V258.36L154.755 258.74H147.435L147.795 258.36V268H146.375ZM164.172 268.1C163.159 268.1 162.245 267.873 161.432 267.42C160.632 266.953 159.999 266.32 159.532 265.52C159.065 264.707 158.832 263.78 158.832 262.74C158.832 261.687 159.065 260.76 159.532 259.96C159.999 259.16 160.632 258.533 161.432 258.08C162.232 257.627 163.145 257.4 164.172 257.4C165.212 257.4 166.132 257.627 166.932 258.08C167.745 258.533 168.379 259.16 168.832 259.96C169.299 260.76 169.532 261.687 169.532 262.74C169.532 263.78 169.299 264.707 168.832 265.52C168.379 266.32 167.745 266.953 166.932 267.42C166.119 267.873 165.199 268.1 164.172 268.1ZM164.172 266.84C164.932 266.84 165.605 266.673 166.192 266.34C166.779 265.993 167.239 265.513 167.572 264.9C167.919 264.273 168.092 263.553 168.092 262.74C168.092 261.913 167.919 261.193 167.572 260.58C167.239 259.967 166.779 259.493 166.192 259.16C165.605 258.813 164.939 258.64 164.192 258.64C163.445 258.64 162.779 258.813 162.192 259.16C161.605 259.493 161.139 259.967 160.792 260.58C160.445 261.193 160.272 261.913 160.272 262.74C160.272 263.553 160.445 264.273 160.792 264.9C161.139 265.513 161.605 265.993 162.192 266.34C162.779 266.673 163.439 266.84 164.172 266.84ZM180.267 268L175.947 262.8L177.127 262.1L181.947 268H180.267ZM172.567 268V257.5H173.987V268H172.567ZM173.547 263.32V262.1H176.927V263.32H173.547ZM177.247 262.9L175.927 262.7L180.107 257.5H181.647L177.247 262.9ZM183.763 271.98C183.269 271.98 182.796 271.9 182.343 271.74C181.903 271.58 181.522 271.34 181.202 271.02L181.863 269.96C182.129 270.213 182.416 270.407 182.723 270.54C183.043 270.687 183.396 270.76 183.783 270.76C184.249 270.76 184.649 270.627 184.983 270.36C185.329 270.107 185.656 269.653 185.963 269L186.643 267.46L186.803 267.24L191.123 257.5H192.523L187.263 269.26C186.969 269.94 186.643 270.48 186.283 270.88C185.936 271.28 185.556 271.56 185.143 271.72C184.729 271.893 184.269 271.98 183.763 271.98ZM186.562 268.3L181.723 257.5H183.203L187.483 267.14L186.562 268.3ZM194.735 268V257.5H204.175V268H202.755V258.36L203.115 258.74H195.795L196.155 258.36V268H194.735ZM215.911 268L211.591 262.8L212.771 262.1L217.591 268H215.911ZM208.211 268V257.5H209.631V268H208.211ZM209.191 263.32V262.1H212.571V263.32H209.191ZM212.891 262.9L211.571 262.7L215.751 257.5H217.291L212.891 262.9ZM219.833 268V257.5H221.253V265.84L228.273 257.5H229.533V268H228.113V259.64L221.113 268H219.833ZM233.702 268.1C233.409 268.1 233.155 267.993 232.942 267.78C232.742 267.567 232.642 267.307 232.642 267C232.642 266.68 232.742 266.42 232.942 266.22C233.155 266.02 233.409 265.92 233.702 265.92C233.995 265.92 234.242 266.02 234.442 266.22C234.655 266.42 234.762 266.68 234.762 267C234.762 267.307 234.655 267.567 234.442 267.78C234.242 267.993 233.995 268.1 233.702 268.1ZM72.6 278H74.06V292H72.6V278ZM63.84 292H62.36V278H63.84V292ZM72.74 285.54H63.68V284.24H72.74V285.54ZM84.9658 292V289.68L84.9058 289.3V285.42C84.9058 284.527 84.6524 283.84 84.1458 283.36C83.6524 282.88 82.9124 282.64 81.9258 282.64C81.2458 282.64 80.5991 282.753 79.9858 282.98C79.3724 283.207 78.8524 283.507 78.4258 283.88L77.7858 282.82C78.3191 282.367 78.9591 282.02 79.7058 281.78C80.4524 281.527 81.2391 281.4 82.0658 281.4C83.4258 281.4 84.4724 281.74 85.2058 282.42C85.9524 283.087 86.3258 284.107 86.3258 285.48V292H84.9658ZM81.3458 292.1C80.5591 292.1 79.8724 291.973 79.2858 291.72C78.7124 291.453 78.2724 291.093 77.9658 290.64C77.6591 290.173 77.5058 289.64 77.5058 289.04C77.5058 288.493 77.6324 288 77.8858 287.56C78.1524 287.107 78.5791 286.747 79.1658 286.48C79.7658 286.2 80.5658 286.06 81.5658 286.06H85.1858V287.12H81.6058C80.5924 287.12 79.8858 287.3 79.4858 287.66C79.0991 288.02 78.9058 288.467 78.9058 289C78.9058 289.6 79.1391 290.08 79.6058 290.44C80.0724 290.8 80.7258 290.98 81.5658 290.98C82.3658 290.98 83.0524 290.8 83.6258 290.44C84.2124 290.067 84.6391 289.533 84.9058 288.84L85.2258 289.82C84.9591 290.513 84.4924 291.067 83.8258 291.48C83.1724 291.893 82.3458 292.1 81.3458 292.1ZM90.1059 292V281.5H99.5459V292H98.1259V282.36L98.4859 282.74H91.1659L91.5259 282.36V292H90.1059ZM109.003 292.1C108.096 292.1 107.276 291.893 106.543 291.48C105.809 291.053 105.223 290.447 104.783 289.66C104.356 288.86 104.143 287.887 104.143 286.74C104.143 285.593 104.356 284.627 104.783 283.84C105.209 283.04 105.789 282.433 106.523 282.02C107.256 281.607 108.083 281.4 109.003 281.4C110.003 281.4 110.896 281.627 111.683 282.08C112.483 282.52 113.109 283.147 113.563 283.96C114.016 284.76 114.243 285.687 114.243 286.74C114.243 287.807 114.016 288.74 113.563 289.54C113.109 290.34 112.483 290.967 111.683 291.42C110.896 291.873 110.003 292.1 109.003 292.1ZM103.583 295.88V281.5H104.943V284.66L104.803 286.76L105.003 288.88V295.88H103.583ZM108.903 290.84C109.649 290.84 110.316 290.673 110.903 290.34C111.489 289.993 111.956 289.513 112.303 288.9C112.649 288.273 112.823 287.553 112.823 286.74C112.823 285.927 112.649 285.213 112.303 284.6C111.956 283.987 111.489 283.507 110.903 283.16C110.316 282.813 109.649 282.64 108.903 282.64C108.156 282.64 107.483 282.813 106.883 283.16C106.296 283.507 105.829 283.987 105.483 284.6C105.149 285.213 104.983 285.927 104.983 286.74C104.983 287.553 105.149 288.273 105.483 288.9C105.829 289.513 106.296 289.993 106.883 290.34C107.483 290.673 108.156 290.84 108.903 290.84ZM123.755 292V289.68L123.695 289.3V285.42C123.695 284.527 123.442 283.84 122.935 283.36C122.442 282.88 121.702 282.64 120.715 282.64C120.035 282.64 119.388 282.753 118.775 282.98C118.162 283.207 117.642 283.507 117.215 283.88L116.575 282.82C117.108 282.367 117.748 282.02 118.495 281.78C119.242 281.527 120.028 281.4 120.855 281.4C122.215 281.4 123.262 281.74 123.995 282.42C124.742 283.087 125.115 284.107 125.115 285.48V292H123.755ZM120.135 292.1C119.348 292.1 118.662 291.973 118.075 291.72C117.502 291.453 117.062 291.093 116.755 290.64C116.448 290.173 116.295 289.64 116.295 289.04C116.295 288.493 116.422 288 116.675 287.56C116.942 287.107 117.368 286.747 117.955 286.48C118.555 286.2 119.355 286.06 120.355 286.06H123.975V287.12H120.395C119.382 287.12 118.675 287.3 118.275 287.66C117.888 288.02 117.695 288.467 117.695 289C117.695 289.6 117.928 290.08 118.395 290.44C118.862 290.8 119.515 290.98 120.355 290.98C121.155 290.98 121.842 290.8 122.415 290.44C123.002 290.067 123.428 289.533 123.695 288.84L124.015 289.82C123.748 290.513 123.282 291.067 122.615 291.48C121.962 291.893 121.135 292.1 120.135 292.1ZM128.895 292V281.5H133.535C134.722 281.5 135.655 281.727 136.335 282.18C137.028 282.633 137.375 283.3 137.375 284.18C137.375 285.033 137.048 285.693 136.395 286.16C135.742 286.613 134.882 286.84 133.815 286.84L134.095 286.42C135.348 286.42 136.268 286.653 136.855 287.12C137.442 287.587 137.735 288.26 137.735 289.14C137.735 290.047 137.402 290.753 136.735 291.26C136.082 291.753 135.062 292 133.675 292H128.895ZM130.275 290.88H133.615C134.508 290.88 135.182 290.74 135.635 290.46C136.102 290.167 136.335 289.7 136.335 289.06C136.335 288.42 136.128 287.953 135.715 287.66C135.302 287.367 134.648 287.22 133.755 287.22H130.275V290.88ZM130.275 286.16H133.435C134.248 286.16 134.868 286.007 135.295 285.7C135.735 285.393 135.955 284.947 135.955 284.36C135.955 283.773 135.735 283.333 135.295 283.04C134.868 282.747 134.248 282.6 133.435 282.6H130.275V286.16ZM139.143 291.98L139.243 290.76C139.336 290.773 139.423 290.793 139.503 290.82C139.596 290.833 139.676 290.84 139.743 290.84C140.17 290.84 140.51 290.68 140.763 290.36C141.03 290.04 141.23 289.613 141.363 289.08C141.496 288.547 141.59 287.947 141.643 287.28C141.696 286.6 141.743 285.92 141.783 285.24L141.963 281.5H149.663V292H148.243V282.32L148.603 282.74H142.883L143.223 282.3L143.063 285.34C143.023 286.247 142.95 287.113 142.843 287.94C142.75 288.767 142.596 289.493 142.383 290.12C142.183 290.747 141.903 291.24 141.543 291.6C141.183 291.947 140.723 292.12 140.163 292.12C140.003 292.12 139.836 292.107 139.663 292.08C139.503 292.053 139.33 292.02 139.143 291.98ZM160.48 292V288.22L160.74 288.52H157.18C155.833 288.52 154.78 288.227 154.02 287.64C153.26 287.053 152.88 286.2 152.88 285.08C152.88 283.88 153.286 282.987 154.1 282.4C154.913 281.8 156 281.5 157.36 281.5H161.78V292H160.48ZM152.8 292L155.68 287.96H157.16L154.34 292H152.8ZM160.48 287.8V282.32L160.74 282.74H157.4C156.426 282.74 155.666 282.927 155.12 283.3C154.586 283.673 154.32 284.28 154.32 285.12C154.32 286.68 155.313 287.46 157.3 287.46H160.74L160.48 287.8ZM170.329 292.1C169.235 292.1 168.275 291.873 167.449 291.42C166.622 290.953 165.975 290.32 165.509 289.52C165.042 288.707 164.809 287.78 164.809 286.74C164.809 285.7 165.029 284.78 165.469 283.98C165.922 283.18 166.535 282.553 167.309 282.1C168.095 281.633 168.975 281.4 169.949 281.4C170.935 281.4 171.809 281.627 172.569 282.08C173.342 282.52 173.949 283.147 174.389 283.96C174.829 284.76 175.049 285.687 175.049 286.74C175.049 286.807 175.042 286.88 175.029 286.96C175.029 287.027 175.029 287.1 175.029 287.18H165.889V286.12H174.269L173.709 286.54C173.709 285.78 173.542 285.107 173.209 284.52C172.889 283.92 172.449 283.453 171.889 283.12C171.329 282.787 170.682 282.62 169.949 282.62C169.229 282.62 168.582 282.787 168.009 283.12C167.435 283.453 166.989 283.92 166.669 284.52C166.349 285.12 166.189 285.807 166.189 286.58V286.8C166.189 287.6 166.362 288.307 166.709 288.92C167.069 289.52 167.562 289.993 168.189 290.34C168.829 290.673 169.555 290.84 170.369 290.84C171.009 290.84 171.602 290.727 172.149 290.5C172.709 290.273 173.189 289.927 173.589 289.46L174.389 290.38C173.922 290.94 173.335 291.367 172.629 291.66C171.935 291.953 171.169 292.1 170.329 292.1ZM178.192 292V281.5H179.632L184.392 289.56H183.792L188.632 281.5H189.952V292H188.652V283.12L188.912 283.24L184.392 290.72H183.752L179.192 283.16L179.492 283.1V292H178.192ZM199.227 292V281.5H203.867C205.054 281.5 205.987 281.727 206.667 282.18C207.36 282.633 207.707 283.3 207.707 284.18C207.707 285.033 207.38 285.693 206.727 286.16C206.074 286.613 205.214 286.84 204.147 286.84L204.427 286.42C205.68 286.42 206.6 286.653 207.187 287.12C207.774 287.587 208.067 288.26 208.067 289.14C208.067 290.047 207.734 290.753 207.067 291.26C206.414 291.753 205.394 292 204.007 292H199.227ZM200.607 290.88H203.947C204.84 290.88 205.514 290.74 205.967 290.46C206.434 290.167 206.667 289.7 206.667 289.06C206.667 288.42 206.46 287.953 206.047 287.66C205.634 287.367 204.98 287.22 204.087 287.22H200.607V290.88ZM200.607 286.16H203.767C204.58 286.16 205.2 286.007 205.627 285.7C206.067 285.393 206.287 284.947 206.287 284.36C206.287 283.773 206.067 283.333 205.627 283.04C205.2 282.747 204.58 282.6 203.767 282.6H200.607V286.16ZM215.795 292.1C214.755 292.1 213.822 291.873 212.995 291.42C212.182 290.953 211.542 290.32 211.075 289.52C210.608 288.707 210.375 287.78 210.375 286.74C210.375 285.687 210.608 284.76 211.075 283.96C211.542 283.16 212.182 282.533 212.995 282.08C213.822 281.627 214.755 281.4 215.795 281.4C216.688 281.4 217.495 281.573 218.215 281.92C218.935 282.267 219.502 282.787 219.915 283.48L218.855 284.2C218.495 283.667 218.048 283.273 217.515 283.02C216.982 282.767 216.402 282.64 215.775 282.64C215.028 282.64 214.355 282.813 213.755 283.16C213.155 283.493 212.682 283.967 212.335 284.58C211.988 285.193 211.815 285.913 211.815 286.74C211.815 287.567 211.988 288.287 212.335 288.9C212.682 289.513 213.155 289.993 213.755 290.34C214.355 290.673 215.028 290.84 215.775 290.84C216.402 290.84 216.982 290.713 217.515 290.46C218.048 290.207 218.495 289.82 218.855 289.3L219.915 290.02C219.502 290.7 218.935 291.22 218.215 291.58C217.495 291.927 216.688 292.1 215.795 292.1ZM222.665 292V281.5H224.085V286.02H227.285V287.32H224.085V292H222.665ZM231.705 292.1C230.705 292.1 229.805 291.873 229.005 291.42C228.218 290.953 227.598 290.32 227.145 289.52C226.691 288.707 226.465 287.78 226.465 286.74C226.465 285.687 226.691 284.76 227.145 283.96C227.598 283.16 228.218 282.533 229.005 282.08C229.805 281.627 230.705 281.4 231.705 281.4C232.705 281.4 233.598 281.627 234.385 282.08C235.171 282.533 235.791 283.16 236.245 283.96C236.698 284.76 236.925 285.687 236.925 286.74C236.925 287.78 236.698 288.707 236.245 289.52C235.791 290.32 235.171 290.953 234.385 291.42C233.598 291.873 232.705 292.1 231.705 292.1ZM231.705 290.86C232.438 290.86 233.091 290.687 233.665 290.34C234.238 289.993 234.691 289.513 235.025 288.9C235.358 288.273 235.525 287.553 235.525 286.74C235.525 285.913 235.358 285.193 235.025 284.58C234.691 283.967 234.238 283.493 233.665 283.16C233.091 282.813 232.438 282.64 231.705 282.64C230.985 282.64 230.331 282.813 229.745 283.16C229.171 283.493 228.718 283.967 228.385 284.58C228.051 285.193 227.885 285.913 227.885 286.74C227.885 287.553 228.051 288.273 228.385 288.9C228.718 289.513 229.171 289.993 229.745 290.34C230.331 290.687 230.985 290.86 231.705 290.86ZM249.604 292.1C248.564 292.1 247.63 291.873 246.804 291.42C245.99 290.953 245.35 290.32 244.884 289.52C244.417 288.707 244.184 287.78 244.184 286.74C244.184 285.687 244.417 284.76 244.884 283.96C245.35 283.16 245.99 282.533 246.804 282.08C247.63 281.627 248.564 281.4 249.604 281.4C250.497 281.4 251.304 281.573 252.024 281.92C252.744 282.267 253.31 282.787 253.724 283.48L252.664 284.2C252.304 283.667 251.857 283.273 251.324 283.02C250.79 282.767 250.21 282.64 249.584 282.64C248.837 282.64 248.164 282.813 247.564 283.16C246.964 283.493 246.49 283.967 246.144 284.58C245.797 285.193 245.624 285.913 245.624 286.74C245.624 287.567 245.797 288.287 246.144 288.9C246.49 289.513 246.964 289.993 247.564 290.34C248.164 290.673 248.837 290.84 249.584 290.84C250.21 290.84 250.79 290.713 251.324 290.46C251.857 290.207 252.304 289.82 252.664 289.3L253.724 290.02C253.31 290.7 252.744 291.22 252.024 291.58C251.304 291.927 250.497 292.1 249.604 292.1ZM256.497 295.98C256.004 295.98 255.53 295.9 255.077 295.74C254.637 295.58 254.257 295.34 253.937 295.02L254.597 293.96C254.864 294.213 255.15 294.407 255.457 294.54C255.777 294.687 256.13 294.76 256.517 294.76C256.984 294.76 257.384 294.627 257.717 294.36C258.064 294.107 258.39 293.653 258.697 293L259.377 291.46L259.537 291.24L263.857 281.5H265.257L259.997 293.26C259.704 293.94 259.377 294.48 259.017 294.88C258.67 295.28 258.29 295.56 257.877 295.72C257.464 295.893 257.004 295.98 256.497 295.98ZM259.297 292.3L254.457 281.5H255.937L260.217 291.14L259.297 292.3ZM267.469 292V281.5H268.909L273.669 289.56H273.069L277.909 281.5H279.229V292H277.929V283.12L278.189 283.24L273.669 290.72H273.029L268.469 283.16L268.769 283.1V292H267.469ZM283.27 292V281.5H284.71L289.47 289.56H288.87L293.71 281.5H295.03V292H293.73V283.12L293.99 283.24L289.47 290.72H288.83L284.27 283.16L284.57 283.1V292H283.27ZM299.251 295.98C298.757 295.98 298.284 295.9 297.831 295.74C297.391 295.58 297.011 295.34 296.691 295.02L297.351 293.96C297.617 294.213 297.904 294.407 298.211 294.54C298.531 294.687 298.884 294.76 299.271 294.76C299.737 294.76 300.137 294.627 300.471 294.36C300.817 294.107 301.144 293.653 301.451 293L302.131 291.46L302.291 291.24L306.611 281.5H308.011L302.751 293.26C302.457 293.94 302.131 294.48 301.771 294.88C301.424 295.28 301.044 295.56 300.631 295.72C300.217 295.893 299.757 295.98 299.251 295.98ZM302.051 292.3L297.211 281.5H298.691L302.971 291.14L302.051 292.3ZM315.458 292V281.5H320.098C321.284 281.5 322.218 281.727 322.898 282.18C323.591 282.633 323.938 283.3 323.938 284.18C323.938 285.033 323.611 285.693 322.958 286.16C322.304 286.613 321.444 286.84 320.378 286.84L320.658 286.42C321.911 286.42 322.831 286.653 323.418 287.12C324.004 287.587 324.298 288.26 324.298 289.14C324.298 290.047 323.964 290.753 323.298 291.26C322.644 291.753 321.624 292 320.238 292H315.458ZM316.838 290.88H320.178C321.071 290.88 321.744 290.74 322.198 290.46C322.664 290.167 322.898 289.7 322.898 289.06C322.898 288.42 322.691 287.953 322.278 287.66C321.864 287.367 321.211 287.22 320.318 287.22H316.838V290.88ZM316.838 286.16H319.998C320.811 286.16 321.431 286.007 321.858 285.7C322.298 285.393 322.518 284.947 322.518 284.36C322.518 283.773 322.298 283.333 321.858 283.04C321.431 282.747 320.811 282.6 319.998 282.6H316.838V286.16ZM62.02 316V305.5H63.44V310.14H70.06V305.5H71.48V316H70.06V311.36H63.44V316H62.02ZM82.0361 316V313.68L81.9761 313.3V309.42C81.9761 308.527 81.7228 307.84 81.2161 307.36C80.7228 306.88 79.9828 306.64 78.9961 306.64C78.3161 306.64 77.6694 306.753 77.0561 306.98C76.4428 307.207 75.9228 307.507 75.4961 307.88L74.8561 306.82C75.3894 306.367 76.0294 306.02 76.7761 305.78C77.5228 305.527 78.3094 305.4 79.1361 305.4C80.4961 305.4 81.5428 305.74 82.2761 306.42C83.0228 307.087 83.3961 308.107 83.3961 309.48V316H82.0361ZM78.4161 316.1C77.6294 316.1 76.9428 315.973 76.3561 315.72C75.7828 315.453 75.3428 315.093 75.0361 314.64C74.7294 314.173 74.5761 313.64 74.5761 313.04C74.5761 312.493 74.7028 312 74.9561 311.56C75.2228 311.107 75.6494 310.747 76.2361 310.48C76.8361 310.2 77.6361 310.06 78.6361 310.06H82.2561V311.12H78.6761C77.6628 311.12 76.9561 311.3 76.5561 311.66C76.1694 312.02 75.9761 312.467 75.9761 313C75.9761 313.6 76.2094 314.08 76.6761 314.44C77.1428 314.8 77.7961 314.98 78.6361 314.98C79.4361 314.98 80.1228 314.8 80.6961 314.44C81.2828 314.067 81.7094 313.533 81.9761 312.84L82.2961 313.82C82.0294 314.513 81.5628 315.067 80.8961 315.48C80.2428 315.893 79.4161 316.1 78.4161 316.1ZM94.0763 314.76L93.7563 315.14V305.5H95.1763V315.14L94.7963 314.76H100.656L100.276 315.14V305.5H101.696V316H87.1763V305.5H88.5963V315.14L88.2363 314.76H94.0763ZM116.865 316.12C116.865 316.12 116.839 316.12 116.785 316.12C116.732 316.12 116.679 316.12 116.625 316.12C116.585 316.12 116.552 316.12 116.525 316.12C114.445 316.107 112.825 315.633 111.665 314.7C110.505 313.767 109.925 312.44 109.925 310.72C109.925 309.027 110.505 307.72 111.665 306.8C112.839 305.867 114.485 305.393 116.605 305.38C116.619 305.38 116.645 305.38 116.685 305.38C116.739 305.38 116.785 305.38 116.825 305.38C116.865 305.38 116.892 305.38 116.905 305.38C119.039 305.393 120.699 305.867 121.885 306.8C123.072 307.72 123.665 309.027 123.665 310.72C123.665 312.453 123.065 313.787 121.865 314.72C120.679 315.653 119.012 316.12 116.865 316.12ZM116.845 314.88C118.032 314.88 119.025 314.72 119.825 314.4C120.625 314.067 121.232 313.593 121.645 312.98C122.059 312.367 122.265 311.613 122.265 310.72C122.265 309.853 122.059 309.12 121.645 308.52C121.232 307.907 120.625 307.44 119.825 307.12C119.025 306.8 118.032 306.64 116.845 306.64C116.832 306.64 116.792 306.64 116.725 306.64C116.672 306.64 116.639 306.64 116.625 306.64C115.465 306.64 114.492 306.807 113.705 307.14C112.919 307.46 112.325 307.92 111.925 308.52C111.525 309.12 111.325 309.853 111.325 310.72C111.325 311.6 111.525 312.347 111.925 312.96C112.339 313.573 112.939 314.047 113.725 314.38C114.512 314.7 115.479 314.867 116.625 314.88C116.652 314.88 116.692 314.88 116.745 314.88C116.799 314.88 116.832 314.88 116.845 314.88ZM116.085 319.88V301.16H117.465V319.88H116.085ZM130.988 316.1C129.975 316.1 129.062 315.873 128.248 315.42C127.448 314.953 126.815 314.32 126.348 313.52C125.882 312.707 125.648 311.78 125.648 310.74C125.648 309.687 125.882 308.76 126.348 307.96C126.815 307.16 127.448 306.533 128.248 306.08C129.048 305.627 129.962 305.4 130.988 305.4C132.028 305.4 132.948 305.627 133.748 306.08C134.562 306.533 135.195 307.16 135.648 307.96C136.115 308.76 136.348 309.687 136.348 310.74C136.348 311.78 136.115 312.707 135.648 313.52C135.195 314.32 134.562 314.953 133.748 315.42C132.935 315.873 132.015 316.1 130.988 316.1ZM130.988 314.84C131.748 314.84 132.422 314.673 133.008 314.34C133.595 313.993 134.055 313.513 134.388 312.9C134.735 312.273 134.908 311.553 134.908 310.74C134.908 309.913 134.735 309.193 134.388 308.58C134.055 307.967 133.595 307.493 133.008 307.16C132.422 306.813 131.755 306.64 131.008 306.64C130.262 306.64 129.595 306.813 129.008 307.16C128.422 307.493 127.955 307.967 127.608 308.58C127.262 309.193 127.088 309.913 127.088 310.74C127.088 311.553 127.262 312.273 127.608 312.9C127.955 313.513 128.422 313.993 129.008 314.34C129.595 314.673 130.255 314.84 130.988 314.84ZM139.383 316V305.5H140.803V310.14H147.423V305.5H148.843V316H147.423V311.36H140.803V316H139.383ZM160.079 315.32V306.74H155.019L154.899 309.08C154.873 309.787 154.826 310.48 154.759 311.16C154.706 311.84 154.606 312.467 154.459 313.04C154.326 313.6 154.133 314.06 153.879 314.42C153.626 314.767 153.299 314.967 152.899 315.02L151.479 314.76C151.893 314.773 152.233 314.627 152.499 314.32C152.766 314 152.973 313.567 153.119 313.02C153.266 312.473 153.373 311.853 153.439 311.16C153.506 310.453 153.559 309.733 153.599 309L153.739 305.5H161.499V315.32H160.079ZM151.039 318.54V314.76H163.139V318.54H161.799V316H152.379V318.54H151.039ZM171.141 316V305.5H180.581V316H179.161V306.36L179.521 306.74H172.201L172.561 306.36V316H171.141ZM188.938 316.1C187.924 316.1 187.011 315.873 186.198 315.42C185.398 314.953 184.764 314.32 184.298 313.52C183.831 312.707 183.598 311.78 183.598 310.74C183.598 309.687 183.831 308.76 184.298 307.96C184.764 307.16 185.398 306.533 186.198 306.08C186.998 305.627 187.911 305.4 188.938 305.4C189.978 305.4 190.898 305.627 191.698 306.08C192.511 306.533 193.144 307.16 193.598 307.96C194.064 308.76 194.298 309.687 194.298 310.74C194.298 311.78 194.064 312.707 193.598 313.52C193.144 314.32 192.511 314.953 191.698 315.42C190.884 315.873 189.964 316.1 188.938 316.1ZM188.938 314.84C189.698 314.84 190.371 314.673 190.958 314.34C191.544 313.993 192.004 313.513 192.338 312.9C192.684 312.273 192.858 311.553 192.858 310.74C192.858 309.913 192.684 309.193 192.338 308.58C192.004 307.967 191.544 307.493 190.958 307.16C190.371 306.813 189.704 306.64 188.958 306.64C188.211 306.64 187.544 306.813 186.958 307.16C186.371 307.493 185.904 307.967 185.558 308.58C185.211 309.193 185.038 309.913 185.038 310.74C185.038 311.553 185.211 312.273 185.558 312.9C185.904 313.513 186.371 313.993 186.958 314.34C187.544 314.673 188.204 314.84 188.938 314.84ZM204.474 315.32V306.74H199.414L199.294 309.08C199.267 309.787 199.221 310.48 199.154 311.16C199.101 311.84 199.001 312.467 198.854 313.04C198.721 313.6 198.527 314.06 198.274 314.42C198.021 314.767 197.694 314.967 197.294 315.02L195.874 314.76C196.287 314.773 196.627 314.627 196.894 314.32C197.161 314 197.367 313.567 197.514 313.02C197.661 312.473 197.767 311.853 197.834 311.16C197.901 310.453 197.954 309.733 197.994 309L198.134 305.5H205.894V315.32H204.474ZM195.434 318.54V314.76H207.534V318.54H206.194V316H196.774V318.54H195.434ZM217.501 315.32V306.74H212.441L212.321 309.08C212.295 309.787 212.248 310.48 212.181 311.16C212.128 311.84 212.028 312.467 211.881 313.04C211.748 313.6 211.555 314.06 211.301 314.42C211.048 314.767 210.721 314.967 210.321 315.02L208.901 314.76C209.315 314.773 209.655 314.627 209.921 314.32C210.188 314 210.395 313.567 210.541 313.02C210.688 312.473 210.795 311.853 210.861 311.16C210.928 310.453 210.981 309.733 211.021 309L211.161 305.5H218.921V315.32H217.501ZM208.461 318.54V314.76H220.561V318.54H219.221V316H209.801V318.54H208.461ZM227.829 316.1C226.735 316.1 225.775 315.873 224.949 315.42C224.122 314.953 223.475 314.32 223.009 313.52C222.542 312.707 222.309 311.78 222.309 310.74C222.309 309.7 222.529 308.78 222.969 307.98C223.422 307.18 224.035 306.553 224.809 306.1C225.595 305.633 226.475 305.4 227.449 305.4C228.435 305.4 229.309 305.627 230.069 306.08C230.842 306.52 231.449 307.147 231.889 307.96C232.329 308.76 232.549 309.687 232.549 310.74C232.549 310.807 232.542 310.88 232.529 310.96C232.529 311.027 232.529 311.1 232.529 311.18H223.389V310.12H231.769L231.209 310.54C231.209 309.78 231.042 309.107 230.709 308.52C230.389 307.92 229.949 307.453 229.389 307.12C228.829 306.787 228.182 306.62 227.449 306.62C226.729 306.62 226.082 306.787 225.509 307.12C224.935 307.453 224.489 307.92 224.169 308.52C223.849 309.12 223.689 309.807 223.689 310.58V310.8C223.689 311.6 223.862 312.307 224.209 312.92C224.569 313.52 225.062 313.993 225.689 314.34C226.329 314.673 227.055 314.84 227.869 314.84C228.509 314.84 229.102 314.727 229.649 314.5C230.209 314.273 230.689 313.927 231.089 313.46L231.889 314.38C231.422 314.94 230.835 315.367 230.129 315.66C229.435 315.953 228.669 316.1 227.829 316.1ZM241.112 316.1C240.205 316.1 239.385 315.893 238.652 315.48C237.919 315.053 237.332 314.447 236.892 313.66C236.465 312.86 236.252 311.887 236.252 310.74C236.252 309.593 236.465 308.627 236.892 307.84C237.319 307.04 237.899 306.433 238.632 306.02C239.365 305.607 240.192 305.4 241.112 305.4C242.112 305.4 243.005 305.627 243.792 306.08C244.592 306.52 245.219 307.147 245.672 307.96C246.125 308.76 246.352 309.687 246.352 310.74C246.352 311.807 246.125 312.74 245.672 313.54C245.219 314.34 244.592 314.967 243.792 315.42C243.005 315.873 242.112 316.1 241.112 316.1ZM235.692 319.88V305.5H237.052V308.66L236.912 310.76L237.112 312.88V319.88H235.692ZM241.012 314.84C241.759 314.84 242.425 314.673 243.012 314.34C243.599 313.993 244.065 313.513 244.412 312.9C244.759 312.273 244.932 311.553 244.932 310.74C244.932 309.927 244.759 309.213 244.412 308.6C244.065 307.987 243.599 307.507 243.012 307.16C242.425 306.813 241.759 306.64 241.012 306.64C240.265 306.64 239.592 306.813 238.992 307.16C238.405 307.507 237.939 307.987 237.592 308.6C237.259 309.213 237.092 309.927 237.092 310.74C237.092 311.553 237.259 312.273 237.592 312.9C237.939 313.513 238.405 313.993 238.992 314.34C239.592 314.673 240.265 314.84 241.012 314.84ZM261.492 316L257.892 310.8L259.072 310.1L263.192 316H261.492ZM255.532 311.32V310.1H258.852V311.32H255.532ZM259.212 310.9L257.852 310.7L261.352 305.5H262.892L259.212 310.9ZM249.052 316H247.352L251.472 310.1L252.632 310.8L249.052 316ZM255.972 316H254.552V305.5H255.972V316ZM254.992 311.32H251.692V310.1H254.992V311.32ZM251.352 310.9L247.652 305.5H249.192L252.672 310.7L251.352 310.9ZM273.255 316L268.935 310.8L270.115 310.1L274.935 316H273.255ZM265.555 316V305.5H266.975V316H265.555ZM266.535 311.32V310.1H269.915V311.32H266.535ZM270.235 310.9L268.915 310.7L273.095 305.5H274.635L270.235 310.9ZM277.176 316V305.5H278.596V313.84L285.616 305.5H286.876V316H285.456V307.64L278.456 316H277.176ZM62.02 340V329.5H63.44V334.14H70.06V329.5H71.48V340H70.06V335.36H63.44V340H62.02ZM80.0161 340.1C78.9228 340.1 77.9628 339.873 77.1361 339.42C76.3094 338.953 75.6628 338.32 75.1961 337.52C74.7294 336.707 74.4961 335.78 74.4961 334.74C74.4961 333.7 74.7161 332.78 75.1561 331.98C75.6094 331.18 76.2228 330.553 76.9961 330.1C77.7828 329.633 78.6628 329.4 79.6361 329.4C80.6228 329.4 81.4961 329.627 82.2561 330.08C83.0294 330.52 83.6361 331.147 84.0761 331.96C84.5161 332.76 84.7361 333.687 84.7361 334.74C84.7361 334.807 84.7294 334.88 84.7161 334.96C84.7161 335.027 84.7161 335.1 84.7161 335.18H75.5761V334.12H83.9561L83.3961 334.54C83.3961 333.78 83.2294 333.107 82.8961 332.52C82.5761 331.92 82.1361 331.453 81.5761 331.12C81.0161 330.787 80.3694 330.62 79.6361 330.62C78.9161 330.62 78.2694 330.787 77.6961 331.12C77.1228 331.453 76.6761 331.92 76.3561 332.52C76.0361 333.12 75.8761 333.807 75.8761 334.58V334.8C75.8761 335.6 76.0494 336.307 76.3961 336.92C76.7561 337.52 77.2494 337.993 77.8761 338.34C78.5161 338.673 79.2428 338.84 80.0561 338.84C80.6961 338.84 81.2894 338.727 81.8361 338.5C82.3961 338.273 82.8761 337.927 83.2761 337.46L84.0761 338.38C83.6094 338.94 83.0228 339.367 82.3161 339.66C81.6228 339.953 80.8561 340.1 80.0161 340.1ZM90.4064 340.12C89.6464 340.12 88.8931 340.013 88.1464 339.8C87.3997 339.587 86.7397 339.26 86.1664 338.82L86.6264 337.76C87.1331 338.133 87.7197 338.42 88.3864 338.62C89.0531 338.807 89.7131 338.9 90.3664 338.9C91.0197 338.887 91.5864 338.793 92.0664 338.62C92.5464 338.447 92.9197 338.207 93.1864 337.9C93.4531 337.593 93.5864 337.247 93.5864 336.86C93.5864 336.3 93.3331 335.867 92.8264 335.56C92.3197 335.24 91.6264 335.08 90.7464 335.08H88.9464V334.04H90.6464C91.1664 334.04 91.6264 333.973 92.0264 333.84C92.4264 333.707 92.7331 333.513 92.9464 333.26C93.1731 333.007 93.2864 332.707 93.2864 332.36C93.2864 331.987 93.1531 331.667 92.8864 331.4C92.6331 331.133 92.2797 330.933 91.8264 330.8C91.3731 330.667 90.8597 330.6 90.2864 330.6C89.7664 330.613 89.2264 330.693 88.6664 330.84C88.1064 330.973 87.5531 331.18 87.0064 331.46L86.6064 330.36C87.2197 330.04 87.8264 329.8 88.4264 329.64C89.0397 329.467 89.6531 329.38 90.2664 329.38C91.1064 329.353 91.8597 329.453 92.5264 329.68C93.2064 329.907 93.7464 330.233 94.1464 330.66C94.5464 331.073 94.7464 331.573 94.7464 332.16C94.7464 332.68 94.5864 333.133 94.2664 333.52C93.9464 333.907 93.5197 334.207 92.9864 334.42C92.4531 334.633 91.8464 334.74 91.1664 334.74L91.2264 334.36C92.4264 334.36 93.3597 334.593 94.0264 335.06C94.7064 335.527 95.0464 336.16 95.0464 336.96C95.0464 337.587 94.8397 338.14 94.4264 338.62C94.0131 339.087 93.4531 339.453 92.7464 339.72C92.0531 339.987 91.2731 340.12 90.4064 340.12ZM104.79 340V337.68L104.73 337.3V333.42C104.73 332.527 104.477 331.84 103.97 331.36C103.477 330.88 102.737 330.64 101.75 330.64C101.07 330.64 100.423 330.753 99.81 330.98C99.1967 331.207 98.6767 331.507 98.25 331.88L97.61 330.82C98.1433 330.367 98.7833 330.02 99.53 329.78C100.277 329.527 101.063 329.4 101.89 329.4C103.25 329.4 104.297 329.74 105.03 330.42C105.777 331.087 106.15 332.107 106.15 333.48V340H104.79ZM101.17 340.1C100.383 340.1 99.6967 339.973 99.11 339.72C98.5367 339.453 98.0967 339.093 97.79 338.64C97.4833 338.173 97.33 337.64 97.33 337.04C97.33 336.493 97.4567 336 97.71 335.56C97.9767 335.107 98.4033 334.747 98.99 334.48C99.59 334.2 100.39 334.06 101.39 334.06H105.01V335.12H101.43C100.417 335.12 99.71 335.3 99.31 335.66C98.9233 336.02 98.73 336.467 98.73 337C98.73 337.6 98.9633 338.08 99.43 338.44C99.8967 338.8 100.55 338.98 101.39 338.98C102.19 338.98 102.877 338.8 103.45 338.44C104.037 338.067 104.463 337.533 104.73 336.84L105.05 337.82C104.783 338.513 104.317 339.067 103.65 339.48C102.997 339.893 102.17 340.1 101.17 340.1ZM109.93 340V329.5H114.57C115.757 329.5 116.69 329.727 117.37 330.18C118.063 330.633 118.41 331.3 118.41 332.18C118.41 333.033 118.083 333.693 117.43 334.16C116.777 334.613 115.917 334.84 114.85 334.84L115.13 334.42C116.383 334.42 117.303 334.653 117.89 335.12C118.477 335.587 118.77 336.26 118.77 337.14C118.77 338.047 118.437 338.753 117.77 339.26C117.117 339.753 116.097 340 114.71 340H109.93ZM111.31 338.88H114.65C115.543 338.88 116.217 338.74 116.67 338.46C117.137 338.167 117.37 337.7 117.37 337.06C117.37 336.42 117.163 335.953 116.75 335.66C116.337 335.367 115.683 335.22 114.79 335.22H111.31V338.88ZM111.31 334.16H114.47C115.283 334.16 115.903 334.007 116.33 333.7C116.77 333.393 116.99 332.947 116.99 332.36C116.99 331.773 116.77 331.333 116.33 331.04C115.903 330.747 115.283 330.6 114.47 330.6H111.31V334.16ZM122.098 340V329.5H123.518V337.84L130.538 329.5H131.798V340H130.378V331.64L123.378 340H122.098ZM140.268 340.1C139.228 340.1 138.294 339.873 137.468 339.42C136.654 338.953 136.014 338.32 135.548 337.52C135.081 336.707 134.848 335.78 134.848 334.74C134.848 333.687 135.081 332.76 135.548 331.96C136.014 331.16 136.654 330.533 137.468 330.08C138.294 329.627 139.228 329.4 140.268 329.4C141.161 329.4 141.968 329.573 142.688 329.92C143.408 330.267 143.974 330.787 144.388 331.48L143.328 332.2C142.968 331.667 142.521 331.273 141.988 331.02C141.454 330.767 140.874 330.64 140.248 330.64C139.501 330.64 138.828 330.813 138.228 331.16C137.628 331.493 137.154 331.967 136.808 332.58C136.461 333.193 136.288 333.913 136.288 334.74C136.288 335.567 136.461 336.287 136.808 336.9C137.154 337.513 137.628 337.993 138.228 338.34C138.828 338.673 139.501 338.84 140.248 338.84C140.874 338.84 141.454 338.713 141.988 338.46C142.521 338.207 142.968 337.82 143.328 337.3L144.388 338.02C143.974 338.7 143.408 339.22 142.688 339.58C141.968 339.927 141.161 340.1 140.268 340.1ZM147.137 340V329.5H148.557V337.84L155.577 329.5H156.837V340H155.417V331.64L148.417 340H147.137ZM160.907 340V329.5H162.347L167.107 337.56H166.507L171.347 329.5H172.667V340H171.367V331.12L171.627 331.24L167.107 338.72H166.467L161.907 331.16L162.207 331.1V340H160.907ZM186.948 340V329.5H188.368V340H186.948ZM181.128 333.2C182.448 333.213 183.454 333.507 184.148 334.08C184.841 334.653 185.188 335.48 185.188 336.56C185.188 337.68 184.814 338.54 184.068 339.14C183.321 339.74 182.254 340.033 180.868 340.02L176.708 340V329.5H178.128V333.16L181.128 333.2ZM180.768 338.94C181.754 338.953 182.494 338.76 182.988 338.36C183.494 337.947 183.748 337.347 183.748 336.56C183.748 335.773 183.501 335.2 183.008 334.84C182.514 334.467 181.768 334.273 180.768 334.26L178.128 334.22V338.9L180.768 338.94ZM190.691 340L195.131 334.24L195.111 334.94L190.891 329.5H192.491L195.951 334L195.351 333.98L198.811 329.5H200.371L196.111 335L196.131 334.24L200.611 340H198.991L195.331 335.2L195.891 335.28L192.291 340H190.691ZM215.872 340L211.552 334.8L212.732 334.1L217.552 340H215.872ZM208.172 340V329.5H209.592V340H208.172ZM209.152 335.32V334.1H212.532V335.32H209.152ZM212.852 334.9L211.532 334.7L215.712 329.5H217.252L212.852 334.9ZM219.793 340V329.5H221.213V334.14H227.833V329.5H229.253V340H227.833V335.36H221.213V340H219.793ZM233.29 340V329.5H234.71V337.84L241.73 329.5H242.99V340H241.57V331.64L234.57 340H233.29ZM259.519 340L255.919 334.8L257.099 334.1L261.219 340H259.519ZM253.559 335.32V334.1H256.879V335.32H253.559ZM257.239 334.9L255.879 334.7L259.379 329.5H260.919L257.239 334.9ZM247.079 340H245.379L249.499 334.1L250.659 334.8L247.079 340ZM253.999 340H252.579V329.5H253.999V340ZM253.019 335.32H249.719V334.1H253.019V335.32ZM249.379 334.9L245.679 329.5H247.219L250.699 334.7L249.379 334.9ZM263.583 340V329.5H265.003V334.14H271.623V329.5H273.043V340H271.623V335.36H265.003V340H263.583ZM287.319 340V329.5H288.739V340H287.319ZM281.499 333.2C282.819 333.213 283.825 333.507 284.519 334.08C285.212 334.653 285.559 335.48 285.559 336.56C285.559 337.68 285.185 338.54 284.439 339.14C283.692 339.74 282.625 340.033 281.239 340.02L277.079 340V329.5H278.499V333.16L281.499 333.2ZM281.139 338.94C282.125 338.953 282.865 338.76 283.359 338.36C283.865 337.947 284.119 337.347 284.119 336.56C284.119 335.773 283.872 335.2 283.379 334.84C282.885 334.467 282.139 334.273 281.139 334.26L278.499 334.22V338.9L281.139 338.94ZM291.062 340L295.502 334.24L295.482 334.94L291.262 329.5H292.862L296.322 334L295.722 333.98L299.182 329.5H300.742L296.482 335L296.502 334.24L300.982 340H299.362L295.702 335.2L296.262 335.28L292.662 340H291.062ZM62.02 364V353.5H63.46L68.22 361.56H67.62L72.46 353.5H73.78V364H72.48V355.12L72.74 355.24L68.22 362.72H67.58L63.02 355.16L63.32 355.1V364H62.02ZM84.3408 364V361.68L84.2808 361.3V357.42C84.2808 356.527 84.0274 355.84 83.5208 355.36C83.0274 354.88 82.2874 354.64 81.3008 354.64C80.6208 354.64 79.9741 354.753 79.3608 354.98C78.7474 355.207 78.2274 355.507 77.8008 355.88L77.1608 354.82C77.6941 354.367 78.3341 354.02 79.0808 353.78C79.8274 353.527 80.6141 353.4 81.4408 353.4C82.8008 353.4 83.8474 353.74 84.5808 354.42C85.3274 355.087 85.7008 356.107 85.7008 357.48V364H84.3408ZM80.7208 364.1C79.9341 364.1 79.2474 363.973 78.6608 363.72C78.0874 363.453 77.6474 363.093 77.3408 362.64C77.0341 362.173 76.8808 361.64 76.8808 361.04C76.8808 360.493 77.0074 360 77.2608 359.56C77.5274 359.107 77.9541 358.747 78.5408 358.48C79.1408 358.2 79.9408 358.06 80.9408 358.06H84.5608V359.12H80.9808C79.9674 359.12 79.2608 359.3 78.8608 359.66C78.4741 360.02 78.2808 360.467 78.2808 361C78.2808 361.6 78.5141 362.08 78.9808 362.44C79.4474 362.8 80.1008 362.98 80.9408 362.98C81.7408 362.98 82.4274 362.8 83.0008 362.44C83.5874 362.067 84.0141 361.533 84.2808 360.84L84.6008 361.82C84.3341 362.513 83.8674 363.067 83.2008 363.48C82.5474 363.893 81.7208 364.1 80.7208 364.1ZM89.4809 364V353.5H96.9209V354.74H90.5409L90.9009 354.38V364H89.4809ZM105.493 364V361.68L105.433 361.3V357.42C105.433 356.527 105.18 355.84 104.673 355.36C104.18 354.88 103.44 354.64 102.453 354.64C101.773 354.64 101.126 354.753 100.513 354.98C99.8998 355.207 99.3798 355.507 98.9531 355.88L98.3131 354.82C98.8465 354.367 99.4865 354.02 100.233 353.78C100.98 353.527 101.766 353.4 102.593 353.4C103.953 353.4 105 353.74 105.733 354.42C106.48 355.087 106.853 356.107 106.853 357.48V364H105.493ZM101.873 364.1C101.086 364.1 100.4 363.973 99.8131 363.72C99.2398 363.453 98.7998 363.093 98.4931 362.64C98.1865 362.173 98.0331 361.64 98.0331 361.04C98.0331 360.493 98.1598 360 98.4131 359.56C98.6798 359.107 99.1065 358.747 99.6931 358.48C100.293 358.2 101.093 358.06 102.093 358.06H105.713V359.12H102.133C101.12 359.12 100.413 359.3 100.013 359.66C99.6265 360.02 99.4331 360.467 99.4331 361C99.4331 361.6 99.6665 362.08 100.133 362.44C100.6 362.8 101.253 362.98 102.093 362.98C102.893 362.98 103.58 362.8 104.153 362.44C104.74 362.067 105.166 361.533 105.433 360.84L105.753 361.82C105.486 362.513 105.02 363.067 104.353 363.48C103.7 363.893 102.873 364.1 101.873 364.1ZM113.238 364.12C112.478 364.12 111.725 364.013 110.978 363.8C110.232 363.587 109.572 363.26 108.998 362.82L109.458 361.76C109.965 362.133 110.552 362.42 111.218 362.62C111.885 362.807 112.545 362.9 113.198 362.9C113.852 362.887 114.418 362.793 114.898 362.62C115.378 362.447 115.752 362.207 116.018 361.9C116.285 361.593 116.418 361.247 116.418 360.86C116.418 360.3 116.165 359.867 115.658 359.56C115.152 359.24 114.458 359.08 113.578 359.08H111.778V358.04H113.478C113.998 358.04 114.458 357.973 114.858 357.84C115.258 357.707 115.565 357.513 115.778 357.26C116.005 357.007 116.118 356.707 116.118 356.36C116.118 355.987 115.985 355.667 115.718 355.4C115.465 355.133 115.112 354.933 114.658 354.8C114.205 354.667 113.692 354.6 113.118 354.6C112.598 354.613 112.058 354.693 111.498 354.84C110.938 354.973 110.385 355.18 109.838 355.46L109.438 354.36C110.052 354.04 110.658 353.8 111.258 353.64C111.872 353.467 112.485 353.38 113.098 353.38C113.938 353.353 114.692 353.453 115.358 353.68C116.038 353.907 116.578 354.233 116.978 354.66C117.378 355.073 117.578 355.573 117.578 356.16C117.578 356.68 117.418 357.133 117.098 357.52C116.778 357.907 116.352 358.207 115.818 358.42C115.285 358.633 114.678 358.74 113.998 358.74L114.058 358.36C115.258 358.36 116.192 358.593 116.858 359.06C117.538 359.527 117.878 360.16 117.878 360.96C117.878 361.587 117.672 362.14 117.258 362.62C116.845 363.087 116.285 363.453 115.578 363.72C114.885 363.987 114.105 364.12 113.238 364.12ZM121.102 364V353.5H122.522V361.84L129.542 353.5H130.802V364H129.382V355.64L122.382 364H121.102ZM134.872 364V353.5H136.292V358.14H142.912V353.5H144.332V364H142.912V359.36H136.292V364H134.872ZM152.688 364.1C151.674 364.1 150.761 363.873 149.948 363.42C149.148 362.953 148.514 362.32 148.048 361.52C147.581 360.707 147.348 359.78 147.348 358.74C147.348 357.687 147.581 356.76 148.048 355.96C148.514 355.16 149.148 354.533 149.948 354.08C150.748 353.627 151.661 353.4 152.688 353.4C153.728 353.4 154.648 353.627 155.448 354.08C156.261 354.533 156.894 355.16 157.348 355.96C157.814 356.76 158.048 357.687 158.048 358.74C158.048 359.78 157.814 360.707 157.348 361.52C156.894 362.32 156.261 362.953 155.448 363.42C154.634 363.873 153.714 364.1 152.688 364.1ZM152.688 362.84C153.448 362.84 154.121 362.673 154.708 362.34C155.294 361.993 155.754 361.513 156.088 360.9C156.434 360.273 156.608 359.553 156.608 358.74C156.608 357.913 156.434 357.193 156.088 356.58C155.754 355.967 155.294 355.493 154.708 355.16C154.121 354.813 153.454 354.64 152.708 354.64C151.961 354.64 151.294 354.813 150.708 355.16C150.121 355.493 149.654 355.967 149.308 356.58C148.961 357.193 148.788 357.913 148.788 358.74C148.788 359.553 148.961 360.273 149.308 360.9C149.654 361.513 150.121 361.993 150.708 362.34C151.294 362.673 151.954 362.84 152.688 362.84ZM161.083 364V353.5H165.723C166.909 353.5 167.843 353.727 168.523 354.18C169.216 354.633 169.563 355.3 169.563 356.18C169.563 357.033 169.236 357.693 168.583 358.16C167.929 358.613 167.069 358.84 166.003 358.84L166.283 358.42C167.536 358.42 168.456 358.653 169.043 359.12C169.629 359.587 169.923 360.26 169.923 361.14C169.923 362.047 169.589 362.753 168.923 363.26C168.269 363.753 167.249 364 165.863 364H161.083ZM162.463 362.88H165.803C166.696 362.88 167.369 362.74 167.823 362.46C168.289 362.167 168.523 361.7 168.523 361.06C168.523 360.42 168.316 359.953 167.903 359.66C167.489 359.367 166.836 359.22 165.943 359.22H162.463V362.88ZM162.463 358.16H165.623C166.436 358.16 167.056 358.007 167.483 357.7C167.923 357.393 168.143 356.947 168.143 356.36C168.143 355.773 167.923 355.333 167.483 355.04C167.056 354.747 166.436 354.6 165.623 354.6H162.463V358.16ZM173.35 364.1C173.057 364.1 172.804 363.993 172.59 363.78C172.39 363.567 172.29 363.307 172.29 363C172.29 362.68 172.39 362.42 172.59 362.22C172.804 362.02 173.057 361.92 173.35 361.92C173.644 361.92 173.89 362.02 174.09 362.22C174.304 362.42 174.41 362.68 174.41 363C174.41 363.307 174.304 363.567 174.09 363.78C173.89 363.993 173.644 364.1 173.35 364.1Z" fill="black"/>
<path d="M249.18 122.101C249.18 165.236 214.218 200.202 171.09 200.202C127.963 200.202 93 165.236 93 122.101C93 78.9665 127.963 44 171.09 44C214.218 44 249.18 78.9665 249.18 122.101Z" fill="#ECE9E2" stroke="#EFB11D" stroke-width="10"/>
<path d="M104.791 129.812V110.902H108.789V126.515H116.896V129.812H104.791ZM125.877 130.089C124.443 130.089 123.203 129.784 122.156 129.174C121.116 128.559 120.313 127.703 119.746 126.608C119.18 125.506 118.897 124.229 118.897 122.776C118.897 121.311 119.18 120.031 119.746 118.935C120.313 117.833 121.116 116.978 122.156 116.368C123.203 115.753 124.443 115.445 125.877 115.445C127.311 115.445 128.549 115.753 129.589 116.368C130.635 116.978 131.442 117.833 132.008 118.935C132.574 120.031 132.857 121.311 132.857 122.776C132.857 124.229 132.574 125.506 132.008 126.608C131.442 127.703 130.635 128.559 129.589 129.174C128.549 129.784 127.311 130.089 125.877 130.089ZM125.896 127.042C126.548 127.042 127.093 126.857 127.53 126.488C127.967 126.112 128.296 125.601 128.518 124.955C128.746 124.309 128.859 123.573 128.859 122.748C128.859 121.924 128.746 121.188 128.518 120.542C128.296 119.895 127.967 119.384 127.53 119.009C127.093 118.633 126.548 118.446 125.896 118.446C125.237 118.446 124.683 118.633 124.234 119.009C123.791 119.384 123.455 119.895 123.227 120.542C123.006 121.188 122.895 121.924 122.895 122.748C122.895 123.573 123.006 124.309 123.227 124.955C123.455 125.601 123.791 126.112 124.234 126.488C124.683 126.857 125.237 127.042 125.896 127.042ZM141.822 130.089C140.388 130.089 139.148 129.784 138.102 129.174C137.061 128.559 136.258 127.703 135.692 126.608C135.126 125.506 134.842 124.229 134.842 122.776C134.842 121.311 135.126 120.031 135.692 118.935C136.258 117.833 137.061 116.978 138.102 116.368C139.148 115.753 140.388 115.445 141.822 115.445C143.257 115.445 144.494 115.753 145.534 116.368C146.581 116.978 147.387 117.833 147.953 118.935C148.519 120.031 148.803 121.311 148.803 122.776C148.803 124.229 148.519 125.506 147.953 126.608C147.387 127.703 146.581 128.559 145.534 129.174C144.494 129.784 143.257 130.089 141.822 130.089ZM141.841 127.042C142.493 127.042 143.038 126.857 143.475 126.488C143.912 126.112 144.242 125.601 144.463 124.955C144.691 124.309 144.805 123.573 144.805 122.748C144.805 121.924 144.691 121.188 144.463 120.542C144.242 119.895 143.912 119.384 143.475 119.009C143.038 118.633 142.493 118.446 141.841 118.446C141.182 118.446 140.628 118.633 140.179 119.009C139.736 119.384 139.4 119.895 139.173 120.542C138.951 121.188 138.84 121.924 138.84 122.748C138.84 123.573 138.951 124.309 139.173 124.955C139.4 125.601 139.736 126.112 140.179 126.488C140.628 126.857 141.182 127.042 141.841 127.042ZM158.903 115.63V118.584H150.363V115.63H158.903ZM152.302 112.232H156.235V125.454C156.235 125.817 156.291 126.1 156.401 126.303C156.512 126.5 156.666 126.638 156.863 126.718C157.066 126.799 157.3 126.839 157.565 126.839C157.749 126.839 157.934 126.823 158.119 126.792C158.303 126.755 158.445 126.728 158.543 126.709L159.162 129.636C158.965 129.698 158.688 129.768 158.331 129.848C157.974 129.935 157.54 129.987 157.029 130.005C156.081 130.042 155.25 129.916 154.536 129.627C153.828 129.338 153.278 128.888 152.884 128.279C152.49 127.669 152.296 126.9 152.302 125.971V112.232ZM161.844 129.812V110.902H165.777V118.012H165.897C166.07 117.63 166.319 117.242 166.645 116.848C166.978 116.448 167.409 116.116 167.938 115.851C168.473 115.58 169.138 115.445 169.932 115.445C170.966 115.445 171.92 115.716 172.794 116.258C173.668 116.793 174.367 117.602 174.89 118.686C175.414 119.763 175.675 121.114 175.675 122.739C175.675 124.321 175.42 125.657 174.909 126.746C174.404 127.83 173.715 128.651 172.841 129.211C171.973 129.765 171 130.042 169.923 130.042C169.16 130.042 168.51 129.916 167.975 129.664C167.445 129.411 167.012 129.094 166.673 128.713C166.334 128.325 166.076 127.934 165.897 127.54H165.722V129.812H161.844ZM165.694 122.721C165.694 123.564 165.811 124.299 166.045 124.927C166.279 125.555 166.618 126.044 167.061 126.395C167.504 126.74 168.043 126.912 168.677 126.912C169.317 126.912 169.858 126.737 170.302 126.386C170.745 126.029 171.08 125.537 171.308 124.909C171.542 124.275 171.659 123.545 171.659 122.721C171.659 121.902 171.545 121.182 171.317 120.56C171.089 119.938 170.754 119.452 170.311 119.101C169.868 118.75 169.323 118.575 168.677 118.575C168.036 118.575 167.495 118.744 167.052 119.083C166.615 119.421 166.279 119.901 166.045 120.523C165.811 121.145 165.694 121.877 165.694 122.721ZM184.707 130.089C183.273 130.089 182.033 129.784 180.986 129.174C179.946 128.559 179.143 127.703 178.577 126.608C178.01 125.506 177.727 124.229 177.727 122.776C177.727 121.311 178.01 120.031 178.577 118.935C179.143 117.833 179.946 116.978 180.986 116.368C182.033 115.753 183.273 115.445 184.707 115.445C186.141 115.445 187.379 115.753 188.419 116.368C189.465 116.978 190.272 117.833 190.838 118.935C191.404 120.031 191.687 121.311 191.687 122.776C191.687 124.229 191.404 125.506 190.838 126.608C190.272 127.703 189.465 128.559 188.419 129.174C187.379 129.784 186.141 130.089 184.707 130.089ZM184.726 127.042C185.378 127.042 185.923 126.857 186.36 126.488C186.797 126.112 187.126 125.601 187.348 124.955C187.576 124.309 187.689 123.573 187.689 122.748C187.689 121.924 187.576 121.188 187.348 120.542C187.126 119.895 186.797 119.384 186.36 119.009C185.923 118.633 185.378 118.446 184.726 118.446C184.067 118.446 183.513 118.633 183.064 119.009C182.621 119.384 182.285 119.895 182.057 120.542C181.836 121.188 181.725 121.924 181.725 122.748C181.725 123.573 181.836 124.309 182.057 124.955C182.285 125.601 182.621 126.112 183.064 126.488C183.513 126.857 184.067 127.042 184.726 127.042ZM200.653 130.089C199.218 130.089 197.978 129.784 196.932 129.174C195.891 128.559 195.088 127.703 194.522 126.608C193.956 125.506 193.672 124.229 193.672 122.776C193.672 121.311 193.956 120.031 194.522 118.935C195.088 117.833 195.891 116.978 196.932 116.368C197.978 115.753 199.218 115.445 200.653 115.445C202.087 115.445 203.324 115.753 204.364 116.368C205.411 116.978 206.217 117.833 206.783 118.935C207.35 120.031 207.633 121.311 207.633 122.776C207.633 124.229 207.35 125.506 206.783 126.608C206.217 127.703 205.411 128.559 204.364 129.174C203.324 129.784 202.087 130.089 200.653 130.089ZM200.671 127.042C201.323 127.042 201.868 126.857 202.305 126.488C202.742 126.112 203.072 125.601 203.293 124.955C203.521 124.309 203.635 123.573 203.635 122.748C203.635 121.924 203.521 121.188 203.293 120.542C203.072 119.895 202.742 119.384 202.305 119.009C201.868 118.633 201.323 118.446 200.671 118.446C200.012 118.446 199.458 118.633 199.009 119.009C198.566 119.384 198.23 119.895 198.003 120.542C197.781 121.188 197.67 121.924 197.67 122.748C197.67 123.573 197.781 124.309 198.003 124.955C198.23 125.601 198.566 126.112 199.009 126.488C199.458 126.857 200.012 127.042 200.671 127.042ZM213.754 125.731L213.763 121.013H214.336L218.878 115.63H223.393L217.29 122.758H216.358L213.754 125.731ZM210.19 129.812V110.902H214.123V129.812H210.19ZM219.054 129.812L214.881 123.635L217.503 120.856L223.661 129.812H219.054ZM237.123 119.674L233.522 119.895C233.46 119.588 233.328 119.311 233.125 119.064C232.922 118.812 232.654 118.612 232.322 118.464C231.995 118.31 231.605 118.233 231.149 118.233C230.54 118.233 230.026 118.363 229.607 118.621C229.189 118.874 228.979 119.212 228.979 119.637C228.979 119.975 229.115 120.262 229.386 120.495C229.656 120.729 230.121 120.917 230.78 121.059L233.346 121.576C234.725 121.859 235.753 122.314 236.43 122.942C237.107 123.57 237.446 124.395 237.446 125.417C237.446 126.346 237.172 127.162 236.624 127.863C236.082 128.565 235.338 129.113 234.39 129.507C233.448 129.895 232.362 130.089 231.131 130.089C229.253 130.089 227.757 129.698 226.643 128.916C225.535 128.128 224.886 127.057 224.695 125.703L228.564 125.5C228.681 126.072 228.964 126.509 229.413 126.811C229.863 127.106 230.438 127.254 231.14 127.254C231.829 127.254 232.383 127.122 232.802 126.857C233.226 126.586 233.442 126.238 233.448 125.814C233.442 125.457 233.291 125.164 232.996 124.937C232.7 124.703 232.245 124.524 231.629 124.401L229.173 123.912C227.788 123.635 226.757 123.155 226.08 122.471C225.409 121.788 225.074 120.917 225.074 119.858C225.074 118.947 225.32 118.163 225.812 117.504C226.311 116.845 227.01 116.338 227.908 115.981C228.813 115.624 229.872 115.445 231.084 115.445C232.876 115.445 234.285 115.824 235.313 116.581C236.347 117.338 236.95 118.369 237.123 119.674Z" fill="#D6535D"/>
<path d="M38.118 243.276C36.9987 243.276 35.887 243.13 34.783 242.839C33.679 242.532 32.7437 242.103 31.977 241.551L33.426 238.699C34.0393 239.144 34.7523 239.496 35.565 239.757C36.3777 240.018 37.198 240.148 38.026 240.148C38.9613 240.148 39.6973 239.964 40.234 239.596C40.7707 239.228 41.039 238.722 41.039 238.078C41.039 237.465 40.8013 236.982 40.326 236.629C39.8507 236.276 39.084 236.1 38.026 236.1H36.324V233.639L40.809 228.556L41.223 229.89H32.782V226.9H44.052V229.315L39.59 234.398L37.704 233.317H38.785C40.763 233.317 42.258 233.762 43.27 234.651C44.282 235.54 44.788 236.683 44.788 238.078C44.788 238.983 44.5503 239.834 44.075 240.631C43.5997 241.413 42.8713 242.049 41.89 242.54C40.9087 243.031 39.6513 243.276 38.118 243.276ZM48.6243 243.184C48.011 243.184 47.482 242.977 47.0373 242.563C46.608 242.134 46.3933 241.589 46.3933 240.93C46.3933 240.271 46.608 239.742 47.0373 239.343C47.482 238.929 48.011 238.722 48.6243 238.722C49.253 238.722 49.782 238.929 50.2113 239.343C50.6407 239.742 50.8553 240.271 50.8553 240.93C50.8553 241.589 50.6407 242.134 50.2113 242.563C49.782 242.977 49.253 243.184 48.6243 243.184Z" fill="black"/>
</g>
<defs>
<clipPath id="clip0_2003_46">
<rect width="355" height="376" fill="white"/>
</clipPath>
</defs>
</svg>
