<svg width="145" height="204" viewBox="0 0 145 204" fill="none" xmlns="http://www.w3.org/2000/svg">
<g clip-path="url(#clip0_99_146)">
<path d="M91.2871 160.564H53.4792V177.009H91.2871V160.564Z" fill="#BF8C23"/>
<path d="M33.9793 105.942C30.4524 109.504 27.3742 115.325 25.2216 119.848C24.7658 120.816 24.3381 121.812 24.2048 122.871C23.8893 125.381 25.3267 129.589 29.4848 130.325V145.809C23.714 143.958 18.4692 141.02 13.9535 136.987C9.43091 132.955 6.26156 127.029 6.77343 120.991C7.06792 117.506 8.5334 114.238 10.076 111.103C12.9649 105.255 16.2604 99.5321 20.6779 94.7284L28.8817 101.699L33.9793 105.935V105.942Z" fill="#F7C5B4"/>
<path d="M112.975 112.008H32.2684C30.731 112.008 29.4847 113.254 29.4847 114.792V165.908C29.4847 167.445 30.731 168.692 32.2684 168.692H112.975C114.512 168.692 115.758 167.445 115.758 165.908V114.792C115.758 113.254 114.512 112.008 112.975 112.008Z" fill="#EFE2BA"/>
<path d="M50.9831 194.8C64.8104 181.287 87.4657 165.929 103.635 155.333C108.627 152.065 113.655 148.776 119.166 146.497C124.208 144.414 129.039 141.209 134.466 141.777C141.281 142.492 145.748 150.199 144.893 156.995C144.037 163.79 139.227 169.477 133.793 173.65C126.963 178.903 118.97 182.395 110.906 185.424C95.6905 191.147 71.065 198.117 55.0359 200.824L50.9761 194.793L50.9831 194.8Z" fill="#E9B13D"/>
<path d="M54.8396 200.53C47.4351 203.559 37.5414 204.394 29.6671 202.984C28.1315 202.711 26.5609 202.325 25.3338 201.364C24.1067 200.404 23.3354 198.707 23.8613 197.248C24.5204 195.425 26.7362 194.772 28.6644 194.541C36.1811 193.622 44.0694 193.945 51.4739 195.53L54.8396 200.53Z" fill="#D6535D"/>
<path d="M94.6177 192.851C80.58 179.548 57.7004 164.547 41.3629 154.204C36.3213 151.013 31.2448 147.801 25.6984 145.606C20.6218 143.6 15.7416 140.473 10.3285 141.125C3.52699 141.945 -0.820347 149.715 0.140274 156.504C1.1009 163.285 5.99516 168.895 11.4924 172.991C18.3991 178.131 26.4487 181.504 34.5544 184.415C49.8542 189.899 74.5849 196.498 90.656 198.952L94.6247 192.858L94.6177 192.851Z" fill="#E9B13D"/>
<path d="M90.8453 198.643C98.2989 201.561 108.2 202.234 116.053 200.712C117.581 200.418 119.152 200.011 120.358 199.022C121.564 198.04 122.321 196.336 121.76 194.878C121.073 193.068 118.844 192.451 116.915 192.248C109.385 191.448 101.503 191.89 94.1199 193.587L90.8313 198.636L90.8453 198.643Z" fill="#D6535D"/>
<path d="M104.603 112.008L107.393 104.63C108.2 105.255 109.833 106.257 110.443 107.078C115.66 101.79 123.002 96.6429 128.211 91.3552C99.512 50.4007 51.7614 62.4837 40.2059 69.805C31.1537 75.5415 23.076 82.9469 17.0038 91.3552C22.2206 96.6429 29.562 101.79 34.7718 107.078C35.3818 106.264 37.0156 105.255 37.8219 104.63L40.6126 112.008" fill="#D6535D"/>
<path d="M80.5309 47.3221C80.9095 50.3446 81.2882 53.3741 81.6668 56.3966C81.8071 57.5046 81.9683 59.3981 82.4872 60.3869C83.3216 61.9718 90.8313 64.2299 92.1916 64.9873C92.1916 64.9873 86.1754 70.0364 72.2079 70.5905C58.2403 71.1445 53.4792 64.6436 53.4792 64.6436C54.8325 63.8863 61.8303 61.4248 62.6648 59.8399C63.1836 58.8511 63.3449 56.9576 63.4851 55.8496C63.8638 52.8271 64.2424 49.7976 64.6211 46.7751" fill="#F7C5B4"/>
<path d="M88.2019 16.3608C89.3869 22.7634 87.7041 35.6459 86.3297 40.7371C85.7688 42.8059 85.1728 44.9448 83.8405 46.6278C77.2564 54.9239 68.4846 52.3012 65.5957 50.4007C63.3309 48.914 61.5289 46.8663 60.4841 44.3697C57.8196 37.9881 56.7258 30.9613 57.3288 24.0748C57.3288 24.0748 56.5645 6.10109 74.9425 6.10109C74.9425 6.10109 86.2246 5.6663 88.2019 16.3608Z" fill="#F7C5B4"/>
<path d="M58.1983 35.1504C57.7287 35.9499 56.6302 35.9302 55.9845 35.3182C55.3304 34.7062 55.0453 33.7192 54.886 32.7519C54.7266 31.8142 54.6679 30.8567 54.7015 29.8993C54.7266 29.2182 54.8189 28.4878 55.1962 27.9647C55.5736 27.4415 56.2193 27.2244 56.7727 27.4218C57.3262 27.6192 57.7622 28.2312 57.8293 28.9122L58.1983 35.1405V35.1504Z" fill="#F7C5B4"/>
<path d="M87.5285 27.6399C87.7417 26.9342 88.11 26.2498 88.7496 26.0253C89.3892 25.8114 90.1355 26.0466 90.5716 26.6134C91.0077 27.1801 91.1143 27.9607 91.1434 28.7092C91.1821 29.7464 91.1143 30.7837 90.9302 31.7995C90.746 32.8367 90.4068 33.9167 89.6606 34.5797C88.9047 35.2427 87.6448 35.264 87.1021 34.3979C87.1021 34.3979 86.5497 30.9441 87.5285 27.6506V27.6399Z" fill="#F7C5B4"/>
<path d="M62.7209 13.3242C63.4431 15.7156 63.3029 18.3243 62.5386 20.7017C61.7743 23.079 60.414 25.2389 58.7592 27.1113C58.3034 27.6303 57.5952 28.1703 56.9922 27.8336C56.6907 27.6653 56.5364 27.3287 56.4102 27.0132C54.8957 23.1632 55.3514 18.5908 57.6022 15.1195C57.5742 12.2162 58.4016 9.06049 60.3789 6.94263C62.3633 4.82478 65.175 3.50638 68.0709 3.34509C69.1507 3.28197 70.2446 3.37314 71.2893 3.12068C72.3832 2.85419 73.3438 2.23707 74.3395 1.71111C75.9031 0.883608 77.6 0.266485 79.367 0.0701278C81.9473 -0.217395 84.6259 0.427779 86.7645 1.89345C88.9031 3.36613 90.4737 5.65229 91.0277 8.18389C91.3432 9.62151 91.3432 11.1082 91.1889 12.5739C91.0347 14.0886 90.6981 15.6104 89.9128 16.9148C88.9381 18.5277 87.2974 19.6918 85.4953 20.2248C83.4338 20.8419 81.141 20.6526 79.2057 19.7129C77.8454 19.0537 76.6324 18.0298 75.1529 17.7072C74.3114 17.5249 73.435 17.581 72.5725 17.574C69.7467 17.5389 66.935 16.7395 64.5159 15.2808C63.7586 14.825 62.9803 14.2219 62.777 13.3593" fill="#3C3C3B"/>
<g style="mix-blend-mode:multiply">
<path d="M80.7904 49.6293C80.7904 49.6293 78.3643 51.9646 73.2247 52.3783C68.092 52.7921 64.7894 49.8537 64.2635 49.3558C64.2635 49.3558 65.3223 55.0151 72.7268 55.0712C79.8719 55.1203 80.7904 49.6293 80.7904 49.6293Z" fill="#F7C5B4"/>
</g>
<path d="M60.9049 28.2895C60.9049 28.2895 61.3887 28.1142 62.174 27.9459C62.9453 27.7775 64.0041 27.6724 65.0629 27.7004C66.1217 27.7425 67.1664 27.9248 67.9307 28.1492C68.695 28.3666 69.1718 28.584 69.1718 28.584C69.263 28.6261 69.305 28.7313 69.263 28.8224C69.2279 28.9066 69.1368 28.9487 69.0526 28.9276C69.0526 28.9276 68.9264 28.8926 68.709 28.8365C68.4917 28.7734 68.1832 28.7032 67.8115 28.6261C67.0613 28.4648 66.0586 28.3175 65.0419 28.2825C64.0251 28.2334 63.0084 28.3105 62.2511 28.4087C61.8725 28.4578 61.564 28.5069 61.3396 28.549C61.1152 28.591 60.989 28.6121 60.989 28.6121C60.8979 28.6261 60.8137 28.57 60.7927 28.4788C60.7787 28.3947 60.8277 28.3175 60.8979 28.2895H60.9049Z" fill="#3C3C3B"/>
<path d="M66.4793 29.5658C66.4793 30.3723 65.8272 31.0315 65.0138 31.0315C64.2004 31.0315 63.5483 30.3793 63.5483 29.5658C63.5483 28.7523 64.2004 28.1001 65.0138 28.1001C65.8272 28.1001 66.4793 28.7523 66.4793 29.5658Z" fill="#3C3C3B"/>
<path d="M84.2472 28.4438C84.2472 28.4438 84.121 28.4227 83.8966 28.3947C83.6722 28.3596 83.3637 28.3245 82.978 28.2895C82.2137 28.2123 81.197 28.1773 80.1873 28.2614C79.1706 28.3316 78.1749 28.5209 77.4317 28.7032C77.06 28.7944 76.7515 28.8785 76.5412 28.9487C76.3238 29.0118 76.2046 29.0469 76.2046 29.0469C76.1064 29.0749 76.0083 29.0188 75.9802 28.9206C75.9522 28.8365 75.9942 28.7453 76.0784 28.7032C76.0784 28.7032 76.5482 28.4718 77.3054 28.2264C78.0557 27.9739 79.1005 27.7565 80.1523 27.6794C81.211 27.6092 82.2698 27.6794 83.0481 27.8196C83.8335 27.9529 84.3243 28.1142 84.3243 28.1142H84.3313C84.4154 28.1422 84.4645 28.2404 84.4365 28.3245C84.4084 28.4017 84.3313 28.4508 84.2542 28.4367L84.2472 28.4438Z" fill="#3C3C3B"/>
<path d="M75.9266 30.7845C75.9266 30.7845 76.0528 30.8052 76.2773 30.8327C76.5017 30.8673 76.8103 30.9016 77.1961 30.9358C77.9605 31.0112 78.9773 31.0438 79.9868 30.9573C81.0034 30.8849 81.9986 30.6932 82.7414 30.5091C83.1128 30.4171 83.4212 30.3322 83.6314 30.2616C83.8486 30.198 83.9677 30.1626 83.9677 30.1626C84.0658 30.1344 84.1641 30.1902 84.1924 30.2884C84.2206 30.3724 84.1788 30.4637 84.0947 30.506C84.0947 30.506 83.6255 30.7385 82.8688 30.9857C82.1191 31.2399 81.0748 31.4597 80.0232 31.5393C78.9646 31.6119 77.9057 31.5443 77.127 31.4058C76.3414 31.2744 75.8502 31.1142 75.8502 31.1142L75.8432 31.1143C75.759 31.0864 75.7097 30.9883 75.7375 30.9041C75.7654 30.8269 75.8424 30.7777 75.9196 30.7915L75.9266 30.7845Z" fill="#3C3C3B"/>
<path d="M60.5999 30.0558C60.5999 30.0558 60.7222 30.0928 60.9408 30.1498C61.1586 30.2135 61.4597 30.2886 61.8372 30.3742C62.5843 30.5511 63.587 30.7228 64.5982 30.7811C65.6145 30.8536 66.6255 30.8108 67.3854 30.7403C67.7654 30.705 68.082 30.6678 68.2994 30.6303C68.523 30.6005 68.6456 30.5837 68.6456 30.5837C68.7465 30.5706 68.8365 30.6369 68.8515 30.7332C68.8684 30.8164 68.8149 30.8966 68.7261 30.9248C68.7261 30.9248 68.2307 31.0789 67.4486 31.207C66.6726 31.3427 65.6094 31.4052 64.5574 31.3345C63.4995 31.2563 62.4596 31.0459 61.7068 30.8076C60.9461 30.5749 60.4807 30.356 60.4807 30.356L60.4738 30.355C60.3941 30.3171 60.3582 30.2179 60.3969 30.1424C60.4347 30.0735 60.5174 30.0377 60.592 30.0614L60.5999 30.0558Z" fill="#3C3C3B"/>
<path d="M78.75 29.5377C78.75 30.3442 79.4021 31.0034 80.2155 31.0034C81.0288 31.0034 81.6809 30.3512 81.6809 29.5377C81.6809 28.7243 81.0288 28.0721 80.2155 28.0721C79.4021 28.0721 78.75 28.7243 78.75 29.5377Z" fill="#3C3C3B"/>
<path d="M70.1114 26.5854C70.3778 25.6667 70.2797 24.6428 69.7959 23.8153C69.6486 24.1099 69.2209 24.215 68.9544 24.0257C68.8423 23.9486 68.7581 23.8223 68.6249 23.7803C68.5197 23.7452 68.4075 23.7662 68.2953 23.7803C67.8115 23.8293 67.3347 23.654 66.8579 23.5348C64.7824 23.0159 62.4545 23.6821 60.975 25.2319C61.4868 25.6246 62.2091 25.4563 62.8471 25.4002C65.3433 25.1758 67.3137 26.8799 69.8169 26.7256C69.8169 26.7256 70.0693 26.7116 70.1044 26.5854H70.1114Z" fill="#3C3C3B"/>
<path d="M75.6788 26.4732C75.4334 25.5475 75.5596 24.5236 76.0644 23.7101C76.2047 24.0047 76.6254 24.1239 76.8989 23.9416C77.011 23.8644 77.1022 23.7452 77.2284 23.7031C77.3336 23.6681 77.4458 23.7031 77.558 23.7101C78.0418 23.7733 78.5256 23.6049 79.0024 23.4998C81.0919 23.0299 83.3988 23.7522 84.8433 25.3301C84.3244 25.7088 83.6092 25.5264 82.9641 25.4563C80.4749 25.1758 78.4625 26.8238 75.9593 26.6204C75.9593 26.6204 75.7068 26.5994 75.6718 26.4732H75.6788Z" fill="#3C3C3B"/>
<path d="M76.7404 38.9636C76.7404 38.9636 76.7094 39.0467 76.6464 39.2031C76.5789 39.3649 76.4773 39.5803 76.3132 39.8173C75.9959 40.3001 75.4176 40.8607 74.6936 41.1776C74.3414 41.335 73.9479 41.432 73.594 41.4798C73.2302 41.5287 72.8887 41.5054 72.6008 41.4714C72.3129 41.4374 72.08 41.3576 71.9247 41.3044C71.764 41.2468 71.6754 41.2114 71.6754 41.2114C71.5967 41.175 71.562 41.0839 71.5941 41.0107C71.6261 40.9374 71.7029 40.9092 71.7751 40.9314C71.7751 40.9314 72.1163 41.0445 72.6429 41.0729C72.9045 41.0948 73.2113 41.0719 73.5356 41.0272C73.8643 40.9771 74.1888 40.8875 74.5124 40.7431C75.1519 40.4752 75.6839 39.9944 76.0195 39.5894C76.1824 39.3874 76.3069 39.1995 76.3874 39.0663C76.4679 38.933 76.5087 38.8488 76.5087 38.8488C76.5418 38.7854 76.623 38.7518 76.6864 38.7849C76.7498 38.818 76.7769 38.8849 76.7591 38.9517L76.7547 38.9571L76.7404 38.9636Z" fill="#DA806C"/>
<path d="M86.6453 18.2472C86.2386 21.0734 86.7645 24.0257 88.1108 26.5433C88.265 26.8378 88.4824 27.1604 88.812 27.2095C89.0924 27.2516 89.3729 27.0623 89.5202 26.8238C89.6744 26.5854 89.7235 26.2908 89.7726 26.0103C90.2915 23.1211 90.7893 20.0214 89.6113 17.3285C89.5272 17.1322 89.422 16.9288 89.2607 16.7886C89.0714 16.6273 88.812 16.5712 88.5595 16.5642C87.5288 16.5431 86.5822 17.5039 86.6173 18.5347" fill="#3C3C3B"/>
<path d="M71.8574 29.6079C71.8574 29.6079 71.7802 30.1549 71.668 30.9683C71.5699 31.7818 71.4507 32.8758 71.4226 33.9698C71.4016 34.5168 71.3876 35.0638 71.3946 35.5757C71.3946 35.8422 71.3946 36.0316 71.4717 36.1788C71.5208 36.298 71.654 36.4313 71.7942 36.5084C72.0747 36.6697 72.4043 36.7048 72.6287 36.7188C72.8671 36.7328 73.0003 36.7398 73.0003 36.7398C73.1265 36.7398 73.2177 36.8521 73.2106 36.9713C73.2106 37.0765 73.1265 37.1676 73.0213 37.1817C73.0213 37.1817 72.8881 37.2027 72.6287 37.2237C72.3832 37.2237 71.9766 37.2728 71.5138 37.0484C71.2894 36.9362 71.051 36.7679 70.8827 36.4593C70.7284 36.1788 70.7214 35.8492 70.7144 35.5968C70.6934 35.0708 70.6864 34.5028 70.7144 33.9418C70.7705 32.8127 70.9248 31.6977 71.1071 30.8772C71.2824 30.0497 71.4647 29.5237 71.4647 29.5237C71.4997 29.4115 71.619 29.3554 71.7241 29.3905C71.8223 29.4255 71.8714 29.5167 71.8644 29.6149L71.8574 29.6079Z" fill="#DA806C"/>
<path d="M112.968 104.665C116.495 108.221 119.292 113.754 121.438 118.284C121.894 119.252 122.321 120.248 122.455 121.307C122.77 123.817 120.281 127.127 115.751 129.168V146.356C121.522 144.505 128.19 139.456 132.706 135.423C137.229 131.391 140.398 125.465 139.886 119.427C139.592 115.942 138.126 112.674 136.584 109.539C133.695 103.691 130.729 97.9963 126.311 93.1926L117.778 100.135L112.968 104.665Z" fill="#F7C5B4"/>
</g>
<defs>
<clipPath id="clip0_99_146">
<rect width="144.998" height="203.651" fill="white"/>
</clipPath>
</defs>
</svg>
