<svg width="168" height="187" viewBox="0 0 168 187" fill="none" xmlns="http://www.w3.org/2000/svg">
<path d="M154.962 87.6587H12.6218V175.318H154.962V87.6587Z" fill="#ECE9E0"/>
<path d="M24.446 88.4284L31.6381 44.8117H50.4155L47.9612 88.4284C47.9612 88.4284 47.2578 100.176 36.2024 100.176C25.1469 100.176 24.446 88.4284 24.446 88.4284Z" fill="#ECE9E1"/>
<path d="M71.364 88.382V44.8141H94.9866V88.4308C94.9866 88.4308 94.5812 100.157 83.1741 100.157C71.767 100.157 71.364 88.3845 71.364 88.3845V88.382Z" fill="#ECE9E1"/>
<path d="M118.507 88.4284L117.803 44.8117H137.282L142.022 88.4284C142.022 88.4284 141.494 98.4242 131.667 100.003C121.84 101.582 118.746 92.6552 118.507 88.4284Z" fill="#ECE9E1"/>
<path d="M165.535 88.4284L156.408 44.8117H137.279L142.019 88.4284C142.019 88.4284 142.019 100.176 153.776 100.176C165.532 100.176 165.535 88.4284 165.535 88.4284Z" fill="#D6535D"/>
<path d="M145.116 105.335H117.031V175.374H145.116V105.335Z" fill="#353131"/>
<path d="M145.116 173.666H116.983C117.569 174.154 118.253 174.749 118.741 175.332V105.257C118.253 105.843 117.566 106.311 116.983 107.044H145.179C144.593 106.311 143.895 105.843 143.406 105.257V175.374C143.406 177.57 146.825 177.57 146.825 175.374V105.257C146.825 104.31 146.129 103.383 145.179 103.383H116.983C116.035 103.383 115.322 104.308 115.322 105.257V175.332C115.322 176.279 116.03 177.082 116.983 177.082H145.116C147.558 177.082 147.558 173.666 145.116 173.666Z" fill="#3C3C3B"/>
<path d="M50.4155 44.8141H71.3664V88.3821C71.3664 88.3821 70.1942 99.9567 59.6638 100.13C49.1334 100.306 47.9343 88.4284 47.9343 88.4284L50.4155 44.8117V44.8141Z" fill="#D6535D"/>
<path d="M94.989 44.8141V88.4308C94.989 88.4308 95.5189 100.33 106.748 100.157C117.977 99.9811 118.504 88.4431 118.504 88.4431L117.801 44.8141H94.9866H94.989Z" fill="#D6535D"/>
<path d="M31.6845 44.7409C30.6417 51.0029 29.6013 57.2625 28.5586 63.5245C27.2398 71.4557 25.86 79.3795 24.5975 87.3205C24.1139 90.3685 23.5351 93.1408 21.6083 95.6959C19.4568 98.5511 16.1844 100.018 12.6409 100.125C1.75879 100.457 1.74902 88.0062 1.74902 88.0062L13.4321 44.7116L31.682 44.7409H31.6845Z" fill="#D6535D"/>
<path d="M105.554 108.02H19.5911V149.262H105.554V108.02Z" fill="#A0D4F5"/>
<path d="M105.536 149.994H19.7107C19.2736 149.994 18.8584 149.728 18.8584 149.291V108.022C18.8584 107.585 19.2736 107.285 19.7107 107.285H105.536C105.974 107.285 106.286 107.585 106.286 108.022V149.291C106.286 149.728 105.974 149.994 105.536 149.994ZM20.5679 148.53H104.821V108.752H20.5679V148.53Z" fill="#3C3C3B"/>
<path d="M141.697 111.339H120.939V128.764H141.697V111.339Z" fill="#9ED1E3"/>
<path d="M143.348 143.161H137.36C137.057 143.161 136.812 143.406 136.812 143.708V144.323C136.812 144.625 137.057 144.869 137.36 144.869H143.348C143.65 144.869 143.895 144.625 143.895 144.323V143.708C143.895 143.406 143.65 143.161 143.348 143.161Z" fill="#F0F1F1"/>
<path d="M162.943 37.6754H4.20581V44.9965H162.943V37.6754Z" fill="#EFB11D"/>
<path d="M158.507 8.42181H8.81909V37.2182H158.507V8.42181Z" fill="#ECE9E0"/>
<path d="M162.943 1.86362H4.20581V8.94069H162.943V1.86362Z" fill="#EFB11D"/>
<g opacity="0.18">
<path d="M12.2697 100.12C18.7632 100.12 24.026 94.8661 24.026 88.3772C24.026 94.8661 29.2912 100.13 35.7823 100.13C42.2735 100.13 47.5387 94.871 47.5387 88.382C47.5387 94.871 52.8039 100.132 59.2975 100.132C65.7911 100.132 71.0538 94.8734 71.0538 88.3845C71.0538 94.8734 76.319 100.135 82.8102 100.135C89.3013 100.135 94.5665 94.8759 94.5665 88.3869C94.5665 94.8759 99.8317 100.135 106.325 100.135C112.819 100.135 118.082 94.8734 118.082 88.3869C118.082 94.8759 123.347 100.135 129.838 100.135C136.329 100.135 141.594 94.8734 141.594 88.3869C141.594 94.8759 146.86 100.135 153.351 100.135C159.842 100.135 165.109 94.8637 165.109 88.3747L164.931 88.0135H1.35829C1.35829 88.0135 0.603673 100.125 12.2721 100.125L12.2697 100.12Z" fill="#353131"/>
</g>
<path d="M165.874 175.374H1.76367V184.891H165.874V175.374Z" fill="#EFB11D"/>
<path d="M105.065 142.673H20.5679V148.286H105.065V142.673Z" fill="#F0F1F1"/>
<path d="M105.553 142.185H20.5679V143.893H105.553V142.185Z" fill="#3C3C3B"/>
<path d="M105.553 123.882H20.5679V125.346H105.553V123.882Z" fill="#3C3C3B"/>
<g opacity="0.79">
<path d="M26.1849 127.543H22.5217V141.453H26.1849V127.543Z" fill="#D6535D"/>
<path d="M29.6038 127.543H26.1848V141.453H29.6038V127.543Z" fill="#D6535D"/>
<path d="M33.2669 127.543H29.6038V141.453H33.2669V127.543Z" fill="#D6535D"/>
<path d="M36.6861 127.543H33.2671V141.453H36.6861V127.543Z" fill="#D6535D"/>
<path d="M40.3492 127.543H36.686V141.453H40.3492V127.543Z" fill="#D6535D"/>
<path d="M44.483 127.438L41.0518 128.388L44.7616 141.765L48.1928 140.814L44.483 127.438Z" fill="#D6535D"/>
<path d="M48.9576 140.601L45.248 127.225C45.1308 126.803 44.6961 126.559 44.2736 126.674L41.094 127.526C41.0403 127.14 40.7228 126.811 40.3247 126.811H22.5266C22.0894 126.811 21.7915 127.223 21.7915 127.66V141.541C21.7915 141.977 22.0894 142.429 22.5266 142.429H40.3247C40.7619 142.429 41.0842 141.977 41.0842 141.541V131.562L43.9879 141.973C44.0856 142.324 44.4104 142.553 44.7572 142.553C44.828 142.553 44.9012 142.544 44.9721 142.524L48.4032 141.575C48.6059 141.519 48.7769 141.384 48.8819 141.201C48.9845 141.018 49.0138 140.804 48.9576 140.601ZM23.2543 128.519H25.208V140.721H23.2543V128.519ZM26.9175 128.519H28.8712V140.721H26.9175V128.519ZM30.3365 128.519H32.2902V140.721H30.3365V128.519ZM33.9996 128.519H35.9533V140.721H33.9996V128.519ZM39.6165 140.721H37.6628V128.519H39.6165V140.721ZM45.314 140.789L42.0269 128.936L43.9317 128.409L47.2188 140.262L45.314 140.789Z" fill="#3C3C3B"/>
</g>
<g opacity="0.79">
<path d="M26.9177 111.68H23.7429V123.638H26.9177V111.68Z" fill="#D6535D"/>
<path d="M30.0922 111.68H26.9175V123.638H30.0922V111.68Z" fill="#D6535D"/>
<path d="M33.267 111.68H30.0923V123.638H33.267V111.68Z" fill="#D6535D"/>
<path d="M36.1976 111.68H33.2671V123.638H36.1976V111.68Z" fill="#D6535D"/>
<path d="M39.3723 111.68H36.1975V123.638H39.3723V111.68Z" fill="#D6535D"/>
<path d="M43.0153 111.389L40.0171 112.219L43.2586 123.907L46.2568 123.077L43.0153 111.389Z" fill="#D6535D"/>
<path d="M46.9234 122.891L43.6827 111.204C43.5801 110.836 43.1992 110.621 42.8328 110.724L40.0537 111.522C40.0073 111.185 39.7313 110.951 39.3821 110.951H23.8307C23.4498 110.951 23.2568 111.204 23.2568 111.585V123.714C23.2568 124.094 23.4473 124.373 23.8307 124.373H39.3821C39.7631 124.373 40.1099 124.094 40.1099 123.714V114.997L42.6155 124.092C42.701 124.397 42.9696 124.6 43.2724 124.6C43.3335 124.6 43.3921 124.592 43.4531 124.575L46.4472 123.745C46.623 123.697 46.772 123.579 46.8623 123.418C46.9527 123.26 46.9747 123.069 46.9258 122.894L46.9234 122.891ZM24.4755 112.168H26.1849V122.906H24.4755V112.168ZM27.6502 112.168H29.3597V122.906H27.6502V112.168ZM30.825 112.168H32.5344V122.906H30.825V112.168ZM33.7555 112.168H35.465V122.906H33.7555V112.168ZM38.6397 122.906H36.9302V112.168H38.6397V122.906ZM43.7413 123.055L40.8694 112.698L42.5349 112.237L45.4068 122.594L43.7413 123.055Z" fill="#3C3C3B"/>
</g>
<g opacity="0.79">
<path d="M50.8503 111.68H47.6755V123.638H50.8503V111.68Z" fill="#D6535D"/>
<path d="M53.7809 111.68H50.8503V123.638H53.7809V111.68Z" fill="#D6535D"/>
<path d="M56.9555 111.68H53.7808V123.638H56.9555V111.68Z" fill="#D6535D"/>
<path d="M60.1303 111.68H56.9556V123.638H60.1303V111.68Z" fill="#D6535D"/>
<path d="M58.8653 110.948H47.6389C47.2579 110.948 46.9429 111.202 46.9429 111.583V123.711C46.9429 124.092 47.2555 124.37 47.6389 124.37H58.8653C59.8201 124.37 60.6212 123.628 60.6212 122.674V112.62C60.6212 111.666 59.8201 110.948 58.8653 110.948ZM50.1176 122.906H48.4081V112.168H50.1176V122.906ZM53.0482 122.906H51.3387V112.168H53.0482V122.906ZM56.2229 122.906H54.5134V112.168H56.2229V122.906ZM59.3977 122.906H57.6882V112.168H59.3977V122.906Z" fill="#3C3C3B"/>
</g>
<g opacity="0.79">
<path d="M100.67 141.453H86.0876C85.1279 141.453 84.4099 140.704 84.4099 139.745C84.4099 138.785 85.1279 138.036 86.0876 138.036H100.67V137.06H86.0876C84.6932 137.06 83.5601 138.229 83.5601 139.623C83.5601 141.016 84.6956 142.185 86.0876 142.185H100.67V141.453Z" fill="#3C3C3B"/>
<path d="M86.9253 139.012H100.916V138.036H86.0999C85.0253 138.036 84.3611 138.785 84.3611 139.745C84.3611 140.704 85.0424 141.453 86.0999 141.453H100.916V140.477H86.9253C86.5468 140.477 86.2415 140.123 86.2415 139.745C86.2415 139.366 86.5468 139.012 86.9253 139.012Z" fill="#618247"/>
<path d="M86.9155 139.012C86.537 139.012 86.2317 139.366 86.2317 139.745C86.2317 140.123 86.537 140.477 86.9155 140.477H100.916V139.012H86.9155Z" fill="#F0F1F1"/>
<path d="M100.777 138.036H99.9392V137.06H100.777C100.994 137.06 101.172 137.331 101.172 137.548C101.172 137.765 100.997 138.036 100.777 138.036Z" fill="#3C3C3B"/>
<path d="M100.777 142.185H99.9392V141.453H100.777C100.994 141.453 101.172 141.602 101.172 141.819C101.172 142.036 100.997 142.185 100.777 142.185Z" fill="#3C3C3B"/>
</g>
<g opacity="0.79">
<path d="M100.67 136.328H86.0876C85.1279 136.328 84.4099 135.579 84.4099 134.62C84.4099 133.661 85.1279 132.911 86.0876 132.911H100.67V132.179H86.0876C84.6932 132.179 83.5601 133.226 83.5601 134.62C83.5601 136.013 84.6956 137.06 86.0876 137.06H100.67V136.328Z" fill="#3C3C3B"/>
<path d="M86.9253 133.888H100.916V132.911H86.0999C85.0253 132.911 84.3611 133.661 84.3611 134.62C84.3611 135.579 85.0424 136.328 86.0999 136.328H100.916V135.352H86.9253C86.5468 135.352 86.2415 134.998 86.2415 134.62C86.2415 134.242 86.5468 133.888 86.9253 133.888Z" fill="#618247"/>
<path d="M86.9155 133.888C86.537 133.888 86.2317 134.241 86.2317 134.62C86.2317 134.998 86.537 135.352 86.9155 135.352H100.916V133.888H86.9155Z" fill="#F0F1F1"/>
<path d="M100.777 132.911H99.9392V132.179H100.777C100.994 132.179 101.172 132.328 101.172 132.545C101.172 132.763 100.997 132.911 100.777 132.911Z" fill="#3C3C3B"/>
<path d="M100.777 137.06H99.9392V136.328H100.777C100.994 136.328 101.172 136.477 101.172 136.694C101.172 136.911 100.997 137.06 100.777 137.06Z" fill="#3C3C3B"/>
</g>
<path d="M30.4098 131.879C37.2257 126.979 44.0417 122.079 50.8576 117.178C51.7661 116.524 50.8918 115.004 49.9711 115.665C43.1552 120.566 36.3393 125.466 29.5233 130.366C28.6148 131.02 29.4891 132.541 30.4098 131.879Z" fill="#F0F1F1"/>
<path d="M76.8051 134.437C83.621 129.536 90.437 124.636 97.2529 119.736C98.1614 119.082 97.2871 117.562 96.3664 118.223C89.5505 123.123 82.7345 128.023 75.9186 132.924C75.0101 133.578 75.8844 135.098 76.8051 134.437Z" fill="#F0F1F1"/>
<path d="M84.8297 138.305C89.4233 135 94.0194 131.699 98.613 128.394C99.5215 127.74 98.6472 126.22 97.7265 126.881C93.1329 130.186 88.5369 133.487 83.9432 136.792C83.0348 137.446 83.909 138.966 84.8297 138.305Z" fill="#F0F1F1"/>
<g opacity="0.79">
<path d="M53.3154 141.185V127.811H63.7702V141.185H53.3154Z" fill="#E9B13D" stroke="#ECE9E1" stroke-width="2"/>
</g>
</svg>
