<svg width="181" height="167" viewBox="0 0 181 167" fill="none" xmlns="http://www.w3.org/2000/svg">
<path d="M161.18 83.1012C161.18 126.236 126.218 161.202 83.0902 161.202C39.9628 161.202 5 126.236 5 83.1012C5 39.9665 39.9628 5 83.0902 5C126.218 5 161.18 39.9665 161.18 83.1012Z" fill="#ECE9E2" stroke="#EFB11D" stroke-width="10"/>
<path d="M16.7914 90.8115V71.9024H20.7893V87.5154H28.8958V90.8115H16.7914ZM37.8772 91.0885C36.443 91.0885 35.2027 90.7838 34.1563 90.1744C33.116 89.5589 32.3128 88.7033 31.7465 87.6077C31.1802 86.5059 30.8971 85.2287 30.8971 83.776C30.8971 82.311 31.1802 81.0307 31.7465 79.9351C32.3128 78.8333 33.116 77.9777 34.1563 77.3683C35.2027 76.7528 36.443 76.445 37.8772 76.445C39.3114 76.445 40.5486 76.7528 41.5888 77.3683C42.6352 77.9777 43.4416 78.8333 44.0079 79.9351C44.5741 81.0307 44.8573 82.311 44.8573 83.776C44.8573 85.2287 44.5741 86.5059 44.0079 87.6077C43.4416 88.7033 42.6352 89.5589 41.5888 90.1744C40.5486 90.7838 39.3114 91.0885 37.8772 91.0885ZM37.8956 88.0416C38.5481 88.0416 39.0928 87.857 39.5299 87.4877C39.9669 87.1122 40.2962 86.6013 40.5178 85.955C40.7455 85.3087 40.8594 84.5731 40.8594 83.7483C40.8594 82.9235 40.7455 82.1879 40.5178 81.5416C40.2962 80.8953 39.9669 80.3844 39.5299 80.009C39.0928 79.6335 38.5481 79.4458 37.8956 79.4458C37.237 79.4458 36.683 79.6335 36.2337 80.009C35.7905 80.3844 35.4551 80.8953 35.2273 81.5416C35.0057 82.1879 34.8949 82.9235 34.8949 83.7483C34.8949 84.5731 35.0057 85.3087 35.2273 85.955C35.4551 86.6013 35.7905 87.1122 36.2337 87.4877C36.683 87.857 37.237 88.0416 37.8956 88.0416ZM53.8225 91.0885C52.3883 91.0885 51.148 90.7838 50.1016 90.1744C49.0614 89.5589 48.2581 88.7033 47.6918 87.6077C47.1255 86.5059 46.8424 85.2287 46.8424 83.776C46.8424 82.311 47.1255 81.0307 47.6918 79.9351C48.2581 78.8333 49.0614 77.9777 50.1016 77.3683C51.148 76.7528 52.3883 76.445 53.8225 76.445C55.2567 76.445 56.4939 76.7528 57.5341 77.3683C58.5805 77.9777 59.3869 78.8333 59.9532 79.9351C60.5195 81.0307 60.8026 82.311 60.8026 83.776C60.8026 85.2287 60.5195 86.5059 59.9532 87.6077C59.3869 88.7033 58.5805 89.5589 57.5341 90.1744C56.4939 90.7838 55.2567 91.0885 53.8225 91.0885ZM53.841 88.0416C54.4934 88.0416 55.0382 87.857 55.4752 87.4877C55.9122 87.1122 56.2415 86.6013 56.4631 85.955C56.6909 85.3087 56.8047 84.5731 56.8047 83.7483C56.8047 82.9235 56.6909 82.1879 56.4631 81.5416C56.2415 80.8953 55.9122 80.3844 55.4752 80.009C55.0382 79.6335 54.4934 79.4458 53.841 79.4458C53.1823 79.4458 52.6284 79.6335 52.179 80.009C51.7358 80.3844 51.4004 80.8953 51.1726 81.5416C50.951 82.1879 50.8402 82.9235 50.8402 83.7483C50.8402 84.5731 50.951 85.3087 51.1726 85.955C51.4004 86.6013 51.7358 87.1122 52.179 87.4877C52.6284 87.857 53.1823 88.0416 53.841 88.0416ZM70.9035 76.6297V79.5843H62.363V76.6297H70.9035ZM64.3019 73.232H68.2351V86.4536C68.2351 86.8167 68.2905 87.0999 68.4013 87.303C68.5121 87.5 68.666 87.6385 68.863 87.7185C69.0661 87.7985 69.3 87.8385 69.5647 87.8385C69.7493 87.8385 69.934 87.8231 70.1187 87.7923C70.3033 87.7554 70.4449 87.7277 70.5434 87.7093L71.162 90.6361C70.965 90.6977 70.688 90.7684 70.331 90.8485C69.974 90.9346 69.5401 90.9869 69.0292 91.0054C68.0812 91.0423 67.2503 90.9162 66.5363 90.6269C65.8284 90.3376 65.2775 89.8882 64.8836 89.2789C64.4896 88.6695 64.2957 87.9001 64.3019 86.9706V73.232ZM73.8441 90.8115V71.9024H77.7774V79.0118H77.8974C78.0698 78.6302 78.3191 78.2424 78.6453 77.8485C78.9777 77.4484 79.4085 77.116 79.9379 76.8513C80.4734 76.5805 81.1382 76.445 81.9322 76.445C82.9663 76.445 83.9204 76.7159 84.7944 77.2575C85.6685 77.7931 86.3671 78.6025 86.8903 79.6858C87.4135 80.763 87.6751 82.1141 87.6751 83.7391C87.6751 85.321 87.4197 86.6567 86.9088 87.7462C86.404 88.8295 85.7147 89.6512 84.8406 90.2114C83.9727 90.7654 83.0002 91.0423 81.923 91.0423C81.1597 91.0423 80.5103 90.9162 79.9748 90.6638C79.4455 90.4114 79.0115 90.0944 78.673 89.7128C78.3344 89.325 78.0759 88.9342 77.8974 88.5402H77.722V90.8115H73.8441ZM77.6943 83.7206C77.6943 84.5639 77.8112 85.2994 78.0451 85.9273C78.279 86.5551 78.6176 87.0445 79.0608 87.3953C79.504 87.74 80.0425 87.9124 80.6765 87.9124C81.3167 87.9124 81.8584 87.7369 82.3015 87.3861C82.7447 87.0291 83.0802 86.5367 83.3079 85.9088C83.5418 85.2748 83.6588 84.5454 83.6588 83.7206C83.6588 82.902 83.5449 82.1818 83.3172 81.5601C83.0894 80.9384 82.754 80.4521 82.3108 80.1013C81.8676 79.7504 81.3228 79.575 80.6765 79.575C80.0364 79.575 79.4947 79.7443 79.0515 80.0828C78.6145 80.4214 78.279 80.9015 78.0451 81.5232C77.8112 82.1449 77.6943 82.8773 77.6943 83.7206ZM96.7073 91.0885C95.2731 91.0885 94.0328 90.7838 92.9864 90.1744C91.9461 89.5589 91.1429 88.7033 90.5766 87.6077C90.0103 86.5059 89.7271 85.2287 89.7271 83.776C89.7271 82.311 90.0103 81.0307 90.5766 79.9351C91.1429 78.8333 91.9461 77.9777 92.9864 77.3683C94.0328 76.7528 95.2731 76.445 96.7073 76.445C98.1414 76.445 99.3787 76.7528 100.419 77.3683C101.465 77.9777 102.272 78.8333 102.838 79.9351C103.404 81.0307 103.687 82.311 103.687 83.776C103.687 85.2287 103.404 86.5059 102.838 87.6077C102.272 88.7033 101.465 89.5589 100.419 90.1744C99.3787 90.7838 98.1414 91.0885 96.7073 91.0885ZM96.7257 88.0416C97.3782 88.0416 97.9229 87.857 98.36 87.4877C98.797 87.1122 99.1263 86.6013 99.3479 85.955C99.5756 85.3087 99.6895 84.5731 99.6895 83.7483C99.6895 82.9235 99.5756 82.1879 99.3479 81.5416C99.1263 80.8953 98.797 80.3844 98.36 80.009C97.9229 79.6335 97.3782 79.4458 96.7257 79.4458C96.0671 79.4458 95.5131 79.6335 95.0638 80.009C94.6206 80.3844 94.2851 80.8953 94.0574 81.5416C93.8358 82.1879 93.725 82.9235 93.725 83.7483C93.725 84.5731 93.8358 85.3087 94.0574 85.955C94.2851 86.6013 94.6206 87.1122 95.0638 87.4877C95.5131 87.857 96.0671 88.0416 96.7257 88.0416ZM112.653 91.0885C111.218 91.0885 109.978 90.7838 108.932 90.1744C107.891 89.5589 107.088 88.7033 106.522 87.6077C105.956 86.5059 105.672 85.2287 105.672 83.776C105.672 82.311 105.956 81.0307 106.522 79.9351C107.088 78.8333 107.891 77.9777 108.932 77.3683C109.978 76.7528 111.218 76.445 112.653 76.445C114.087 76.445 115.324 76.7528 116.364 77.3683C117.411 77.9777 118.217 78.8333 118.783 79.9351C119.35 81.0307 119.633 82.311 119.633 83.776C119.633 85.2287 119.35 86.5059 118.783 87.6077C118.217 88.7033 117.411 89.5589 116.364 90.1744C115.324 90.7838 114.087 91.0885 112.653 91.0885ZM112.671 88.0416C113.323 88.0416 113.868 87.857 114.305 87.4877C114.742 87.1122 115.072 86.6013 115.293 85.955C115.521 85.3087 115.635 84.5731 115.635 83.7483C115.635 82.9235 115.521 82.1879 115.293 81.5416C115.072 80.8953 114.742 80.3844 114.305 80.009C113.868 79.6335 113.323 79.4458 112.671 79.4458C112.012 79.4458 111.458 79.6335 111.009 80.009C110.566 80.3844 110.23 80.8953 110.003 81.5416C109.781 82.1879 109.67 82.9235 109.67 83.7483C109.67 84.5731 109.781 85.3087 110.003 85.955C110.23 86.6013 110.566 87.1122 111.009 87.4877C111.458 87.857 112.012 88.0416 112.671 88.0416ZM125.754 86.7306L125.763 82.0125H126.336L130.878 76.6297H135.393L129.29 83.7575H128.358L125.754 86.7306ZM122.19 90.8115V71.9024H126.123V90.8115H122.19ZM131.054 90.8115L126.881 84.6347L129.503 81.8556L135.661 90.8115H131.054ZM149.123 80.6737L145.522 80.8953C145.46 80.5876 145.328 80.3106 145.125 80.0644C144.922 79.812 144.654 79.6119 144.322 79.4642C143.995 79.3103 143.605 79.2334 143.149 79.2334C142.54 79.2334 142.026 79.3627 141.607 79.6212C141.189 79.8735 140.979 80.2121 140.979 80.6368C140.979 80.9753 141.115 81.2616 141.386 81.4955C141.656 81.7294 142.121 81.9171 142.78 82.0587L145.346 82.5757C146.725 82.8589 147.753 83.3144 148.43 83.9422C149.107 84.57 149.446 85.3949 149.446 86.4166C149.446 87.3461 149.172 88.1617 148.624 88.8634C148.082 89.5651 147.338 90.1129 146.39 90.5068C145.448 90.8946 144.362 91.0885 143.131 91.0885C141.253 91.0885 139.757 90.6977 138.643 89.9159C137.535 89.128 136.886 88.057 136.695 86.7029L140.564 86.4997C140.681 87.0722 140.964 87.5092 141.413 87.8108C141.863 88.1063 142.438 88.254 143.14 88.254C143.829 88.254 144.383 88.1217 144.802 87.857C145.226 87.5861 145.442 87.2384 145.448 86.8137C145.442 86.4566 145.291 86.1643 144.996 85.9365C144.7 85.7026 144.245 85.5241 143.629 85.401L141.173 84.9117C139.788 84.6347 138.757 84.1546 138.08 83.4713C137.409 82.7881 137.074 81.9171 137.074 80.8584C137.074 79.9474 137.32 79.1626 137.812 78.504C138.311 77.8454 139.01 77.3376 139.908 76.9806C140.813 76.6235 141.872 76.445 143.084 76.445C144.876 76.445 146.285 76.8236 147.313 77.5807C148.347 78.3378 148.95 79.3688 149.123 80.6737Z" fill="#D6535D"/>
</svg>
